<svg width="230" height="57" viewBox="0 0 230 57" fill="none" xmlns="http://www.w3.org/2000/svg">
<path d="M66.85 21.7C66.6167 21.3333 66.4 20.8333 66.2 20.2C66 19.5667 65.9 18.9 65.9 18.2C65.9 16.9 66.1833 15.9667 66.75 15.4C67.35 14.8333 68.1167 14.55 69.05 14.55H90.85C91.0833 14.9167 91.3 15.4167 91.5 16.05C91.7 16.6833 91.8 17.35 91.8 18.05C91.8 19.35 91.5 20.2833 90.9 20.85C90.3333 21.4167 89.5833 21.7 88.65 21.7H83.1V44.8C82.7333 44.9 82.15 45 81.35 45.1C80.5833 45.2 79.8167 45.25 79.05 45.25C78.2833 45.25 77.6 45.1833 77 45.05C76.4333 44.95 75.95 44.75 75.55 44.45C75.15 44.15 74.85 43.7333 74.65 43.2C74.45 42.6667 74.35 41.9667 74.35 41.1V21.7H66.85ZM117.555 32.85C117.555 34.9167 117.238 36.7667 116.605 38.4C115.971 40 115.071 41.35 113.905 42.45C112.771 43.55 111.405 44.3833 109.805 44.95C108.205 45.5167 106.421 45.8 104.455 45.8C102.488 45.8 100.705 45.5 99.1047 44.9C97.5047 44.3 96.1214 43.45 94.9547 42.35C93.8214 41.2167 92.938 39.85 92.3047 38.25C91.6714 36.65 91.3547 34.85 91.3547 32.85C91.3547 30.8833 91.6714 29.1 92.3047 27.5C92.938 25.9 93.8214 24.55 94.9547 23.45C96.1214 22.3167 97.5047 21.45 99.1047 20.85C100.705 20.25 102.488 19.95 104.455 19.95C106.421 19.95 108.205 20.2667 109.805 20.9C111.405 21.5 112.771 22.3667 113.905 23.5C115.071 24.6 115.971 25.95 116.605 27.55C117.238 29.15 117.555 30.9167 117.555 32.85ZM100.055 32.85C100.055 34.8833 100.438 36.45 101.205 37.55C102.005 38.6167 103.105 39.15 104.505 39.15C105.905 39.15 106.971 38.6 107.705 37.5C108.471 36.4 108.855 34.85 108.855 32.85C108.855 30.85 108.471 29.3167 107.705 28.25C106.938 27.15 105.855 26.6 104.455 26.6C103.055 26.6 101.971 27.15 101.205 28.25C100.438 29.3167 100.055 30.85 100.055 32.85ZM188.945 44.95C188.579 45.0167 188.029 45.1 187.295 45.2C186.595 45.3333 185.879 45.4 185.145 45.4C184.412 45.4 183.745 45.35 183.145 45.25C182.579 45.15 182.095 44.95 181.695 44.65C181.295 44.35 180.979 43.95 180.745 43.45C180.545 42.9167 180.445 42.2333 180.445 41.4V12.4C180.812 12.3333 181.345 12.25 182.045 12.15C182.779 12.0167 183.512 11.95 184.245 11.95C184.979 11.95 185.629 12 186.195 12.1C186.795 12.2 187.295 12.4 187.695 12.7C188.095 13 188.395 13.4167 188.595 13.95C188.829 14.45 188.945 15.1167 188.945 15.95V44.95ZM198.109 38.8C197.742 37.9667 197.342 37.0333 196.909 36C196.509 34.9667 196.076 33.7833 195.609 32.45C195.176 31.1167 194.709 29.6 194.209 27.9C193.742 26.1667 193.242 24.1833 192.709 21.95C193.176 21.4833 193.792 21.0833 194.559 20.75C195.359 20.3833 196.226 20.2 197.159 20.2C198.326 20.2 199.292 20.45 200.059 20.95C200.826 21.4167 201.392 22.3167 201.759 23.65L205.709 37.4H205.909C206.309 36.2667 206.692 35.0333 207.059 33.7C207.459 32.3667 207.842 31 208.209 29.6C208.576 28.1667 208.909 26.75 209.209 25.35C209.542 23.9167 209.826 22.5167 210.059 21.15C211.259 20.5167 212.576 20.2 214.009 20.2C215.176 20.2 216.142 20.45 216.909 20.95C217.676 21.45 218.059 22.3167 218.059 23.55C218.059 24.45 217.942 25.5 217.709 26.7C217.476 27.8667 217.159 29.1167 216.759 30.45C216.392 31.7833 215.942 33.1667 215.409 34.6C214.909 36 214.376 37.3833 213.809 38.75C213.242 40.1167 212.659 41.4167 212.059 42.65C211.459 43.85 210.876 44.9333 210.309 45.9C209.376 47.5333 208.509 48.8667 207.709 49.9C206.909 50.9333 206.142 51.7333 205.409 52.3C204.676 52.9 203.942 53.3 203.209 53.5C202.476 53.7333 201.709 53.85 200.909 53.85C199.509 53.85 198.376 53.4333 197.509 52.6C196.642 51.7667 196.126 50.6833 195.959 49.35C197.026 48.5167 198.092 47.5833 199.159 46.55C200.226 45.55 201.192 44.5167 202.059 43.45C201.492 43.2833 200.876 42.9 200.209 42.3C199.576 41.6667 198.876 40.5 198.109 38.8Z" fill="#4A2559"/>
<path d="M120.652 32.85C120.652 30.65 120.985 28.75 121.652 27.15C122.318 25.5167 123.235 24.1667 124.402 23.1C125.602 22.0333 126.985 21.25 128.552 20.75C130.152 20.2167 131.868 19.95 133.702 19.95C134.368 19.95 135.018 20.0167 135.652 20.15C136.285 20.25 136.802 20.3833 137.202 20.55V12.45C137.535 12.35 138.068 12.25 138.802 12.15C139.535 12.0167 140.285 11.95 141.052 11.95C141.785 11.95 142.435 12 143.002 12.1C143.602 12.2 144.102 12.4 144.502 12.7C144.902 13 145.202 13.4167 145.402 13.95C145.602 14.45 145.702 15.1167 145.702 15.95V39.65C145.702 41.2167 144.968 42.4667 143.502 43.4C142.535 44.0333 141.285 44.5833 139.752 45.05C138.218 45.55 136.452 45.8 134.452 45.8C132.285 45.8 130.335 45.5 128.602 44.9C126.902 44.3 125.452 43.4333 124.252 42.3C123.085 41.1667 122.185 39.8167 121.552 38.25C120.952 36.65 120.652 34.85 120.652 32.85ZM134.852 26.6C133.052 26.6 131.668 27.1167 130.702 28.15C129.735 29.1833 129.252 30.75 129.252 32.85C129.252 34.9167 129.702 36.4833 130.602 37.55C131.502 38.5833 132.802 39.1 134.502 39.1C135.102 39.1 135.635 39.0167 136.102 38.85C136.602 38.65 136.985 38.4333 137.252 38.2V27.2C136.585 26.8 135.785 26.6 134.852 26.6ZM149.948 32.85C149.948 30.65 150.282 28.75 150.948 27.15C151.615 25.5167 152.532 24.1667 153.698 23.1C154.898 22.0333 156.282 21.25 157.848 20.75C159.448 20.2167 161.165 19.95 162.998 19.95C163.665 19.95 164.315 20.0167 164.948 20.15C165.582 20.25 166.098 20.3833 166.498 20.55V12.45C166.832 12.35 167.365 12.25 168.098 12.15C168.832 12.0167 169.582 11.95 170.348 11.95C171.082 11.95 171.732 12 172.298 12.1C172.898 12.2 173.398 12.4 173.798 12.7C174.198 13 174.498 13.4167 174.698 13.95C174.898 14.45 174.998 15.1167 174.998 15.95V39.65C174.998 41.2167 174.265 42.4667 172.798 43.4C171.832 44.0333 170.582 44.5833 169.048 45.05C167.515 45.55 165.748 45.8 163.748 45.8C161.582 45.8 159.632 45.5 157.898 44.9C156.198 44.3 154.748 43.4333 153.548 42.3C152.382 41.1667 151.482 39.8167 150.848 38.25C150.248 36.65 149.948 34.85 149.948 32.85ZM164.148 26.6C162.348 26.6 160.965 27.1167 159.998 28.15C159.032 29.1833 158.548 30.75 158.548 32.85C158.548 34.9167 158.998 36.4833 159.898 37.55C160.798 38.5833 162.098 39.1 163.798 39.1C164.398 39.1 164.932 39.0167 165.398 38.85C165.898 38.65 166.282 38.4333 166.548 38.2V27.2C165.882 26.8 165.082 26.6 164.148 26.6Z" fill="#D18109"/>
<path d="M16.3789 4.71831L16.0547 5.44736C16.0409 5.47521 16.0337 5.50588 16.0337 5.53698C16.0337 5.56808 16.0409 5.59875 16.0547 5.6266L16.4373 6.33349C16.4611 6.37096 16.4717 6.41521 16.4677 6.45937C16.4637 6.50353 16.4452 6.54514 16.4152 6.57773C16.3851 6.61032 16.3451 6.63207 16.3014 6.63962C16.2577 6.64717 16.2128 6.64009 16.1735 6.61947L15.4384 6.29523C15.4103 6.28106 15.3793 6.27368 15.3478 6.27368C15.3163 6.27368 15.2853 6.28106 15.2572 6.29523L14.5523 6.67788C14.5148 6.70158 14.4706 6.71226 14.4264 6.70825C14.3823 6.70425 14.3407 6.68577 14.3081 6.65571C14.2755 6.62564 14.2537 6.58566 14.2462 6.54197C14.2386 6.49827 14.2457 6.45331 14.2663 6.41405L14.5906 5.67896C14.6044 5.65111 14.6116 5.62044 14.6116 5.58934C14.6116 5.55825 14.6044 5.52757 14.5906 5.49972L14.2099 4.79283C14.1868 4.75552 14.1765 4.71167 14.1806 4.66796C14.1846 4.62425 14.2029 4.58307 14.2325 4.55069C14.2622 4.51831 14.3016 4.4965 14.3448 4.48859C14.388 4.48068 14.4325 4.48709 14.4717 4.50685L15.2068 4.84318C15.2349 4.85734 15.266 4.86472 15.2975 4.86472C15.3289 4.86472 15.36 4.85734 15.3881 4.84318L16.095 4.46053C16.1319 4.43922 16.1747 4.43019 16.2171 4.43475C16.2595 4.4393 16.2994 4.4572 16.331 4.48587C16.3625 4.51454 16.3842 4.5525 16.3928 4.59427C16.4015 4.63605 16.3966 4.67948 16.3789 4.71831Z" fill="#F8931F"/>
<path d="M45.8928 4.9105L45.8686 5.57107C45.8682 5.59681 45.8736 5.62231 45.8844 5.64567C45.8953 5.66903 45.9112 5.68965 45.9311 5.706L46.4386 6.13094C46.4653 6.15365 46.4844 6.18412 46.493 6.21812C46.5017 6.25212 46.4996 6.28798 46.487 6.32072C46.4744 6.35347 46.4519 6.38148 46.4226 6.40088C46.3934 6.42028 46.3589 6.43011 46.3238 6.42901L45.6632 6.40484C45.6372 6.40427 45.6113 6.40959 45.5876 6.4204C45.5639 6.43121 45.5429 6.44723 45.5263 6.46727L45.1033 6.97479C45.0808 7.00236 45.0502 7.02214 45.0158 7.03131C44.9815 7.04048 44.9451 7.03857 44.9118 7.02586C44.8786 7.01314 44.8502 6.99027 44.8307 6.96049C44.8112 6.93071 44.8016 6.89554 44.8033 6.85999L44.8274 6.19942C44.8284 6.17351 44.8235 6.14771 44.813 6.12399C44.8025 6.10027 44.7868 6.07923 44.767 6.06247L44.2595 5.64961C44.2319 5.62712 44.2121 5.5965 44.203 5.56211C44.1938 5.52772 44.1957 5.49132 44.2084 5.45808C44.2211 5.42484 44.244 5.39646 44.2738 5.37697C44.3036 5.35748 44.3387 5.34788 44.3743 5.34954L45.0349 5.3737C45.0608 5.37466 45.0866 5.36972 45.1103 5.35926C45.134 5.34879 45.1551 5.33307 45.1718 5.31329L45.5947 4.80577C45.6169 4.77968 45.6464 4.76092 45.6795 4.75198C45.7125 4.74303 45.7475 4.74431 45.7798 4.75566C45.8121 4.767 45.8402 4.78788 45.8603 4.81552C45.8805 4.84317 45.8918 4.87628 45.8928 4.9105Z" fill="#F8931F"/>
<path d="M38.3852 50.1231L38.788 50.6407C38.8032 50.6614 38.8233 50.6781 38.8465 50.6893C38.8696 50.7005 38.8952 50.706 38.9209 50.7052H39.5835C39.6187 50.7044 39.6533 50.7149 39.6823 50.735C39.7112 50.7551 39.7331 50.7839 39.7447 50.8172C39.7563 50.8505 39.7571 50.8866 39.747 50.9204C39.7368 50.9542 39.7162 50.9839 39.6882 51.0052L39.1706 51.408C39.1501 51.424 39.1336 51.4445 39.1224 51.4679C39.1113 51.4913 39.1057 51.517 39.1062 51.543V52.2035C39.1066 52.2389 39.096 52.2735 39.0757 52.3025C39.0555 52.3314 39.0267 52.3534 38.9934 52.3651C38.96 52.3769 38.9238 52.378 38.8899 52.3681C38.8559 52.3583 38.8259 52.338 38.8041 52.3103L38.4013 51.7907C38.3854 51.7706 38.3652 51.7543 38.3422 51.7432C38.3192 51.732 38.2939 51.7262 38.2684 51.7262H37.6058C37.5706 51.7262 37.5363 51.7153 37.5076 51.6949C37.479 51.6745 37.4574 51.6457 37.4459 51.6125C37.4343 51.5792 37.4335 51.5432 37.4434 51.5095C37.4532 51.4757 37.4734 51.4459 37.501 51.4241L38.0186 51.0213C38.0389 51.0052 38.0552 50.9847 38.0664 50.9613C38.0775 50.9379 38.0832 50.9123 38.0831 50.8864V50.2258C38.0835 50.1908 38.0947 50.1568 38.1153 50.1285C38.1358 50.1001 38.1646 50.0789 38.1978 50.0676C38.2309 50.0563 38.2667 50.0556 38.3003 50.0656C38.3339 50.0755 38.3635 50.0956 38.3852 50.1231Z" fill="#F8931F"/>
<path d="M53.8886 24.5375L54.1867 25.1296C54.1984 25.1525 54.2151 25.1724 54.2357 25.1878C54.2564 25.2032 54.2802 25.2136 54.3055 25.2182L54.954 25.3451C54.989 25.3515 55.0211 25.3688 55.0457 25.3945C55.0704 25.4202 55.0863 25.453 55.0912 25.4882C55.0961 25.5234 55.0897 25.5593 55.0731 25.5908C55.0564 25.6222 55.0302 25.6476 54.9983 25.6633L54.4082 25.9594C54.385 25.9709 54.3648 25.9876 54.3491 26.0082C54.3334 26.0288 54.3226 26.0528 54.3176 26.0782L54.1907 26.7287C54.184 26.7636 54.1665 26.7954 54.1407 26.8198C54.1149 26.8442 54.0821 26.8598 54.0469 26.8645C54.0117 26.8692 53.9759 26.8627 53.9446 26.8459C53.9133 26.8291 53.8881 26.8029 53.8725 26.771L53.5785 26.191C53.5666 26.168 53.5498 26.148 53.5292 26.1323C53.5087 26.1167 53.4849 26.1057 53.4597 26.1003L52.8112 25.9735C52.7768 25.9666 52.7454 25.9492 52.7214 25.9236C52.6973 25.8981 52.6818 25.8658 52.6769 25.8311C52.6721 25.7964 52.6781 25.761 52.6942 25.7298C52.7103 25.6987 52.7357 25.6733 52.7669 25.6573L53.357 25.3592C53.3802 25.3478 53.4006 25.3311 53.4163 25.3105C53.432 25.2899 53.4427 25.2659 53.4476 25.2404L53.5785 24.5798C53.5869 24.5473 53.6048 24.5181 53.6299 24.4958C53.655 24.4735 53.6861 24.4592 53.7194 24.4547C53.7526 24.4501 53.7865 24.4556 53.8166 24.4704C53.8467 24.4851 53.8718 24.5085 53.8886 24.5375Z" fill="#F8931F"/>
<path d="M3.6689 31.1003L3.22986 31.5917C3.21296 31.611 3.20058 31.6339 3.19361 31.6586C3.18664 31.6834 3.18527 31.7093 3.18958 31.7347L3.3084 32.3852C3.3151 32.42 3.31066 32.4561 3.2957 32.4883C3.28074 32.5205 3.25602 32.5472 3.22505 32.5646C3.19409 32.582 3.15843 32.5892 3.12315 32.5852C3.08786 32.5812 3.05474 32.5661 3.02846 32.5422L2.53706 32.0992C2.51786 32.082 2.495 32.0695 2.47022 32.0625C2.44545 32.0555 2.4194 32.0543 2.39407 32.0589L1.74357 32.1777C1.7087 32.1844 1.6726 32.18 1.64039 32.165C1.60818 32.1501 1.5815 32.1253 1.56412 32.0944C1.54674 32.0634 1.53955 32.0278 1.54356 31.9925C1.54758 31.9572 1.56259 31.9241 1.58648 31.8978L2.02955 31.4064C2.04621 31.3869 2.05844 31.364 2.06539 31.3393C2.07235 31.3146 2.07386 31.2887 2.06983 31.2634L1.94698 30.623C1.94028 30.5881 1.94472 30.552 1.95968 30.5198C1.97464 30.4876 1.99935 30.4609 2.03032 30.4435C2.06129 30.4261 2.09695 30.4189 2.13223 30.423C2.16751 30.427 2.20064 30.442 2.22692 30.4659L2.71832 30.9069C2.73734 30.9244 2.76011 30.9373 2.7849 30.9447C2.80969 30.952 2.83582 30.9536 2.86131 30.9492L3.51181 30.8244C3.54595 30.8187 3.581 30.8236 3.61225 30.8385C3.6435 30.8534 3.66943 30.8775 3.68656 30.9075C3.70368 30.9376 3.71117 30.9722 3.70801 31.0067C3.70485 31.0411 3.6912 31.0738 3.6689 31.1003Z" fill="#F8931F"/>
<path d="M47.6875 7.84482L47.6533 8.78734C47.6511 8.82533 47.6578 8.86329 47.6729 8.89824C47.6879 8.93318 47.7108 8.96417 47.7399 8.98874L48.4629 9.59292C48.5019 9.62483 48.5299 9.66825 48.5428 9.71698C48.5558 9.76572 48.553 9.81729 48.5349 9.86437C48.5169 9.91144 48.4844 9.95162 48.4422 9.97917C48.3999 10.0067 48.3501 10.0203 48.2997 10.0179L47.3592 9.98362C47.3212 9.98132 47.2832 9.98796 47.2482 10.003C47.2133 10.018 47.1823 10.0411 47.1578 10.0702L46.5537 10.7932C46.521 10.8325 46.4767 10.8605 46.4271 10.873C46.3776 10.8856 46.3253 10.8821 46.2779 10.8631C46.2304 10.844 46.1902 10.8105 46.1631 10.7672C46.1359 10.7238 46.1232 10.673 46.1267 10.622L46.1609 9.68153C46.1643 9.64342 46.1581 9.60508 46.143 9.56994C46.1279 9.5348 46.1043 9.50395 46.0743 9.48014L45.3513 8.87596C45.3188 8.84197 45.2968 8.7992 45.2882 8.75292C45.2796 8.70664 45.2848 8.65886 45.3029 8.61544C45.3211 8.57202 45.3516 8.53485 45.3906 8.50851C45.4296 8.48216 45.4754 8.46778 45.5225 8.46713L46.465 8.50137C46.5031 8.50451 46.5414 8.49825 46.5765 8.48316C46.6116 8.46806 46.6425 8.44457 46.6664 8.41477L47.2706 7.69176C47.3027 7.65647 47.3446 7.63155 47.3909 7.62019C47.4372 7.60882 47.4858 7.61153 47.5306 7.62797C47.5753 7.6444 47.6142 7.67381 47.6421 7.71244C47.6701 7.75107 47.6859 7.79717 47.6875 7.84482Z" fill="#F8931F"/>
<path d="M36.5522 52.2328L37.1362 52.9739C37.1588 53.0029 37.1879 53.0262 37.2211 53.0419C37.2544 53.0577 37.2908 53.0654 37.3276 53.0645H38.2701C38.3203 53.0644 38.3693 53.0798 38.4104 53.1088C38.4514 53.1378 38.4824 53.1789 38.499 53.2263C38.5156 53.2737 38.517 53.3251 38.5031 53.3733C38.4891 53.4216 38.4605 53.4643 38.4211 53.4955L37.682 54.0796C37.6531 54.1024 37.6298 54.1315 37.6137 54.1646C37.5977 54.1977 37.5894 54.2341 37.5894 54.2709V55.2114C37.5907 55.2619 37.576 55.3115 37.5474 55.3531C37.5189 55.3948 37.4779 55.4263 37.4303 55.4433C37.3828 55.4603 37.3311 55.4618 37.2826 55.4476C37.2341 55.4335 37.1913 55.4044 37.1604 55.3645L36.5764 54.6233C36.5524 54.5933 36.5216 54.5694 36.4866 54.5537C36.4516 54.5379 36.4133 54.5307 36.375 54.5327H35.4324C35.3822 54.5329 35.3332 54.5174 35.2921 54.4884C35.2511 54.4594 35.2202 54.4184 35.2035 54.371C35.1869 54.3236 35.1855 54.2722 35.1995 54.2239C35.2134 54.1756 35.242 54.1329 35.2814 54.1017L36.0205 53.5197C36.0505 53.4956 36.0745 53.4649 36.0906 53.4299C36.1067 53.395 36.1144 53.3568 36.1131 53.3183L36.1031 52.3778C36.0979 52.323 36.1115 52.2681 36.1418 52.2221C36.172 52.1762 36.2171 52.1419 36.2694 52.125C36.3218 52.1081 36.3783 52.1095 36.4298 52.1291C36.4812 52.1487 36.5244 52.1853 36.5522 52.2328Z" fill="#F8931F"/>
<path d="M3.04253 33.9921L2.41217 34.6929C2.38793 34.72 2.37009 34.7521 2.35998 34.787C2.34987 34.8218 2.34775 34.8585 2.35376 34.8943L2.52293 35.8228C2.53251 35.8729 2.52596 35.9248 2.50424 35.971C2.48252 36.0171 2.44674 36.0553 2.40202 36.0799C2.3573 36.1045 2.30594 36.1143 2.2553 36.1079C2.20467 36.1015 2.15736 36.0792 2.12015 36.0443L1.41728 35.416C1.39016 35.3919 1.35794 35.3744 1.32306 35.3646C1.28818 35.3549 1.25154 35.3531 1.21589 35.3596L0.289475 35.5287C0.23918 35.5389 0.186961 35.5328 0.140377 35.5113C0.0937925 35.4897 0.0552618 35.454 0.0303632 35.4091C0.00546456 35.3642 -0.00450982 35.3126 0.00188417 35.2617C0.00827817 35.2108 0.0307087 35.1633 0.0659282 35.1259L0.696291 34.4251C0.719927 34.3977 0.737237 34.3655 0.746984 34.3307C0.756731 34.2959 0.758677 34.2594 0.752681 34.2237L0.585524 33.2973C0.575375 33.247 0.581497 33.1948 0.603003 33.1482C0.624509 33.1016 0.660283 33.0631 0.705145 33.0382C0.750008 33.0133 0.80163 33.0033 0.852539 33.0097C0.903448 33.0161 0.951 33.0385 0.988312 33.0737L1.69118 33.7041C1.7182 33.7283 1.75034 33.7462 1.78521 33.7563C1.82007 33.7664 1.85677 33.7685 1.89257 33.7625L2.81898 33.5933C2.86852 33.5843 2.91964 33.591 2.96519 33.6124C3.01075 33.6339 3.04848 33.669 3.0731 33.7129C3.09772 33.7568 3.10801 33.8074 3.10253 33.8574C3.09705 33.9075 3.07607 33.9545 3.04253 33.9921Z" fill="#F8931F"/>
<path d="M25.6549 28.3617C25.6166 27.9681 25.6958 27.5719 25.8826 27.2233C26.0694 26.8747 26.3553 26.5893 26.7043 26.4032C27.0533 26.2171 27.4496 26.1387 27.8432 26.1778C28.2367 26.2169 28.6099 26.3718 28.9154 26.623C29.2209 26.8742 29.445 27.2103 29.5595 27.5888C29.674 27.9674 29.6737 28.3714 29.5586 28.7498C29.4435 29.1282 29.2188 29.4639 28.9129 29.7146C28.607 29.9653 28.2337 30.1196 27.8401 30.1581C27.5786 30.184 27.3145 30.158 27.0631 30.0817C26.8117 30.0053 26.5778 29.8801 26.3748 29.7133C26.1718 29.5464 26.0038 29.3411 25.8802 29.1092C25.7567 28.8773 25.6801 28.6233 25.6549 28.3617Z" fill="#4A2559"/>
<path d="M38.9953 14.2827C41.8674 13.4602 43.5289 10.4651 42.7064 7.59304C41.884 4.72094 38.8889 3.05939 36.0168 3.88187C33.1447 4.70434 31.4832 7.69939 32.3056 10.5715C33.1281 13.4436 36.1232 15.1052 38.9953 14.2827Z" fill="#4A2559"/>
<path d="M50.7588 15.2491C50.3822 15.2189 49.8566 15.229 49.8566 15.229C50.3428 15.062 50.8188 14.867 51.2825 14.6449C51.6973 14.4153 51.4295 14.0569 51.0609 14.1173C50.6924 14.1777 49.7035 14.4294 49.7035 14.4294C49.7035 14.4294 50.9482 13.65 51.2744 13.352C51.6007 13.0539 51.3449 12.5464 50.8193 12.8062L49.1114 13.6722C49.5778 13.3096 50.0198 12.9167 50.4346 12.4961C50.8616 12.0248 50.3601 11.6744 49.9835 11.9181C49.6069 12.1617 48.318 13.2231 48.318 13.2231C48.8396 12.5041 48.5193 12.0308 48.2394 12.1335C47.9595 12.2363 47.5104 13.5232 46.8498 13.8273L41.0799 14.9531C39.9964 15.1545 38.9431 15.5713 37.8394 15.66C36.2484 15.7909 34.5507 15.4243 33.3483 14.3247C32.287 13.354 31.7211 11.9865 31.27 10.6513C30.7544 9.12674 30.1764 7.63038 29.6226 6.11187C29.401 5.51172 29.1802 4.90754 28.96 4.29933C28.8552 3.58035 29.691 2.50491 29.6185 2.20886C29.546 1.91281 28.9801 1.9108 28.6639 2.74054C28.6639 2.74054 28.8492 1.08106 28.8472 0.631947C28.8452 0.182839 28.2793 -0.0467502 28.1161 0.571529C27.994 1.14944 27.9099 1.73474 27.8644 2.32366C27.8644 2.32366 27.7174 0.994456 27.663 0.420483C27.6086 -0.153489 27.0306 -0.0991127 26.9601 0.337912C26.9128 0.971127 26.8974 1.60632 26.9138 2.24108C26.9138 2.24108 26.5815 1.27439 26.4345 0.936052C26.2875 0.59771 25.8303 0.563473 25.8706 1.03675C25.9383 1.5467 26.0351 2.05235 26.1606 2.55123C26.1606 2.55123 25.8827 2.10414 25.6511 1.80406C25.4195 1.50398 25.1375 1.62683 25.2161 1.9692C25.2946 2.31157 25.7256 3.82605 25.925 5.07067L27.4233 21.297C27.5033 21.9985 27.7547 22.6696 28.1554 23.2509C28.5561 23.8323 29.0938 24.3061 29.7209 24.6305C30.3481 24.9549 31.0454 25.12 31.7514 25.1111C32.4575 25.1023 33.1505 24.9198 33.7693 24.5797L47.7802 16.8361C47.8099 16.8284 47.8388 16.8183 47.8668 16.8059C49.0188 16.2923 50.5232 15.8251 50.8515 15.7043C51.1798 15.5834 51.1616 15.2813 50.7588 15.2491Z" fill="#4A2559"/>
<path d="M51.9319 36.4167C54.3028 34.7745 54.8934 31.5212 53.2512 29.1503C51.6089 26.7794 48.3556 26.1888 45.9847 27.8311C43.6139 29.4734 43.0232 32.7267 44.6655 35.0975C46.3078 37.4684 49.5611 38.059 51.9319 36.4167Z" fill="#F8C91F"/>
<path d="M46.9183 46.0829C46.8417 45.7265 46.6846 45.2431 46.6846 45.2431C46.975 45.6463 47.2876 46.0329 47.6211 46.4011C47.9494 46.7213 48.2072 46.3729 48.0481 46.0487C47.889 45.7244 47.3835 44.8806 47.3835 44.8806C47.3835 44.8806 48.4489 45.8151 48.8154 46.0346C49.1819 46.2541 49.5847 45.8755 49.194 45.4646L47.9212 44.1153C48.3841 44.4496 48.8685 44.753 49.3712 45.0236C49.9251 45.2894 50.1124 44.7275 49.774 44.4476C49.4357 44.1677 48.1045 43.2674 48.1045 43.2674C48.91 43.5514 49.2645 43.1305 49.0913 42.8949C48.9181 42.6592 47.603 42.6028 47.1398 42.0752C46.259 40.4009 45.3796 38.7226 44.5015 37.0403C44.0061 36.0958 43.3375 35.2278 42.9488 34.239C42.3889 32.805 42.258 31.1314 42.9488 29.7156C43.553 28.465 44.6606 27.5627 45.7683 26.7753C47.0331 25.8771 48.2656 24.9265 49.5102 23.9961L50.9965 22.8844C51.6329 22.5863 52.8574 23.0616 53.1111 22.9146C53.3649 22.7676 53.2118 22.2419 52.3559 22.1775C52.3559 22.1775 53.9429 21.8895 54.3577 21.7646C54.7726 21.6398 54.827 21.0497 54.2127 21.0718C53.6439 21.1179 53.0787 21.202 52.521 21.3236L54.2228 20.6026C54.7464 20.3831 54.5289 19.8735 54.106 19.9279C53.5068 20.0599 52.9147 20.2219 52.3317 20.4133C52.3317 20.4133 53.1373 19.8373 53.4072 19.6077C53.677 19.3781 53.5844 18.9532 53.1574 19.1163C52.7043 19.3197 52.2632 19.549 51.8363 19.803C51.8363 19.803 52.1726 19.4224 52.3861 19.1243C52.5996 18.8263 52.4083 18.6007 52.1142 18.7679C51.8202 18.935 50.5373 19.7527 49.4417 20.2803L34.8487 26.1751C34.2228 26.4453 33.673 26.8653 33.2477 27.3981C32.8225 27.931 32.5349 28.5603 32.4103 29.2306C32.2857 29.9008 32.328 30.5914 32.5334 31.2415C32.7388 31.8915 33.1009 32.4811 33.588 32.9581L44.6264 43.775C44.6425 43.7971 44.6586 43.8213 44.6788 43.8454C45.4722 44.7698 46.3201 46.0306 46.5235 46.3024C46.7269 46.5743 47.0008 46.4636 46.9183 46.0829Z" fill="#F8C91F"/>
<path d="M34.5341 52.2001C36.2741 49.9308 35.8451 46.6806 33.5757 44.9405C31.3064 43.2005 28.0562 43.6295 26.3162 45.8989C24.5761 48.1682 25.0052 51.4184 27.2745 53.1584C29.5438 54.8985 32.794 54.4694 34.5341 52.2001Z" fill="#F8931F"/>
<path d="M16.6126 51.2477C16.9268 51.0685 17.3377 50.7785 17.3377 50.7785C17.0422 51.1722 16.7692 51.5824 16.52 52.007C16.3186 52.4098 16.7214 52.5508 16.9792 52.3051C17.237 52.0594 17.8895 51.3323 17.8895 51.3323C17.6382 51.8859 17.415 52.4519 17.2209 53.0281C17.1202 53.4308 17.5995 53.7088 17.8714 53.2174L18.7655 51.6062C18.5854 52.1458 18.4414 52.6969 18.3346 53.2556C18.248 53.8598 18.834 53.8699 19.0012 53.4731C19.1683 53.0764 19.6235 51.5458 19.6235 51.5458C19.5953 52.3957 20.0968 52.6031 20.27 52.3675C20.4432 52.1319 20.1048 50.8752 20.4713 50.279L24.4469 46.2975C25.194 45.5503 25.8103 44.6622 26.638 43.9996C27.8303 43.045 29.375 42.4267 30.9156 42.6543C32.2791 42.8557 33.4592 43.6371 34.5407 44.4547C35.7652 45.3872 37.03 46.2673 38.2786 47.1735L39.7689 48.251C40.2402 48.7666 40.1516 50.0635 40.3731 50.2649C40.5946 50.4663 41.0397 50.1602 40.8464 49.3325C40.8464 49.3325 41.5895 50.7422 41.8312 51.1027C42.0729 51.4632 42.6368 51.3363 42.4354 50.7604C42.2218 50.2359 41.9742 49.726 41.6942 49.2338C41.6942 49.2338 42.524 50.2106 42.8804 50.6435C43.2369 51.0765 43.6619 50.7161 43.4846 50.3314C43.1825 49.8036 42.8538 49.2914 42.4998 48.7968C42.4998 48.7968 43.2832 49.3848 43.5813 49.5762C43.8794 49.7675 44.2539 49.55 43.972 49.1935C43.6455 48.8252 43.2986 48.4756 42.9328 48.1463C42.9328 48.1463 43.392 48.3477 43.7384 48.4665C44.0848 48.5853 44.2399 48.3336 43.9942 48.104C43.7484 47.8744 42.5965 46.8956 41.7788 46.0216L31.8984 33.95C31.458 33.4377 30.8984 33.0416 30.2689 32.7965C29.6394 32.5513 28.9593 32.4647 28.2884 32.5443C27.6175 32.6239 26.9765 32.8672 26.4218 33.2528C25.8671 33.6384 25.4158 34.1545 25.1074 34.7556L18.1392 48.402C18.1211 48.4242 18.105 48.4463 18.0868 48.4725C17.4484 49.4956 16.5059 50.6717 16.3106 50.9456C16.1152 51.2195 16.2763 51.437 16.6126 51.2477Z" fill="#F8931F"/>
<path d="M13.7161 34.9119C13.2066 34.0242 12.4454 33.3075 11.5286 32.8523C10.6118 32.3972 9.5806 32.2241 8.56545 32.355C7.55029 32.4858 6.59672 32.9147 5.8253 33.5874C5.05387 34.2602 4.49923 35.1465 4.23148 36.1344C3.96374 37.1223 3.99493 38.1675 4.32109 39.1377C4.64726 40.1078 5.25376 40.9596 6.06392 41.5851C6.87408 42.2106 7.85153 42.5819 8.87268 42.652C9.89383 42.7221 10.9128 42.4878 11.8009 41.9788C12.3908 41.6407 12.9083 41.1897 13.3239 40.6515C13.7394 40.1133 14.0448 39.4985 14.2227 38.8422C14.4006 38.1859 14.4474 37.5011 14.3604 36.8267C14.2735 36.1523 14.0546 35.5017 13.7161 34.9119Z" fill="#F94E54"/>
<path d="M2.07177 25.4694C2.35372 25.697 2.77463 25.9709 2.77463 25.9709C2.30014 25.8417 1.81871 25.7395 1.33265 25.6648C0.879518 25.6245 0.899657 26.0535 1.2239 26.2025C1.54815 26.3515 2.46449 26.6858 2.46449 26.6858C1.8607 26.655 1.25573 26.655 0.651943 26.6858C0.233044 26.7463 0.158528 27.29 0.716389 27.3605L2.52893 27.5982C1.96456 27.6281 1.40279 27.6954 0.847295 27.7996C0.253183 27.9425 0.460619 28.4903 0.891602 28.4984C1.32258 28.5064 2.90554 28.3635 2.90554 28.3635C2.09996 28.6514 2.09996 29.1952 2.3799 29.2677C2.65984 29.3402 3.70709 28.5628 4.39384 28.6776L9.56362 30.893C10.5343 31.3098 11.5776 31.5555 12.51 32.0792C13.8372 32.8344 14.9831 34.0387 15.3416 35.5552C15.6578 36.8965 15.3678 38.2821 15.0073 39.5831C14.6045 41.0654 14.24 42.5678 13.8634 44.0601C13.7143 44.6643 13.5633 45.2503 13.4143 45.8444C13.1102 46.4708 11.8696 46.8715 11.7669 47.1434C11.6642 47.4153 12.1113 47.7255 12.8081 47.2381C12.8081 47.2381 11.7689 48.4464 11.5272 48.8069C11.2855 49.1674 11.6118 49.6508 12.073 49.25C12.4813 48.8579 12.8634 48.4394 13.2169 47.9973C13.2169 47.9973 12.6127 49.1292 12.3549 49.6085C12.0972 50.0878 12.5765 50.3617 12.8685 50.0536C13.2469 49.5776 13.6011 49.0829 13.9298 48.5713C13.9298 48.5713 13.6721 49.5179 13.6056 49.8643C13.5391 50.2107 13.8775 50.4805 14.1071 50.0878C14.3275 49.6479 14.5231 49.1961 14.6931 48.7344C14.6931 48.7344 14.673 49.2359 14.6931 49.5984C14.7133 49.9609 15.0033 50.0153 15.1261 49.7031C15.249 49.391 15.7303 47.9591 16.2378 46.8675L23.7961 33.2231C24.109 32.6242 24.2697 31.9575 24.2641 31.2819C24.2585 30.6062 24.0867 29.9423 23.7639 29.3487C23.4412 28.7551 22.9773 28.25 22.4132 27.878C21.8492 27.506 21.2023 27.2785 20.5295 27.2155L5.27393 25.7896L5.18935 25.7675C4.00112 25.554 2.55914 25.113 2.2349 25.0304C1.91065 24.9478 1.76968 25.2278 2.07177 25.4694Z" fill="#F94E54"/>
<path d="M14.207 18.824C16.8669 17.9654 18.3272 15.113 17.4686 12.453C16.6099 9.79303 13.7575 8.33276 11.0976 9.19139C8.43759 10.05 6.97731 12.9024 7.83595 15.5624C8.69459 18.2224 11.547 19.6827 14.207 18.824Z" fill="#92278F"/>
<path d="M21.6389 3.70666C21.5141 4.03694 21.3872 4.51223 21.3872 4.51223C21.3625 4.03172 21.3107 3.55299 21.2321 3.07831C21.1334 2.64733 20.7407 2.79434 20.7004 3.14276C20.6602 3.49117 20.6279 4.44175 20.6279 4.44175C20.6279 4.44175 20.2513 3.12262 20.0681 2.75004C19.8848 2.37746 19.3571 2.47614 19.4639 3.01789C19.5706 3.55964 19.7962 4.77807 19.7962 4.77807C19.595 4.26309 19.3602 3.76188 19.0933 3.27769C18.7791 2.77018 18.3341 3.13067 18.4549 3.53145C18.5757 3.93222 19.196 5.36816 19.196 5.36816C18.6845 4.71161 18.179 4.87071 18.1891 5.15468C18.1991 5.43864 19.2484 6.17172 19.3511 6.84639L18.8637 12.3223C18.7711 13.3534 18.8637 14.4047 18.6623 15.4197C18.3663 16.8818 17.5949 18.3137 16.296 19.1093C15.146 19.8101 13.7705 19.9632 12.4513 20.0216C10.9489 20.09 9.44655 20.223 7.94415 20.3237L6.15174 20.4485C5.47707 20.3559 4.72789 19.3268 4.44392 19.3127C4.15996 19.2986 4.00891 19.8101 4.67351 20.3196C4.67351 20.3196 3.2275 19.7155 2.82472 19.6067C2.42193 19.4979 2.06748 19.943 2.58103 20.2471C3.06882 20.508 3.57341 20.736 4.09148 20.9299L2.32526 20.6237C1.78351 20.5291 1.69288 21.0567 2.06748 21.2279C2.62341 21.4336 3.18938 21.611 3.76321 21.7596C3.76321 21.7596 2.80659 21.8079 2.46422 21.8522C2.12185 21.8965 1.97483 22.2913 2.40985 22.3839C2.88556 22.4559 3.36498 22.501 3.84578 22.5189C3.84578 22.5189 3.37251 22.6518 3.04021 22.7827C2.70791 22.9136 2.74617 23.1855 3.07444 23.2157C3.40272 23.2459 4.87491 23.2398 6.04702 23.3848L21.0207 26.2547C21.6719 26.3624 22.3397 26.3083 22.9652 26.0973C23.5906 25.8863 24.1547 25.5247 24.6076 25.0445C25.0606 24.5643 25.3885 23.9802 25.5627 23.3434C25.7369 22.7067 25.7519 22.0369 25.6064 21.3931L22.2914 6.78798C22.2933 6.75915 22.2933 6.73022 22.2914 6.70138C22.1283 5.53531 22.1001 4.06111 22.076 3.73485C22.0518 3.40859 21.7719 3.3522 21.6389 3.70666Z" fill="#92278F"/>
</svg>
