<svg width="224" height="57" viewBox="0 0 224 57" fill="none" xmlns="http://www.w3.org/2000/svg">
<path d="M66.85 21.7C66.6167 21.3333 66.4 20.8333 66.2 20.2C66 19.5667 65.9 18.9 65.9 18.2C65.9 16.9 66.1833 15.9667 66.75 15.4C67.35 14.8333 68.1167 14.55 69.05 14.55H90.85C91.0833 14.9167 91.3 15.4167 91.5 16.05C91.7 16.6833 91.8 17.35 91.8 18.05C91.8 19.35 91.5 20.2833 90.9 20.85C90.3333 21.4167 89.5833 21.7 88.65 21.7H83.1V44.8C82.7333 44.9 82.15 45 81.35 45.1C80.5833 45.2 79.8167 45.25 79.05 45.25C78.2833 45.25 77.6 45.1833 77 45.05C76.4333 44.95 75.95 44.75 75.55 44.45C75.15 44.15 74.85 43.7333 74.65 43.2C74.45 42.6667 74.35 41.9667 74.35 41.1V21.7H66.85ZM117.555 32.85C117.555 34.9167 117.238 36.7667 116.605 38.4C115.971 40 115.071 41.35 113.905 42.45C112.771 43.55 111.405 44.3833 109.805 44.95C108.205 45.5167 106.421 45.8 104.455 45.8C102.488 45.8 100.705 45.5 99.1047 44.9C97.5047 44.3 96.1214 43.45 94.9547 42.35C93.8214 41.2167 92.938 39.85 92.3047 38.25C91.6714 36.65 91.3547 34.85 91.3547 32.85C91.3547 30.8833 91.6714 29.1 92.3047 27.5C92.938 25.9 93.8214 24.55 94.9547 23.45C96.1214 22.3167 97.5047 21.45 99.1047 20.85C100.705 20.25 102.488 19.95 104.455 19.95C106.421 19.95 108.205 20.2667 109.805 20.9C111.405 21.5 112.771 22.3667 113.905 23.5C115.071 24.6 115.971 25.95 116.605 27.55C117.238 29.15 117.555 30.9167 117.555 32.85ZM100.055 32.85C100.055 34.8833 100.438 36.45 101.205 37.55C102.005 38.6167 103.105 39.15 104.505 39.15C105.905 39.15 106.971 38.6 107.705 37.5C108.471 36.4 108.855 34.85 108.855 32.85C108.855 30.85 108.471 29.3167 107.705 28.25C106.938 27.15 105.855 26.6 104.455 26.6C103.055 26.6 101.971 27.15 101.205 28.25C100.438 29.3167 100.055 30.85 100.055 32.85ZM120.652 32.85C120.652 30.65 120.985 28.75 121.652 27.15C122.318 25.5167 123.235 24.1667 124.402 23.1C125.602 22.0333 126.985 21.25 128.552 20.75C130.152 20.2167 131.868 19.95 133.702 19.95C134.368 19.95 135.018 20.0167 135.652 20.15C136.285 20.25 136.802 20.3833 137.202 20.55V12.45C137.535 12.35 138.068 12.25 138.802 12.15C139.535 12.0167 140.285 11.95 141.052 11.95C141.785 11.95 142.435 12 143.002 12.1C143.602 12.2 144.102 12.4 144.502 12.7C144.902 13 145.202 13.4167 145.402 13.95C145.602 14.45 145.702 15.1167 145.702 15.95V39.65C145.702 41.2167 144.968 42.4667 143.502 43.4C142.535 44.0333 141.285 44.5833 139.752 45.05C138.218 45.55 136.452 45.8 134.452 45.8C132.285 45.8 130.335 45.5 128.602 44.9C126.902 44.3 125.452 43.4333 124.252 42.3C123.085 41.1667 122.185 39.8167 121.552 38.25C120.952 36.65 120.652 34.85 120.652 32.85ZM134.852 26.6C133.052 26.6 131.668 27.1167 130.702 28.15C129.735 29.1833 129.252 30.75 129.252 32.85C129.252 34.9167 129.702 36.4833 130.602 37.55C131.502 38.5833 132.802 39.1 134.502 39.1C135.102 39.1 135.635 39.0167 136.102 38.85C136.602 38.65 136.985 38.4333 137.252 38.2V27.2C136.585 26.8 135.785 26.6 134.852 26.6ZM149.948 32.85C149.948 30.65 150.282 28.75 150.948 27.15C151.615 25.5167 152.532 24.1667 153.698 23.1C154.898 22.0333 156.282 21.25 157.848 20.75C159.448 20.2167 161.165 19.95 162.998 19.95C163.665 19.95 164.315 20.0167 164.948 20.15C165.582 20.25 166.098 20.3833 166.498 20.55V12.45C166.832 12.35 167.365 12.25 168.098 12.15C168.832 12.0167 169.582 11.95 170.348 11.95C171.082 11.95 171.732 12 172.298 12.1C172.898 12.2 173.398 12.4 173.798 12.7C174.198 13 174.498 13.4167 174.698 13.95C174.898 14.45 174.998 15.1167 174.998 15.95V39.65C174.998 41.2167 174.265 42.4667 172.798 43.4C171.832 44.0333 170.582 44.5833 169.048 45.05C167.515 45.55 165.748 45.8 163.748 45.8C161.582 45.8 159.632 45.5 157.898 44.9C156.198 44.3 154.748 43.4333 153.548 42.3C152.382 41.1667 151.482 39.8167 150.848 38.25C150.248 36.65 149.948 34.85 149.948 32.85ZM164.148 26.6C162.348 26.6 160.965 27.1167 159.998 28.15C159.032 29.1833 158.548 30.75 158.548 32.85C158.548 34.9167 158.998 36.4833 159.898 37.55C160.798 38.5833 162.098 39.1 163.798 39.1C164.398 39.1 164.932 39.0167 165.398 38.85C165.898 38.65 166.282 38.4333 166.548 38.2V27.2C165.882 26.8 165.082 26.6 164.148 26.6ZM188.945 44.95C188.579 45.0167 188.029 45.1 187.295 45.2C186.595 45.3333 185.879 45.4 185.145 45.4C184.412 45.4 183.745 45.35 183.145 45.25C182.579 45.15 182.095 44.95 181.695 44.65C181.295 44.35 180.979 43.95 180.745 43.45C180.545 42.9167 180.445 42.2333 180.445 41.4V12.4C180.812 12.3333 181.345 12.25 182.045 12.15C182.779 12.0167 183.512 11.95 184.245 11.95C184.979 11.95 185.629 12 186.195 12.1C186.795 12.2 187.295 12.4 187.695 12.7C188.095 13 188.395 13.4167 188.595 13.95C188.829 14.45 188.945 15.1167 188.945 15.95V44.95ZM198.109 38.8C197.742 37.9667 197.342 37.0333 196.909 36C196.509 34.9667 196.076 33.7833 195.609 32.45C195.176 31.1167 194.709 29.6 194.209 27.9C193.742 26.1667 193.242 24.1833 192.709 21.95C193.176 21.4833 193.792 21.0833 194.559 20.75C195.359 20.3833 196.226 20.2 197.159 20.2C198.326 20.2 199.292 20.45 200.059 20.95C200.826 21.4167 201.392 22.3167 201.759 23.65L205.709 37.4H205.909C206.309 36.2667 206.692 35.0333 207.059 33.7C207.459 32.3667 207.842 31 208.209 29.6C208.576 28.1667 208.909 26.75 209.209 25.35C209.542 23.9167 209.826 22.5167 210.059 21.15C211.259 20.5167 212.576 20.2 214.009 20.2C215.176 20.2 216.142 20.45 216.909 20.95C217.676 21.45 218.059 22.3167 218.059 23.55C218.059 24.45 217.942 25.5 217.709 26.7C217.476 27.8667 217.159 29.1167 216.759 30.45C216.392 31.7833 215.942 33.1667 215.409 34.6C214.909 36 214.376 37.3833 213.809 38.75C213.242 40.1167 212.659 41.4167 212.059 42.65C211.459 43.85 210.876 44.9333 210.309 45.9C209.376 47.5333 208.509 48.8667 207.709 49.9C206.909 50.9333 206.142 51.7333 205.409 52.3C204.676 52.9 203.942 53.3 203.209 53.5C202.476 53.7333 201.709 53.85 200.909 53.85C199.509 53.85 198.376 53.4333 197.509 52.6C196.642 51.7667 196.126 50.6833 195.959 49.35C197.026 48.5167 198.092 47.5833 199.159 46.55C200.226 45.55 201.192 44.5167 202.059 43.45C201.492 43.2833 200.876 42.9 200.209 42.3C199.576 41.6667 198.876 40.5 198.109 38.8Z" fill="white"/>
<path d="M16.3789 4.71831L16.0547 5.44736C16.0409 5.47521 16.0337 5.50588 16.0337 5.53698C16.0337 5.56808 16.0409 5.59875 16.0547 5.6266L16.4373 6.33349C16.4611 6.37096 16.4717 6.41521 16.4677 6.45937C16.4637 6.50353 16.4452 6.54514 16.4152 6.57773C16.3851 6.61032 16.3451 6.63207 16.3014 6.63962C16.2577 6.64717 16.2128 6.64009 16.1735 6.61947L15.4384 6.29523C15.4103 6.28106 15.3793 6.27368 15.3478 6.27368C15.3163 6.27368 15.2853 6.28106 15.2572 6.29523L14.5523 6.67788C14.5148 6.70158 14.4706 6.71226 14.4264 6.70825C14.3823 6.70425 14.3407 6.68577 14.3081 6.65571C14.2755 6.62564 14.2537 6.58566 14.2462 6.54197C14.2386 6.49827 14.2457 6.45331 14.2663 6.41405L14.5906 5.67896C14.6044 5.65111 14.6116 5.62044 14.6116 5.58934C14.6116 5.55825 14.6044 5.52757 14.5906 5.49972L14.2099 4.79283C14.1868 4.75552 14.1765 4.71167 14.1806 4.66796C14.1846 4.62425 14.2029 4.58307 14.2325 4.55069C14.2622 4.51831 14.3016 4.4965 14.3448 4.48859C14.388 4.48068 14.4325 4.48709 14.4717 4.50685L15.2068 4.84318C15.2349 4.85734 15.266 4.86472 15.2975 4.86472C15.3289 4.86472 15.36 4.85734 15.3881 4.84318L16.095 4.46053C16.1319 4.43922 16.1747 4.43019 16.2171 4.43475C16.2595 4.4393 16.2994 4.4572 16.331 4.48587C16.3625 4.51454 16.3842 4.5525 16.3928 4.59427C16.4015 4.63605 16.3966 4.67948 16.3789 4.71831Z" fill="white"/>
<path d="M45.8948 4.9105L45.8706 5.57107C45.8702 5.59681 45.8756 5.62231 45.8864 5.64567C45.8972 5.66903 45.9131 5.68965 45.933 5.706L46.4405 6.13094C46.4673 6.15365 46.4863 6.18412 46.495 6.21812C46.5037 6.25212 46.5015 6.28798 46.4889 6.32072C46.4763 6.35347 46.4538 6.38148 46.4246 6.40088C46.3954 6.42028 46.3608 6.43011 46.3257 6.42901L45.6652 6.40484C45.6391 6.40427 45.6133 6.40959 45.5896 6.4204C45.5659 6.43121 45.5449 6.44723 45.5282 6.46727L45.1053 6.97479C45.0828 7.00236 45.0522 7.02214 45.0178 7.03131C44.9834 7.04048 44.947 7.03857 44.9138 7.02586C44.8805 7.01314 44.8521 6.99027 44.8327 6.96049C44.8132 6.93071 44.8036 6.89554 44.8052 6.85999L44.8294 6.19942C44.8303 6.17351 44.8254 6.14772 44.8149 6.12399C44.8045 6.10027 44.7888 6.07923 44.769 6.06247L44.2615 5.64961C44.2339 5.62712 44.2141 5.5965 44.2049 5.56211C44.1958 5.52772 44.1977 5.49132 44.2104 5.45808C44.2231 5.42484 44.246 5.39646 44.2758 5.37697C44.3055 5.35748 44.3407 5.34788 44.3763 5.34954L45.0368 5.3737C45.0627 5.37466 45.0885 5.36972 45.1123 5.35926C45.136 5.34879 45.157 5.33307 45.1738 5.31329L45.5967 4.80577C45.6189 4.77968 45.6484 4.76092 45.6814 4.75198C45.7145 4.74303 45.7494 4.74431 45.7817 4.75566C45.814 4.767 45.8421 4.78788 45.8623 4.81552C45.8825 4.84317 45.8938 4.87628 45.8948 4.9105Z" fill="white"/>
<path d="M38.3861 50.1231L38.7889 50.6407C38.8042 50.6614 38.8243 50.6781 38.8475 50.6893C38.8706 50.7005 38.8961 50.706 38.9219 50.7052H39.5844C39.6197 50.7044 39.6543 50.7149 39.6832 50.735C39.7122 50.7551 39.7341 50.7839 39.7457 50.8172C39.7573 50.8505 39.7581 50.8866 39.7479 50.9204C39.7378 50.9542 39.7172 50.9839 39.6892 51.0052L39.1716 51.408C39.1511 51.424 39.1346 51.4445 39.1234 51.4679C39.1122 51.4913 39.1067 51.517 39.1071 51.543V52.2035C39.1076 52.2389 39.0969 52.2735 39.0767 52.3025C39.0565 52.3314 39.0277 52.3534 38.9943 52.3651C38.961 52.3769 38.9248 52.378 38.8909 52.3681C38.8569 52.3583 38.8269 52.338 38.805 52.3103L38.4023 51.7907C38.3864 51.7706 38.3662 51.7543 38.3432 51.7432C38.3202 51.732 38.2949 51.7262 38.2693 51.7262H37.6067C37.5716 51.7262 37.5373 51.7153 37.5086 51.6949C37.4799 51.6745 37.4584 51.6457 37.4468 51.6125C37.4353 51.5792 37.4344 51.5432 37.4443 51.5095C37.4542 51.4757 37.4744 51.4459 37.502 51.4241L38.0196 51.0213C38.0399 51.0052 38.0562 50.9847 38.0673 50.9613C38.0785 50.9379 38.0842 50.9123 38.0841 50.8864V50.2258C38.0844 50.1908 38.0957 50.1568 38.1162 50.1285C38.1368 50.1001 38.1656 50.0789 38.1988 50.0676C38.2319 50.0563 38.2677 50.0556 38.3013 50.0656C38.3348 50.0755 38.3645 50.0956 38.3861 50.1231Z" fill="white"/>
<path d="M53.8891 24.5375L54.1872 25.1296C54.1988 25.1525 54.2156 25.1724 54.2362 25.1878C54.2568 25.2032 54.2807 25.2136 54.306 25.2182L54.9545 25.3451C54.9895 25.3515 55.0216 25.3688 55.0462 25.3945C55.0708 25.4202 55.0867 25.453 55.0917 25.4882C55.0966 25.5234 55.0902 25.5593 55.0736 25.5908C55.0569 25.6222 55.0307 25.6476 54.9988 25.6633L54.4087 25.9594C54.3855 25.9709 54.3653 25.9876 54.3496 26.0082C54.3339 26.0288 54.3231 26.0528 54.3181 26.0782L54.1912 26.7287C54.1845 26.7636 54.167 26.7954 54.1412 26.8198C54.1154 26.8442 54.0826 26.8598 54.0474 26.8645C54.0122 26.8692 53.9764 26.8627 53.9451 26.8459C53.9138 26.8291 53.8886 26.8029 53.873 26.771L53.579 26.191C53.5671 26.168 53.5503 26.148 53.5297 26.1323C53.5092 26.1167 53.4854 26.1057 53.4602 26.1003L52.8117 25.9735C52.7773 25.9666 52.7459 25.9492 52.7219 25.9236C52.6978 25.8981 52.6823 25.8658 52.6774 25.8311C52.6726 25.7964 52.6786 25.761 52.6947 25.7298C52.7108 25.6987 52.7362 25.6733 52.7674 25.6573L53.3574 25.3592C53.3807 25.3478 53.401 25.3311 53.4168 25.3105C53.4325 25.2899 53.4432 25.2659 53.4481 25.2404L53.579 24.5798C53.5874 24.5473 53.6053 24.5181 53.6304 24.4958C53.6555 24.4735 53.6866 24.4592 53.7199 24.4547C53.7531 24.4501 53.787 24.4556 53.8171 24.4704C53.8472 24.4851 53.8723 24.5085 53.8891 24.5375Z" fill="white"/>
<path d="M3.66938 31.1003L3.23034 31.5917C3.21345 31.611 3.20106 31.6339 3.1941 31.6586C3.18713 31.6834 3.18575 31.7093 3.19007 31.7347L3.30889 32.3852C3.31559 32.42 3.31114 32.4561 3.29619 32.4883C3.28123 32.5205 3.25651 32.5472 3.22554 32.5646C3.19457 32.582 3.15892 32.5892 3.12364 32.5852C3.08835 32.5812 3.05523 32.5661 3.02895 32.5422L2.53755 32.0992C2.51835 32.082 2.49549 32.0695 2.47071 32.0625C2.44593 32.0555 2.41989 32.0543 2.39456 32.0589L1.74406 32.1777C1.70918 32.1844 1.67309 32.18 1.64088 32.165C1.60867 32.1501 1.58199 32.1253 1.56461 32.0944C1.54723 32.0634 1.54004 32.0278 1.54405 31.9925C1.54807 31.9572 1.56308 31.9241 1.58697 31.8978L2.03004 31.4064C2.0467 31.3869 2.05893 31.364 2.06588 31.3393C2.07284 31.3146 2.07435 31.2887 2.07032 31.2634L1.94747 30.623C1.94077 30.5881 1.94521 30.552 1.96017 30.5198C1.97513 30.4876 1.99984 30.4609 2.03081 30.4435C2.06178 30.4261 2.09743 30.4189 2.13272 30.423C2.168 30.427 2.20113 30.442 2.2274 30.4659L2.7188 30.9069C2.73782 30.9244 2.7606 30.9373 2.78539 30.9447C2.81018 30.952 2.83631 30.9536 2.86179 30.9492L3.5123 30.8244C3.54644 30.8187 3.58149 30.8236 3.61274 30.8385C3.64399 30.8534 3.66992 30.8775 3.68705 30.9075C3.70417 30.9376 3.71166 30.9722 3.7085 31.0067C3.70534 31.0411 3.69169 31.0738 3.66938 31.1003Z" fill="white"/>
<path d="M47.6885 7.84482L47.6542 8.78734C47.6521 8.82533 47.6588 8.86329 47.6738 8.89824C47.6889 8.93318 47.7118 8.96417 47.7408 8.98874L48.4638 9.59292C48.5029 9.62483 48.5309 9.66825 48.5438 9.71698C48.5567 9.76572 48.554 9.81729 48.5359 9.86437C48.5178 9.91144 48.4854 9.95162 48.4432 9.97917C48.4009 10.0067 48.3511 10.0203 48.3007 10.0179L47.3602 9.98362C47.3222 9.98132 47.2842 9.98796 47.2492 10.003C47.2142 10.018 47.1833 10.0411 47.1588 10.0702L46.5546 10.7932C46.522 10.8325 46.4777 10.8605 46.4281 10.873C46.3785 10.8856 46.3263 10.8821 46.2788 10.8631C46.2314 10.844 46.1912 10.8105 46.164 10.7672C46.1369 10.7238 46.1241 10.673 46.1277 10.622L46.1619 9.68153C46.1652 9.64342 46.1591 9.60508 46.144 9.56994C46.1288 9.5348 46.1053 9.50395 46.0753 9.48014L45.3523 8.87596C45.3197 8.84197 45.2978 8.7992 45.2892 8.75292C45.2806 8.70664 45.2857 8.65886 45.3039 8.61544C45.3221 8.57202 45.3526 8.53485 45.3916 8.50851C45.4306 8.48216 45.4764 8.46778 45.5235 8.46713L46.466 8.50137C46.5041 8.50451 46.5424 8.49825 46.5775 8.48316C46.6126 8.46806 46.6435 8.44457 46.6674 8.41477L47.2716 7.69176C47.3037 7.65647 47.3455 7.63155 47.3918 7.62019C47.4381 7.60882 47.4868 7.61153 47.5316 7.62797C47.5763 7.6444 47.6152 7.67381 47.6431 7.71244C47.6711 7.75107 47.6869 7.79717 47.6885 7.84482Z" fill="white"/>
<path d="M36.5537 52.2328L37.1377 52.9739C37.1603 53.0029 37.1894 53.0262 37.2226 53.0419C37.2558 53.0577 37.2923 53.0654 37.329 53.0645H38.2715C38.3218 53.0644 38.3708 53.0798 38.4118 53.1088C38.4529 53.1378 38.4838 53.1789 38.5004 53.2263C38.5171 53.2737 38.5185 53.3251 38.5045 53.3733C38.4906 53.4216 38.4619 53.4643 38.4226 53.4955L37.6835 54.0796C37.6546 54.1024 37.6312 54.1315 37.6152 54.1646C37.5991 54.1977 37.5908 54.2341 37.5908 54.2709V55.2114C37.5921 55.2619 37.5775 55.3115 37.5489 55.3531C37.5203 55.3948 37.4794 55.4263 37.4318 55.4433C37.3842 55.4603 37.3325 55.4618 37.284 55.4476C37.2356 55.4335 37.1928 55.4044 37.1619 55.3645L36.5778 54.6233C36.5539 54.5933 36.5231 54.5694 36.4881 54.5537C36.4531 54.5379 36.4148 54.5307 36.3764 54.5327H35.4339C35.3837 54.5329 35.3346 54.5174 35.2936 54.4884C35.2526 54.4594 35.2216 54.4184 35.205 54.371C35.1884 54.3236 35.187 54.2722 35.2009 54.2239C35.2149 54.1756 35.2435 54.1329 35.2829 54.1017L36.022 53.5197C36.052 53.4956 36.076 53.4649 36.0921 53.4299C36.1082 53.395 36.1159 53.3568 36.1146 53.3183L36.1045 52.3778C36.0993 52.323 36.113 52.2681 36.1432 52.2221C36.1735 52.1762 36.2185 52.1419 36.2709 52.125C36.3232 52.1081 36.3798 52.1095 36.4312 52.1291C36.4826 52.1487 36.5258 52.1853 36.5537 52.2328Z" fill="white"/>
<path d="M3.04253 33.9921L2.41217 34.6929C2.38793 34.72 2.37009 34.7521 2.35998 34.787C2.34987 34.8218 2.34775 34.8585 2.35376 34.8943L2.52293 35.8228C2.53251 35.8729 2.52596 35.9248 2.50424 35.971C2.48252 36.0171 2.44674 36.0553 2.40202 36.0799C2.3573 36.1045 2.30594 36.1143 2.2553 36.1079C2.20467 36.1015 2.15736 36.0792 2.12015 36.0443L1.41728 35.416C1.39016 35.3919 1.35794 35.3744 1.32306 35.3646C1.28818 35.3549 1.25154 35.3531 1.21589 35.3596L0.289475 35.5287C0.23918 35.5389 0.186961 35.5328 0.140377 35.5113C0.0937925 35.4897 0.0552618 35.454 0.0303632 35.4091C0.00546456 35.3642 -0.00450982 35.3126 0.00188417 35.2617C0.00827816 35.2108 0.0307087 35.1633 0.0659282 35.1259L0.696291 34.4251C0.719927 34.3977 0.737237 34.3655 0.746984 34.3307C0.756731 34.2959 0.758677 34.2594 0.752681 34.2237L0.585524 33.2973C0.575376 33.247 0.581497 33.1948 0.603003 33.1482C0.624509 33.1016 0.660283 33.0631 0.705145 33.0382C0.750008 33.0133 0.80163 33.0033 0.852539 33.0097C0.903448 33.0161 0.951 33.0385 0.988312 33.0737L1.69118 33.7041C1.7182 33.7283 1.75034 33.7462 1.78521 33.7563C1.82007 33.7664 1.85677 33.7685 1.89257 33.7625L2.81898 33.5933C2.86852 33.5843 2.91964 33.591 2.96519 33.6124C3.01075 33.6339 3.04848 33.669 3.0731 33.7129C3.09772 33.7568 3.10801 33.8074 3.10253 33.8574C3.09705 33.9075 3.07607 33.9545 3.04253 33.9921Z" fill="white"/>
<path d="M25.654 28.3617C25.6156 27.9681 25.6948 27.5719 25.8816 27.2233C26.0684 26.8747 26.3544 26.5893 26.7033 26.4032C27.0523 26.2171 27.4486 26.1387 27.8422 26.1778C28.2358 26.2169 28.6089 26.3718 28.9144 26.623C29.2199 26.8742 29.4441 27.2103 29.5586 27.5888C29.6731 27.9674 29.6728 28.3714 29.5577 28.7498C29.4426 29.1282 29.2179 29.4639 28.912 29.7146C28.6061 29.9653 28.2327 30.1196 27.8391 30.1582C27.5776 30.184 27.3136 30.158 27.0621 30.0817C26.8107 30.0053 26.5768 29.8801 26.3738 29.7133C26.1709 29.5464 26.0028 29.3411 25.8793 29.1092C25.7557 28.8773 25.6792 28.6233 25.654 28.3617Z" fill="white"/>
<path d="M38.9953 14.2827C41.8674 13.4602 43.5289 10.4651 42.7064 7.59304C41.884 4.72094 38.8889 3.05939 36.0168 3.88187C33.1447 4.70434 31.4832 7.69939 32.3056 10.5715C33.1281 13.4436 36.1232 15.1052 38.9953 14.2827Z" fill="white"/>
<path d="M50.7593 15.2491C50.3827 15.2189 49.8571 15.229 49.8571 15.229C50.3432 15.062 50.8193 14.867 51.283 14.6449C51.6978 14.4153 51.43 14.0569 51.0614 14.1173C50.6929 14.1777 49.704 14.4294 49.704 14.4294C49.704 14.4294 50.9486 13.65 51.2749 13.352C51.6012 13.0539 51.3454 12.5464 50.8198 12.8062L49.1119 13.6722C49.5783 13.3096 50.0203 12.9167 50.4351 12.4961C50.862 12.0248 50.3606 11.6744 49.984 11.9181C49.6074 12.1617 48.3184 13.2231 48.3184 13.2231C48.84 12.5041 48.5198 12.0308 48.2399 12.1335C47.96 12.2363 47.5108 13.5232 46.8503 13.8273L41.0803 14.9531C39.9968 15.1545 38.9436 15.5713 37.8399 15.66C36.2489 15.7909 34.5512 15.4243 33.3488 14.3247C32.2875 13.354 31.7216 11.9865 31.2704 10.6513C30.7549 9.12674 30.1769 7.63038 29.623 6.11187C29.4015 5.51172 29.1806 4.90754 28.9605 4.29933C28.8557 3.58035 29.6915 2.50491 29.619 2.20886C29.5465 1.91281 28.9806 1.9108 28.6644 2.74054C28.6644 2.74054 28.8497 1.08106 28.8477 0.631947C28.8457 0.182839 28.2797 -0.0467502 28.1166 0.571529C27.9945 1.14944 27.9104 1.73474 27.8649 2.32366C27.8649 2.32366 27.7179 0.994456 27.6635 0.420483C27.6091 -0.153489 27.0311 -0.0991127 26.9606 0.337912C26.9133 0.971127 26.8979 1.60632 26.9143 2.24108C26.9143 2.24108 26.582 1.27439 26.435 0.936052C26.288 0.59771 25.8308 0.563473 25.8711 1.03675C25.9388 1.5467 26.0356 2.05235 26.1611 2.55123C26.1611 2.55123 25.8832 2.10414 25.6516 1.80406C25.42 1.50398 25.138 1.62683 25.2165 1.9692C25.2951 2.31157 25.7261 3.82605 25.9255 5.07067L27.4238 21.297C27.5038 21.9985 27.7552 22.6696 28.1559 23.2509C28.5566 23.8323 29.0943 24.3061 29.7214 24.6305C30.3486 24.9549 31.0459 25.12 31.7519 25.1111C32.458 25.1023 33.1509 24.9198 33.7697 24.5797L47.7807 16.8361C47.8104 16.8284 47.8393 16.8183 47.8673 16.8059C49.0193 16.2923 50.5237 15.8251 50.852 15.7043C51.1802 15.5834 51.1621 15.2813 50.7593 15.2491Z" fill="white"/>
<path d="M51.9315 36.4167C54.3023 34.7745 54.893 31.5212 53.2507 29.1503C51.6084 26.7794 48.3551 26.1888 45.9842 27.8311C43.6134 29.4734 43.0227 32.7267 44.665 35.0975C46.3073 37.4684 49.5606 38.059 51.9315 36.4167Z" fill="white"/>
<path d="M46.9178 46.0829C46.8412 45.7265 46.6842 45.2431 46.6842 45.2431C46.9745 45.6463 47.2871 46.0329 47.6206 46.4011C47.9489 46.7213 48.2067 46.3729 48.0476 46.0487C47.8885 45.7244 47.383 44.8806 47.383 44.8806C47.383 44.8806 48.4484 45.8151 48.8149 46.0346C49.1814 46.2541 49.5842 45.8755 49.1935 45.4646L47.9207 44.1153C48.3836 44.4496 48.868 44.753 49.3707 45.0236C49.9246 45.2894 50.1119 44.7275 49.7735 44.4476C49.4352 44.1677 48.104 43.2674 48.104 43.2674C48.9096 43.5514 49.264 43.1305 49.0908 42.8949C48.9176 42.6592 47.6025 42.6028 47.1393 42.0752C46.2585 40.4009 45.3791 38.7226 44.501 37.0403C44.0056 36.0958 43.337 35.2278 42.9483 34.239C42.3884 32.805 42.2575 31.1314 42.9483 29.7156C43.5525 28.465 44.6601 27.5627 45.7678 26.7753C47.0326 25.8771 48.2651 24.9265 49.5097 23.9961L50.996 22.8844C51.6324 22.5863 52.8569 23.0616 53.1106 22.9146C53.3644 22.7676 53.2113 22.2419 52.3554 22.1775C52.3554 22.1775 53.9424 21.8895 54.3573 21.7646C54.7721 21.6398 54.8265 21.0497 54.2123 21.0718C53.6434 21.1179 53.0782 21.202 52.5205 21.3236L54.2223 20.6026C54.746 20.3831 54.5284 19.8735 54.1055 19.9279C53.5063 20.0599 52.9142 20.2219 52.3312 20.4133C52.3312 20.4133 53.1368 19.8373 53.4067 19.6077C53.6765 19.3781 53.5839 18.9532 53.157 19.1163C52.7038 19.3197 52.2627 19.549 51.8358 19.803C51.8358 19.803 52.1721 19.4224 52.3856 19.1243C52.5991 18.8263 52.4078 18.6007 52.1137 18.7679C51.8197 18.935 50.5368 19.7527 49.4412 20.2803L34.8482 26.1751C34.2223 26.4453 33.6725 26.8653 33.2472 27.3981C32.822 27.931 32.5344 28.5603 32.4098 29.2306C32.2852 29.9008 32.3275 30.5914 32.5329 31.2415C32.7383 31.8915 33.1005 32.4811 33.5875 32.9581L44.6259 43.7749C44.642 43.7971 44.6581 43.8213 44.6783 43.8454C45.4718 44.7698 46.3196 46.0306 46.523 46.3024C46.7264 46.5743 47.0003 46.4636 46.9178 46.0829Z" fill="white"/>
<path d="M34.5326 52.2001C36.2726 49.9308 35.8436 46.6806 33.5743 44.9405C31.305 43.2005 28.0547 43.6295 26.3147 45.8989C24.5746 48.1682 25.0037 51.4184 27.273 53.1584C29.5423 54.8985 32.7926 54.4694 34.5326 52.2001Z" fill="white"/>
<path d="M16.6131 51.2477C16.9273 51.0685 17.3381 50.7785 17.3381 50.7785C17.0426 51.1722 16.7696 51.5824 16.5205 52.007C16.3191 52.4098 16.7219 52.5508 16.9797 52.3051C17.2375 52.0594 17.89 51.3323 17.89 51.3323C17.6386 51.8859 17.4155 52.4519 17.2213 53.0281C17.1206 53.4308 17.6 53.7088 17.8718 53.2174L18.766 51.6062C18.5859 52.1458 18.4419 52.6969 18.335 53.2556C18.2484 53.8598 18.8345 53.8699 19.0017 53.4731C19.1688 53.0764 19.624 51.5458 19.624 51.5458C19.5958 52.3957 20.0972 52.6031 20.2704 52.3675C20.4436 52.1319 20.1053 50.8752 20.4718 50.279L24.4474 46.2975C25.1945 45.5503 25.8108 44.6622 26.6385 43.9996C27.8308 43.045 29.3755 42.4267 30.9161 42.6543C32.2796 42.8557 33.4597 43.6371 34.5412 44.4547C35.7657 45.3872 37.0304 46.2673 38.2791 47.1735L39.7694 48.251C40.2407 48.7666 40.152 50.0635 40.3736 50.2649C40.5951 50.4663 41.0402 50.1602 40.8469 49.3325C40.8469 49.3325 41.59 50.7422 41.8317 51.1027C42.0733 51.4632 42.6372 51.3363 42.4358 50.7604C42.2223 50.2359 41.9747 49.726 41.6947 49.2338C41.6947 49.2338 42.5245 50.2106 42.8809 50.6435C43.2374 51.0765 43.6623 50.7161 43.4851 50.3314C43.1829 49.8036 42.8542 49.2914 42.5003 48.7968C42.5003 48.7968 43.2837 49.3848 43.5818 49.5762C43.8798 49.7675 44.2544 49.55 43.9725 49.1935C43.646 48.8252 43.299 48.4756 42.9333 48.1463C42.9333 48.1463 43.3925 48.3477 43.7389 48.4665C44.0853 48.5853 44.2403 48.3336 43.9946 48.104C43.7489 47.8744 42.597 46.8956 41.7793 46.0216L31.8989 33.95C31.4585 33.4377 30.8989 33.0416 30.2694 32.7965C29.6399 32.5513 28.9598 32.4647 28.2889 32.5443C27.618 32.6239 26.977 32.8672 26.4223 33.2528C25.8676 33.6384 25.4162 34.1545 25.1079 34.7556L18.1397 48.402C18.1216 48.4242 18.1055 48.4463 18.0873 48.4725C17.4489 49.4956 16.5064 50.6717 16.311 50.9456C16.1157 51.2195 16.2768 51.437 16.6131 51.2477Z" fill="white"/>
<path d="M13.7156 34.9119C13.2061 34.0242 12.4449 33.3075 11.5281 32.8523C10.6113 32.3972 9.58011 32.2241 8.56496 32.355C7.5498 32.4858 6.59623 32.9147 5.82481 33.5874C5.05338 34.2602 4.49874 35.1465 4.231 36.1344C3.96325 37.1223 3.99444 38.1675 4.3206 39.1377C4.64677 40.1078 5.25327 40.9596 6.06343 41.5851C6.8736 42.2106 7.85104 42.5819 8.87219 42.652C9.89334 42.7221 10.9123 42.4878 11.8004 41.9788C12.3903 41.6407 12.9078 41.1897 13.3234 40.6515C13.7389 40.1133 14.0443 39.4985 14.2222 38.8422C14.4001 38.1859 14.4469 37.5011 14.36 36.8267C14.273 36.1523 14.0541 35.5017 13.7156 34.9119Z" fill="white"/>
<path d="M2.0703 25.4694C2.35226 25.697 2.77317 25.9709 2.77317 25.9709C2.29867 25.8417 1.81724 25.7395 1.33119 25.6648C0.878053 25.6245 0.898192 26.0535 1.22244 26.2025C1.54668 26.3515 2.46302 26.6858 2.46302 26.6858C1.85924 26.655 1.25427 26.655 0.650478 26.6858C0.231579 26.7463 0.157063 27.29 0.714924 27.3605L2.52747 27.5982C1.96309 27.6281 1.40132 27.6954 0.84583 27.7996C0.251718 27.9425 0.459154 28.4903 0.890137 28.4984C1.32112 28.5064 2.90408 28.3635 2.90408 28.3635C2.0985 28.6514 2.0985 29.1952 2.37844 29.2677C2.65837 29.3402 3.70562 28.5628 4.39238 28.6776L9.56216 30.893C10.5329 31.3098 11.5761 31.5555 12.5085 32.0792C13.8357 32.8344 14.9817 34.0387 15.3401 35.5552C15.6563 36.8965 15.3663 38.2821 15.0058 39.5831C14.603 41.0654 14.2385 42.5678 13.8619 44.0601C13.7129 44.6643 13.5618 45.2503 13.4128 45.8444C13.1087 46.4708 11.8681 46.8715 11.7654 47.1434C11.6627 47.4153 12.1098 47.7255 12.8066 47.2381C12.8066 47.2381 11.7674 48.4464 11.5257 48.8069C11.2841 49.1674 11.6103 49.6508 12.0715 49.25C12.4798 48.8579 12.8619 48.4394 13.2154 47.9973C13.2154 47.9973 12.6113 49.1292 12.3535 49.6085C12.0957 50.0878 12.575 50.3617 12.867 50.0536C13.2454 49.5776 13.5996 49.0829 13.9284 48.5713C13.9284 48.5713 13.6706 49.5179 13.6041 49.8643C13.5377 50.2107 13.876 50.4805 14.1056 50.0878C14.326 49.6479 14.5216 49.1961 14.6917 48.7344C14.6917 48.7344 14.6715 49.2359 14.6917 49.5984C14.7118 49.9609 15.0018 50.0153 15.1247 49.7031C15.2475 49.391 15.7288 47.9591 16.2363 46.8675L23.7947 33.2231C24.1075 32.6242 24.2682 31.9575 24.2626 31.2819C24.257 30.6062 24.0852 29.9423 23.7625 29.3487C23.4397 28.7551 22.9758 28.25 22.4118 27.878C21.8477 27.506 21.2008 27.2785 20.5281 27.2155L5.27247 25.7896L5.18788 25.7675C3.99966 25.554 2.55768 25.113 2.23343 25.0304C1.90919 24.9478 1.76821 25.2278 2.0703 25.4694Z" fill="white"/>
<path d="M14.207 18.824C16.8669 17.9654 18.3272 15.113 17.4686 12.453C16.6099 9.79303 13.7575 8.33276 11.0976 9.19139C8.43759 10.05 6.97731 12.9024 7.83595 15.5624C8.69459 18.2224 11.547 19.6827 14.207 18.824Z" fill="white"/>
<path d="M21.6384 3.70666C21.5136 4.03694 21.3867 4.51223 21.3867 4.51223C21.362 4.03172 21.3102 3.55299 21.2316 3.07831C21.1329 2.64733 20.7402 2.79434 20.6999 3.14276C20.6597 3.49117 20.6274 4.44175 20.6274 4.44175C20.6274 4.44175 20.2508 3.12262 20.0676 2.75004C19.8843 2.37746 19.3567 2.47614 19.4634 3.01789C19.5701 3.55964 19.7957 4.77807 19.7957 4.77807C19.5945 4.26309 19.3597 3.76188 19.0928 3.27769C18.7786 2.77018 18.3336 3.13067 18.4544 3.53145C18.5752 3.93222 19.1955 5.36816 19.1955 5.36816C18.684 4.71161 18.1785 4.87071 18.1886 5.15468C18.1986 5.43864 19.2479 6.17172 19.3506 6.84639L18.8632 12.3223C18.7706 13.3534 18.8632 14.4047 18.6618 15.4197C18.3658 16.8818 17.5945 18.3137 16.2955 19.1093C15.1455 19.8101 13.77 19.9632 12.4509 20.0216C10.9485 20.09 9.44606 20.223 7.94366 20.3237L6.15125 20.4485C5.47659 20.3559 4.7274 19.3268 4.44343 19.3127C4.15947 19.2986 4.00842 19.8101 4.67302 20.3196C4.67302 20.3196 3.22702 19.7155 2.82423 19.6067C2.42144 19.4979 2.06699 19.943 2.58054 20.2471C3.06833 20.508 3.57293 20.736 4.091 20.9299L2.32477 20.6237C1.78302 20.5291 1.69239 21.0567 2.06699 21.2279C2.62293 21.4336 3.18889 21.611 3.76272 21.7596C3.76272 21.7596 2.8061 21.8079 2.46373 21.8522C2.12136 21.8965 1.97435 22.2913 2.40936 22.3839C2.88507 22.4559 3.36449 22.501 3.84529 22.5189C3.84529 22.5189 3.37202 22.6518 3.03972 22.7827C2.70742 22.9136 2.74568 23.1855 3.07396 23.2157C3.40223 23.2459 4.87442 23.2398 6.04653 23.3848L21.0202 26.2547C21.6714 26.3624 22.3392 26.3083 22.9647 26.0973C23.5902 25.8863 24.1542 25.5247 24.6071 25.0445C25.0601 24.5643 25.3881 23.9802 25.5622 23.3434C25.7364 22.7067 25.7514 22.0369 25.6059 21.3931L22.291 6.78798C22.2928 6.75915 22.2928 6.73022 22.291 6.70138C22.1278 5.53531 22.0996 4.06111 22.0755 3.73485C22.0513 3.40859 21.7714 3.3522 21.6384 3.70666Z" fill="white"/>
</svg>
