<svg width="56" height="57" viewBox="0 0 56 57" fill="none" xmlns="http://www.w3.org/2000/svg">
<path d="M21.2965 24.2542L22.3656 51.8047C22.4231 53.1948 23.0419 54.5098 24.0922 55.4739C25.1426 56.4381 26.5429 56.9766 27.9998 56.9766C29.4568 56.9766 30.8571 56.4381 31.9075 55.4739C32.9578 54.5098 33.5766 53.1948 33.6341 51.8047L34.7188 24.243C37.1833 22.8383 39.0969 20.7 40.1659 18.1565C41.2348 15.6129 41.4 12.8047 40.6362 10.1628C39.8723 7.52093 38.2216 5.19145 35.9374 3.53198C33.6532 1.87251 30.8618 0.974769 27.9917 0.976565C25.1216 0.978361 22.3314 1.8796 20.0495 3.54192C17.7676 5.20425 16.1201 7.53579 15.3598 10.1786C14.5996 12.8215 14.7687 15.6295 15.8411 18.1717C16.9136 20.7139 18.8301 22.8498 21.2965 24.2514V24.2542ZM31.6816 51.7375C31.6469 52.6478 31.2438 53.5097 30.5571 54.142C29.8704 54.7742 28.9537 55.1275 27.9998 55.1275C27.046 55.1275 26.1293 54.7742 25.4426 54.142C24.7559 53.5097 24.3528 52.6478 24.3181 51.7375L23.2881 25.1846C26.3225 26.3201 29.6943 26.3181 32.7272 25.179L31.6816 51.7375ZM28.0003 24.1683C25.2122 24.1645 22.5265 23.1646 20.4714 21.3653C18.4162 19.566 17.1405 17.0976 16.895 14.4455H39.1057C38.8602 17.0976 37.5844 19.566 35.5293 21.3653C33.4742 23.1646 30.7885 24.1645 28.0003 24.1683ZM28.0003 2.86459C30.7869 2.86851 33.4712 3.86735 35.5259 5.66486C37.5806 7.46237 38.8571 9.92863 39.1047 12.5791H16.896C17.1435 9.92863 18.42 7.46237 20.4747 5.66486C22.5294 3.86735 25.2137 2.86851 28.0003 2.86459Z" fill="white"/>
<path d="M24.8242 31.0934V35.7593C24.8242 36.5637 25.1588 37.3351 25.7545 37.9039C26.3501 38.4727 27.1579 38.7922 28.0002 38.7922C28.8426 38.7922 29.6504 38.4727 30.246 37.9039C30.8417 37.3351 31.1763 36.5637 31.1763 35.7593V31.0934C31.1763 30.289 30.8417 29.5176 30.246 28.9489C29.6504 28.3801 28.8426 28.0605 28.0002 28.0605C27.1579 28.0605 26.3501 28.3801 25.7545 28.9489C25.1588 29.5176 24.8242 30.289 24.8242 31.0934ZM29.2218 31.0934V35.7593C29.2218 36.0687 29.0931 36.3654 28.864 36.5842C28.6349 36.8029 28.3242 36.9258 28.0002 36.9258C27.6763 36.9258 27.3656 36.8029 27.1365 36.5842C26.9074 36.3654 26.7787 36.0687 26.7787 35.7593V31.0934C26.7787 30.784 26.9074 30.4873 27.1365 30.2686C27.3656 30.0498 27.6763 29.9269 28.0002 29.9269C28.3242 29.9269 28.6349 30.0498 28.864 30.2686C29.0931 30.4873 29.2218 30.784 29.2218 31.0934Z" fill="white"/>
<path d="M41.1817 33.3997C41.3657 33.5739 41.6147 33.6712 41.8738 33.6701C42.133 33.6691 42.381 33.5698 42.5635 33.3941C43.7845 32.227 44.4703 30.6447 44.4703 28.995C44.4703 27.3453 43.7845 25.7631 42.5635 24.596C42.4738 24.5066 42.3662 24.4351 42.2473 24.3858C42.1283 24.3365 42.0002 24.3102 41.8705 24.3087C41.7408 24.3071 41.612 24.3302 41.4918 24.3766C41.3715 24.4231 41.2621 24.4919 41.17 24.5791C41.0779 24.6663 41.0049 24.7702 40.9553 24.8846C40.9056 24.9991 40.8803 25.1218 40.8809 25.2457C40.8814 25.3696 40.9078 25.4921 40.9584 25.6061C41.0091 25.7202 41.083 25.8234 41.1759 25.9099C41.6005 26.3148 41.9374 26.7958 42.1673 27.3251C42.3971 27.8545 42.5154 28.422 42.5154 28.995C42.5154 29.5681 42.3971 30.1356 42.1673 30.6649C41.9374 31.1943 41.6005 31.6752 41.1759 32.0801C40.9934 32.2559 40.8916 32.4936 40.8927 32.7411C40.8938 32.9885 40.9977 33.2254 41.1817 33.3997Z" fill="white"/>
<path d="M45.4009 36.653C45.5841 36.828 45.8327 36.9262 46.0918 36.9262C46.3509 36.9262 46.5994 36.828 46.7827 36.653C47.8367 35.6477 48.6728 34.4538 49.2433 33.1397C49.8137 31.8255 50.1074 30.4169 50.1074 28.9943C50.1074 27.5718 49.8137 26.1632 49.2433 24.849C48.6728 23.5349 47.8367 22.341 46.7827 21.3357C46.6925 21.2465 46.5847 21.1755 46.4655 21.1265C46.3463 21.0776 46.218 21.0519 46.0883 21.0508C45.9585 21.0497 45.8298 21.0734 45.7097 21.1203C45.5896 21.1672 45.4805 21.2365 45.3888 21.3241C45.297 21.4117 45.2244 21.5159 45.1753 21.6306C45.1262 21.7453 45.1014 21.8682 45.1026 21.9921C45.1037 22.116 45.1307 22.2384 45.1819 22.3523C45.2331 22.4661 45.3075 22.5691 45.4009 22.6552C46.2734 23.4872 46.9656 24.4754 47.4379 25.5631C47.9102 26.6509 48.1533 27.8168 48.1533 28.9943C48.1533 30.1719 47.9102 31.3378 47.4379 32.4256C46.9656 33.5133 46.2734 34.5014 45.4009 35.3335C45.2177 35.5085 45.1148 35.7458 45.1148 35.9932C45.1148 36.2407 45.2177 36.478 45.4009 36.653Z" fill="white"/>
<path d="M50.2641 40.91C50.5233 40.91 50.7718 40.8116 50.955 40.6366C54.1858 37.547 56.0004 33.3594 56.0004 28.9932C56.0004 24.6271 54.1858 20.4394 50.955 17.3498C50.7707 17.1799 50.5239 17.0858 50.2677 17.0879C50.0114 17.0901 49.7663 17.1882 49.5851 17.3612C49.4039 17.5342 49.3012 17.7683 49.2989 18.013C49.2967 18.2576 49.3952 18.4934 49.5732 18.6694C52.4373 21.4091 54.0459 25.1221 54.0459 28.9932C54.0459 32.8644 52.4373 36.5774 49.5732 39.3171C49.4366 39.4476 49.3436 39.6139 49.3059 39.7948C49.2682 39.9758 49.2875 40.1634 49.3615 40.3339C49.4354 40.5044 49.5607 40.6502 49.7213 40.7527C49.882 40.8552 50.0709 40.91 50.2641 40.91Z" fill="white"/>
<path d="M14.8189 24.5908C14.6348 24.4165 14.3859 24.3193 14.1268 24.3203C13.8676 24.3214 13.6195 24.4207 13.4371 24.5963C12.2161 25.7635 11.5303 27.3457 11.5303 28.9954C11.5303 30.6451 12.2161 32.2273 13.4371 33.3944C13.5268 33.4839 13.6343 33.5553 13.7533 33.6046C13.8723 33.654 14.0004 33.6802 14.1301 33.6818C14.2598 33.6833 14.3886 33.6602 14.5088 33.6138C14.6291 33.5674 14.7385 33.4985 14.8306 33.4113C14.9227 33.3241 14.9957 33.2202 15.0453 33.1058C15.095 32.9913 15.1203 32.8686 15.1197 32.7447C15.1192 32.6209 15.0928 32.4983 15.0422 32.3843C14.9915 32.2703 14.9176 32.167 14.8247 32.0805C14.4001 31.6756 14.0632 31.1947 13.8333 30.6653C13.6035 30.1359 13.4851 29.5685 13.4851 28.9954C13.4851 28.4223 13.6035 27.8549 13.8333 27.3255C14.0632 26.7961 14.4001 26.3152 14.8247 25.9103C15.0072 25.7345 15.109 25.4968 15.1079 25.2494C15.1068 25.0019 15.0029 24.765 14.8189 24.5908Z" fill="white"/>
<path d="M10.5981 21.3357C10.4148 21.1608 10.1663 21.0625 9.9072 21.0625C9.64807 21.0625 9.39955 21.1608 9.21629 21.3357C8.16231 22.3411 7.32618 23.5349 6.75571 24.8491C6.18523 26.1632 5.8916 27.5718 5.8916 28.9944C5.8916 30.417 6.18523 31.8256 6.75571 33.1397C7.32618 34.4538 8.16231 35.6477 9.21629 36.6531C9.30644 36.7422 9.41427 36.8133 9.5335 36.8622C9.65272 36.9111 9.78096 36.9368 9.91071 36.9379C10.0405 36.939 10.1692 36.9154 10.2893 36.8685C10.4094 36.8215 10.5185 36.7523 10.6102 36.6646C10.702 36.577 10.7745 36.4728 10.8237 36.3581C10.8728 36.2434 10.8975 36.1206 10.8964 35.9967C10.8953 35.8728 10.8683 35.7503 10.8171 35.6364C10.7659 35.5226 10.6914 35.4196 10.5981 35.3335C9.72555 34.5015 9.03334 33.5133 8.56105 32.4256C8.08876 31.3379 7.84566 30.1719 7.84566 28.9944C7.84566 27.8169 8.08876 26.6509 8.56105 25.5632C9.03334 24.4754 9.72555 23.4873 10.5981 22.6553C10.7813 22.4803 10.8842 22.2429 10.8842 21.9955C10.8842 21.748 10.7813 21.5107 10.5981 21.3357Z" fill="white"/>
<path d="M5.04531 40.6366C5.22962 40.8066 5.47647 40.9007 5.7327 40.8985C5.98893 40.8964 6.23403 40.7983 6.41522 40.6252C6.59641 40.4522 6.69918 40.2182 6.70141 39.9735C6.70364 39.7288 6.60514 39.4931 6.42712 39.3171C3.56306 36.5774 1.95446 32.8644 1.95446 28.9932C1.95446 25.1221 3.56306 21.4091 6.42712 18.6694C6.60514 18.4934 6.70364 18.2576 6.70141 18.013C6.69918 17.7683 6.59641 17.5342 6.41522 17.3612C6.23403 17.1882 5.98893 17.0901 5.7327 17.0879C5.47647 17.0858 5.22962 17.1799 5.04531 17.3498C1.8146 20.4394 0 24.6271 0 28.9932C0 33.3594 1.8146 37.547 5.04531 40.6366Z" fill="white"/>
</svg>
