<svg width="56" height="57" viewBox="0 0 56 57" fill="none" xmlns="http://www.w3.org/2000/svg">
<path d="M54.8642 27.3954H53.1896C52.4976 24.5052 49.1837 22.3187 45.0315 22.0892C43.8948 19.4194 40.4467 17.5511 36.4427 17.5511C35.5537 17.5587 34.6689 17.6598 33.8073 17.8525C31.9887 16.5964 29.7375 15.9252 27.4265 15.9501C25.9495 15.9164 24.4836 16.1839 23.1433 16.7315C21.8031 17.2792 20.6246 18.0922 19.7001 19.1072C15.1733 19.0258 11.2867 21.4556 10.6456 24.5932C8.17023 24.7451 5.86334 25.7524 4.22742 27.3954H1.13582C0.986651 27.3954 0.838936 27.4212 0.701114 27.4715C0.563292 27.5217 0.438063 27.5954 0.332585 27.6883C0.227106 27.7812 0.143444 27.8915 0.0863776 28.0129C0.0293115 28.1342 -4.02563e-05 28.2643 4.1438e-08 28.3957V31.8595C0.00579837 35.8274 1.34976 39.7044 3.86138 42.9986C6.37301 46.2928 9.93911 48.8559 14.1073 50.3626V52.2123C14.1087 53.2221 14.5649 54.1902 15.3757 54.9043C16.1866 55.6183 17.286 56.0199 18.4326 56.021H37.5674C38.714 56.0199 39.8134 55.6183 40.6243 54.9043C41.4351 54.1903 41.8913 53.2222 41.8927 52.2124V50.3626C46.0609 48.8559 49.627 46.2929 52.1386 42.9986C54.6502 39.7044 55.9942 35.8274 56 31.8595V28.3957C56 28.2643 55.9707 28.1342 55.9136 28.0129C55.8566 27.8915 55.7729 27.7812 55.6674 27.6883C55.5619 27.5954 55.4367 27.5217 55.2989 27.4715C55.1611 27.4212 55.0134 27.3954 54.8642 27.3954ZM11.6435 26.5456C11.7949 26.55 11.9456 26.5274 12.0869 26.4793C12.2281 26.4312 12.3568 26.3585 12.4654 26.2656C12.574 26.1727 12.6602 26.0614 12.7188 25.9385C12.7775 25.8156 12.8074 25.6835 12.8068 25.5502C12.7394 22.9028 16.4886 20.8196 20.2372 21.1231C20.4415 21.1275 20.6434 21.0843 20.8225 20.9976C21.0015 20.911 21.1513 20.7842 21.2566 20.63C21.9421 19.7588 22.8682 19.0557 23.9477 18.5869C25.0271 18.1181 26.2244 17.8991 27.4265 17.9506C29.3732 17.9108 31.2647 18.5219 32.7202 19.661C32.8742 19.7714 33.0539 19.8507 33.2465 19.8934C34.305 19.933 35.3292 19.4608 36.4426 19.5517C39.8907 19.5586 42.6184 21.2399 43.1833 23.5126C43.2803 23.6819 43.4297 23.8236 43.6144 23.9213C43.799 24.0189 44.0112 24.0686 44.2266 24.0645C47.3422 24.0333 50.0746 25.4687 50.8351 27.3954H7.74698C8.94577 26.8321 10.2848 26.5401 11.6435 26.5456ZM39.6211 52.2124C39.6205 52.6918 39.4039 53.1515 39.0189 53.4905C38.6338 53.8294 38.1118 54.02 37.5674 54.0204H18.4326C17.8882 54.02 17.3662 53.8294 16.9811 53.4905C16.5961 53.1515 16.3795 52.6918 16.3789 52.2124V51.0569C18.4372 51.5895 20.571 51.8615 22.7163 51.8647H33.2836C35.4289 51.8615 37.5628 51.5895 39.6211 51.0568V52.2124ZM53.7284 31.8595C53.7222 36.6329 51.5662 41.2093 47.7334 44.5846C43.9006 47.96 38.704 49.8587 33.2837 49.8641H22.7163C10.1446 49.8614 1.12833 40.2208 2.27191 29.3959C2.30145 29.3997 4.74049 29.3887 4.7667 29.3999C4.78182 29.3871 52.1483 29.401 52.1726 29.396C52.196 29.4016 52.2207 29.4016 52.2442 29.396H53.7284L53.7284 31.8595Z" fill="white"/>
<path d="M18.6032 11.4464C18.4234 11.6551 18.3437 11.9176 18.3812 12.1774C18.4188 12.4373 18.5705 12.6738 18.8039 12.8362C19.0372 12.9986 19.3336 13.074 19.6294 13.046C19.9251 13.0181 20.1967 12.8892 20.3857 12.6869C21.2418 11.7362 21.6858 10.5482 21.6384 9.33556C21.5909 8.12289 21.0551 6.96466 20.1267 6.06809C19.5053 5.46876 19.175 4.67911 19.2063 3.86804C19.2376 3.05698 19.6281 2.2889 20.2941 1.7281C20.504 1.54255 20.623 1.2919 20.6253 1.03C20.6277 0.768092 20.5134 0.515807 20.3069 0.327316C20.1004 0.138825 19.8182 0.0291613 19.5209 0.0218723C19.2236 0.0145834 18.9349 0.110251 18.7168 0.288332C17.6231 1.21026 16.9827 2.4727 16.9328 3.8053C16.883 5.1379 17.4276 6.43472 18.4501 7.41804C19.0141 7.96436 19.3392 8.6695 19.3673 9.40747C19.3953 10.1454 19.1245 10.8681 18.6032 11.4464Z" fill="white"/>
<path d="M27.3304 11.4462C27.1505 11.6549 27.0708 11.9174 27.1083 12.1773C27.1458 12.4372 27.2975 12.6737 27.531 12.8362C27.7644 12.9986 28.0608 13.0739 28.3566 13.046C28.6524 13.018 28.9239 12.889 29.1129 12.6867C29.9695 11.7362 30.4138 10.5482 30.3665 9.33541C30.3191 8.12264 29.7831 6.96433 28.8544 6.06787C28.233 5.4686 27.9026 4.67898 27.9338 3.86791C27.965 3.05685 28.3554 2.28874 29.0214 1.72788C29.2313 1.54247 29.3504 1.29193 29.3529 1.03009C29.3554 0.768242 29.2412 0.515974 29.0348 0.327463C28.8284 0.138953 28.5463 0.0292368 28.2491 0.0218797C27.9519 0.0145225 27.6632 0.110111 27.4452 0.288115C26.3511 1.20985 25.7105 2.47224 25.6604 3.80487C25.6103 5.13751 26.1549 6.43443 27.1773 7.41782C27.7416 7.96404 28.0669 8.66921 28.0949 9.40724C28.1229 10.1453 27.8519 10.868 27.3304 11.4462Z" fill="white"/>
<path d="M36.0584 11.4462C35.8786 11.6549 35.7988 11.9174 35.8363 12.1773C35.8738 12.4372 36.0256 12.6737 36.259 12.8362C36.4924 12.9986 36.7888 13.0739 37.0846 13.046C37.3804 13.018 37.652 12.889 37.8409 12.6867C38.6972 11.736 39.1413 10.548 39.0938 9.33534C39.0464 8.12264 38.5104 6.96439 37.5819 6.06787C36.9605 5.4686 36.6301 4.67898 36.6613 3.86791C36.6925 3.05685 37.0829 2.28874 37.7489 1.72788C37.9589 1.54247 38.0779 1.29193 38.0804 1.03009C38.0829 0.768242 37.9687 0.515974 37.7623 0.327463C37.556 0.138953 37.2739 0.0292368 36.9766 0.0218797C36.6794 0.0145225 36.3908 0.110111 36.1727 0.288115C35.0787 1.20985 34.438 2.47224 34.3879 3.80487C34.3379 5.13751 34.8824 6.43443 35.9049 7.41782C36.4691 7.96404 36.7943 8.66917 36.8225 9.40716C36.8506 10.1452 36.5798 10.8679 36.0584 11.4462Z" fill="white"/>
</svg>
