<svg width="42" height="56" viewBox="0 0 42 56" fill="none" xmlns="http://www.w3.org/2000/svg">
<path d="M5.8772 56H35.5469C38.7865 56 41.4213 53.3643 41.4213 50.1256V22.022C41.4213 18.018 39.8925 14.2641 37.1308 11.3923V3.12853C37.1308 1.40373 35.7327 0 34.0135 0H28.7849C27.0601 0 25.6564 1.4028 25.6564 3.12853V6.64067H15.7649V3.12853C15.7649 1.40373 14.3612 0 12.6364 0H7.40787C5.68867 0 4.29053 1.4028 4.29053 3.12853V11.3913C1.5288 14.2651 0 18.0189 0 22.022V50.1256C0 53.3652 2.6348 56 5.8744 56H5.8772ZM27.5249 3.12853C27.5249 2.4332 28.0905 1.86667 28.7868 1.86667H34.0153C34.7051 1.86667 35.266 2.43227 35.266 3.12853V9.71227C35.1279 9.60773 34.9832 9.5144 34.8413 9.41547C34.7415 9.34547 34.6444 9.27453 34.5436 9.2064C34.1983 8.9768 33.8473 8.7584 33.4852 8.55867C33.3984 8.51013 33.3088 8.47 33.2211 8.42333C32.9429 8.2768 32.662 8.1368 32.3755 8.008C32.2177 7.93707 32.0581 7.86987 31.8985 7.80453C31.6717 7.7112 31.4421 7.6244 31.2107 7.54227C31.0399 7.4816 30.87 7.41813 30.6973 7.364C30.3389 7.25107 29.9777 7.14933 29.6109 7.06253C29.4448 7.02333 29.2759 6.99533 29.1079 6.96173C28.8577 6.91133 28.6076 6.86467 28.3547 6.82733C28.1895 6.80307 28.0243 6.78253 27.8581 6.76387C27.748 6.7508 27.6388 6.73213 27.5277 6.72187V3.12947L27.5249 3.12853ZM6.16 3.12853C6.16 2.4332 6.72093 1.86667 7.41067 1.86667H12.6392C13.3345 1.86667 13.9011 2.43227 13.9011 3.12853V6.72093C13.7891 6.7312 13.6789 6.7508 13.5679 6.76387C13.4344 6.77973 13.3009 6.79653 13.1684 6.8152C12.8305 6.86373 12.4955 6.92253 12.1623 6.99347C12.0736 7.01213 11.9831 7.02613 11.8953 7.04667C11.4837 7.14093 11.0787 7.25387 10.6783 7.38173C10.5737 7.41533 10.472 7.4536 10.3684 7.48907C10.0632 7.5936 9.76173 7.70747 9.464 7.8316C9.34267 7.882 9.22227 7.9324 9.1028 7.9856C8.77427 8.13213 8.45133 8.28987 8.134 8.45973C8.07613 8.49147 8.01547 8.51853 7.9576 8.55027C7.58987 8.7528 7.23333 8.974 6.8824 9.20733C6.7816 9.27453 6.68453 9.34547 6.5856 9.41453C6.44373 9.51347 6.29907 9.60773 6.16 9.71227V3.12853ZM1.86947 22.022C1.86947 18.3839 3.29467 14.9735 5.88467 12.4152C8.2824 10.0287 11.4725 8.64827 14.9408 8.5232C15.064 8.5092 15.1872 8.50733 15.3104 8.50733H26.0288C26.1781 8.50733 26.3303 8.50547 26.558 8.5288C27.4064 8.55867 28.2417 8.66693 29.0556 8.8508C31.4972 9.40147 33.7409 10.626 35.5413 12.418C38.1285 14.9735 39.5547 18.3848 39.5547 22.0229V50.1265C39.5547 52.3367 37.7571 54.1343 35.5469 54.1343H5.8772C3.66707 54.1343 1.86947 52.3367 1.86947 50.1265V22.022Z" fill="white"/>
<path d="M7.78184 51.3327H33.6473C35.2676 51.3327 36.5864 50.0139 36.5864 48.3936V35.1832C36.5864 33.5629 35.2676 32.2441 33.6473 32.2441H7.78184C6.16157 32.2441 4.84277 33.5629 4.84277 35.1832V48.3936C4.84277 50.0139 6.16157 51.3327 7.78184 51.3327ZM6.70944 35.1832C6.70944 34.5924 7.19104 34.1108 7.78184 34.1108H33.6473C34.239 34.1108 34.7197 34.5924 34.7197 35.1832V48.3936C34.7197 48.9844 34.2381 49.466 33.6473 49.466H7.78184C7.19011 49.466 6.70944 48.9844 6.70944 48.3936V35.1832Z" fill="white"/>
<path d="M9.2722 39.4096H10.1458V40.7042C10.1458 41.2194 10.563 41.6375 11.0791 41.6375C11.5953 41.6375 12.0125 41.2194 12.0125 40.7042V39.4096H32.1538C32.6699 39.4096 33.0871 38.9915 33.0871 38.4763C33.0871 37.9611 32.6699 37.543 32.1538 37.543H9.2722C8.75607 37.543 8.33887 37.9611 8.33887 38.4763C8.33887 38.9915 8.75607 39.4096 9.2722 39.4096Z" fill="white"/>
<path d="M20.0522 28.1167C20.2342 28.2987 20.4731 28.3902 20.712 28.3902C20.951 28.3902 21.1899 28.2987 21.3719 28.1167L27.1408 22.3478C27.3163 22.1723 27.4143 21.9352 27.4143 21.6879C27.4143 21.4406 27.3163 21.2026 27.1408 21.028L21.3719 15.26C21.007 14.8951 20.4171 14.8951 20.0522 15.26L14.2832 21.028C14.1078 21.2035 14.0098 21.4406 14.0098 21.6879C14.0098 21.9352 14.1078 22.1732 14.2832 22.3478L20.0522 28.1167ZM20.712 17.2396L25.1612 21.6879L20.712 26.1371L16.2628 21.6879L20.712 17.2396Z" fill="white"/>
</svg>
