<svg width="56" height="56" viewBox="0 0 56 56" fill="none" xmlns="http://www.w3.org/2000/svg">
<path d="M26.4047 32.939H3.38616C2.78088 32.939 2.29004 32.4474 2.29004 31.8409V12.0765C2.29004 11.4702 2.78088 10.9785 3.38616 10.9785H26.4047C27.01 10.9785 27.5008 11.4702 27.5008 12.0765V31.8409C27.5008 32.4474 27.0101 32.939 26.4047 32.939ZM4.48228 30.7429H25.3086V13.1746H4.48228V30.7429Z" fill="white"/>
<path d="M28.5966 13.1763H1.09614C0.630289 13.1763 0.215298 12.8813 0.0615121 12.4408C-0.0922737 12.0003 0.0486875 11.5106 0.412928 11.2197L14.1632 0.239479C14.5629 -0.0798262 15.13 -0.0798262 15.5297 0.239479L29.2799 11.2197C29.6442 11.5106 29.7851 12.0003 29.6313 12.4408C29.4774 12.8813 29.0625 13.1763 28.5966 13.1763ZM4.22962 10.9802H25.4632L14.8465 2.50217L4.22962 10.9802Z" fill="white"/>
<path d="M9.96254 55.9991H5.57805C4.97278 55.9991 4.48193 55.5076 4.48193 54.9011V36.2347C4.48193 35.6284 4.97278 35.1367 5.57805 35.1367H9.96254C10.5678 35.1367 11.0587 35.6284 11.0587 36.2347V54.9011C11.0587 55.5076 10.5679 55.9991 9.96254 55.9991ZM6.67418 53.8031H8.86642V37.3328H6.67418V53.8031Z" fill="white"/>
<path d="M24.2111 55.9991H19.8266C19.2213 55.9991 18.7305 55.5076 18.7305 54.9011V36.2347C18.7305 35.6284 19.2213 35.1367 19.8266 35.1367H24.2111C24.8164 35.1367 25.3072 35.6284 25.3072 36.2347V54.9011C25.3072 55.5076 24.8165 55.9991 24.2111 55.9991ZM20.9227 53.8031H23.115V37.3328H20.9227V53.8031Z" fill="white"/>
<path d="M27.2814 37.3323H2.2899C1.0196 37.3323 0.0976562 36.3164 0.0976562 34.9166V33.1598C0.0976562 31.76 1.0196 30.7441 2.2899 30.7441H27.2814C28.6112 30.7441 29.6929 31.8278 29.6929 33.1598V34.9166C29.6929 36.2486 28.6112 37.3323 27.2814 37.3323ZM2.32059 35.1362H27.2816C27.4004 35.1362 27.5008 35.0357 27.5008 34.9166V33.1598C27.5008 33.0408 27.4004 32.9402 27.2816 32.9402H2.32059C2.30601 32.9828 2.29001 33.0557 2.29001 33.1598V34.9166C2.2899 35.0207 2.30601 35.0937 2.32059 35.1362Z" fill="white"/>
<path d="M19.8274 41.7253H9.96233C9.35705 41.7253 8.86621 41.2338 8.86621 40.6273C8.86621 40.021 9.35705 39.5293 9.96233 39.5293H19.8274C20.4327 39.5293 20.9235 40.021 20.9235 40.6273C20.9235 41.2338 20.4328 41.7253 19.8274 41.7253Z" fill="white"/>
<path d="M19.8274 46.1179H9.96233C9.35705 46.1179 8.86621 45.6263 8.86621 45.0199C8.86621 44.4136 9.35705 43.9219 9.96233 43.9219H19.8274C20.4327 43.9219 20.9235 44.4136 20.9235 45.0199C20.9235 45.6263 20.4328 46.1179 19.8274 46.1179Z" fill="white"/>
<path d="M19.8274 50.5085H9.96233C9.35705 50.5085 8.86621 50.017 8.86621 49.4105C8.86621 48.8042 9.35705 48.3125 9.96233 48.3125H19.8274C20.4327 48.3125 20.9235 48.8042 20.9235 49.4105C20.9235 50.017 20.4328 50.5085 19.8274 50.5085Z" fill="white"/>
<path d="M19.8274 32.9391H9.96233C9.35705 32.9391 8.86621 32.4475 8.86621 31.8411V22.5079C8.86621 19.1779 11.5707 16.4688 14.8949 16.4688C18.2191 16.4688 20.9235 19.1779 20.9235 22.5079V31.8411C20.9235 32.4475 20.4328 32.9391 19.8274 32.9391ZM11.0585 30.743H18.7313V22.5079C18.7313 20.3888 17.0104 18.6648 14.895 18.6648C12.7795 18.6648 11.0585 20.3888 11.0585 22.5079V30.743Z" fill="white"/>
<path d="M54.904 56.0005H46.737C45.3638 56.0005 44.0874 55.2585 43.4061 54.064C43.3852 54.0271 43.8996 55.0051 32.3194 32.942H26.4047C25.7994 32.942 25.3086 32.4504 25.3086 31.844V26.3539C25.3086 25.7474 25.7994 25.2559 26.4047 25.2559H34.5718C35.945 25.2559 37.2213 25.9979 37.9027 27.1923C37.9236 27.2292 37.4092 26.2511 48.9893 48.3143H54.904C55.5092 48.3143 56.0001 48.806 56.0001 49.4124V54.9025C56.0001 55.5089 55.5094 56.0005 54.904 56.0005ZM45.3181 52.9892C45.612 53.4925 46.1542 53.8044 46.737 53.8044H53.8078V50.5104H48.3272C47.92 50.5104 47.5465 50.2843 47.357 49.9233L35.9911 28.2674C35.697 27.764 35.1548 27.4519 34.5719 27.4519H27.5009V30.746H32.9815C33.3886 30.746 33.7623 30.9721 33.9518 31.3331L45.3181 52.9892Z" fill="white"/>
</svg>
