<svg width="96" height="95" viewBox="0 0 96 95" fill="none" xmlns="http://www.w3.org/2000/svg">
<path fill-rule="evenodd" clip-rule="evenodd" d="M29.1004 89.7251C48.6409 96.8971 49.7095 94.6838 67.3419 88.8485C77.9488 85.3273 86.7594 77.8 91.8935 67.8731C92.2599 67.1142 98.3961 54.4034 93.6882 41.058C88.6488 26.461 84.9352 12.348 69.9478 5.11269C57.237 -1.02357 46.3709 -0.966876 34.3819 4.16194C24.266 8.47957 12.2835 16.3407 7.1852 26.9014C2.97225 35.6283 -0.010838 44.7149 1.27573 53.6794C3.39965 68.6625 13.8841 84.0947 29.1004 89.7251Z" fill="white" fill-opacity="0.3"/>
<path fill-rule="evenodd" clip-rule="evenodd" d="M49.4999 89.849C68.2126 88.0099 68.2126 85.7904 80.2648 74.1221C87.5105 67.0941 91.7218 57.5134 91.9999 47.4245C91.9999 46.6635 91.9999 33.9172 82.929 24.9123C73.0969 15.0196 64.5335 5.00003 49.4999 5.00003C36.7499 5.00003 27.9327 9.31223 20.1939 18.1903C13.6603 25.6732 6.99987 36.7708 6.99987 47.3611C6.99987 56.1123 8.14166 64.6733 12.7088 71.4587C20.3208 82.8099 34.9103 91.2441 49.4999 89.849Z" fill="white"/>
<path d="M65.9724 36.6869C65.6155 33.1982 65.0471 30.4818 64.1477 29.4141C60.4396 25.0241 34.4649 24.7028 31.5158 29.4141C30.7943 30.5684 30.2884 33.2751 29.9488 36.6927C28.8533 36.8216 28.0001 37.744 28.0001 38.8733V43.1469C28.0001 44.0973 28.6022 44.8985 29.4429 45.2111C29.2438 51.9424 29.4054 58.9651 29.7036 62.4577C29.7036 65.1539 31.5148 64.7066 31.5148 64.7066H33.2125V67.6173C33.2125 68.7716 34.4024 69.7056 35.8683 69.7056C37.3361 69.7056 38.526 68.7716 38.526 67.6173V64.7066H58.2773V67.6173C58.2773 68.7716 59.4662 69.7056 60.9341 69.7056C62.4 69.7056 63.5898 68.7716 63.5898 67.6173V64.7066H64.1477C64.1477 64.7066 66.2792 64.9991 66.4158 63.7294C66.4158 60.2464 66.6351 52.5272 66.4543 45.241C67.3479 44.9611 68.0001 44.1377 68.0001 43.1469V38.8733C68.001 37.7171 67.1065 36.7793 65.9724 36.6869ZM37.8594 30.0403H57.8041V33.0577H37.8594V30.0403ZM38.1441 61.2698C36.5782 61.2698 35.3094 60.0001 35.3094 58.4342C35.3094 56.8692 36.5782 55.6005 38.1441 55.6005C39.7101 55.6005 40.9797 56.8692 40.9797 58.4342C40.9797 60.0001 39.711 61.2698 38.1441 61.2698ZM57.6973 61.2698C56.1323 61.2698 54.8607 60.0001 54.8607 58.4342C54.8607 56.8692 56.1314 55.6005 57.6973 55.6005C59.2633 55.6005 60.532 56.8692 60.532 58.4342C60.5329 60.0001 59.2633 61.2698 57.6973 61.2698ZM61.3015 48.8615H34.362V34.7314H61.3015V48.8615Z" fill="#D18109"/>
</svg>
