<svg width="96" height="95" viewBox="0 0 96 95" fill="none" xmlns="http://www.w3.org/2000/svg">
<path fill-rule="evenodd" clip-rule="evenodd" d="M29.1004 89.7251C48.6409 96.8971 49.7095 94.6838 67.3419 88.8485C77.9488 85.3273 86.7594 77.8 91.8935 67.8731C92.2599 67.1142 98.3961 54.4034 93.6882 41.058C88.6488 26.461 84.9352 12.348 69.9478 5.11269C57.237 -1.02357 46.3709 -0.966876 34.3819 4.16194C24.266 8.47957 12.2835 16.3407 7.1852 26.9014C2.97225 35.6283 -0.010838 44.7149 1.27573 53.6794C3.39965 68.6625 13.8841 84.0947 29.1004 89.7251Z" fill="white" fill-opacity="0.3"/>
<path fill-rule="evenodd" clip-rule="evenodd" d="M49.4999 89.849C68.2126 88.0099 68.2126 85.7904 80.2648 74.1221C87.5105 67.0941 91.7218 57.5134 91.9999 47.4245C91.9999 46.6635 91.9999 33.9172 82.929 24.9123C73.0969 15.0196 64.5335 5.00003 49.4999 5.00003C36.7499 5.00003 27.9327 9.31223 20.1939 18.1903C13.6603 25.6732 6.99987 36.7708 6.99987 47.3611C6.99987 56.1123 8.14166 64.6733 12.7088 71.4587C20.3208 82.8099 34.9103 91.2441 49.4999 89.849Z" fill="white"/>
<path d="M45.9655 35.8112L45.5893 38.002L47.5583 36.9669C47.7833 36.8488 48.0309 36.7893 48.2784 36.7893C48.5259 36.7893 48.7727 36.8488 48.9985 36.9669L50.9675 38.002L50.5913 35.8104C50.5054 35.3089 50.6709 34.797 51.0358 34.441L52.6286 32.8883L50.4282 32.5693C49.9235 32.4961 49.4879 32.1795 49.2629 31.723L48.2607 29.6913L47.2947 31.7222C47.0697 32.1787 46.6341 32.4953 46.1302 32.5693L43.929 32.8883L45.5218 34.441C45.8867 34.797 46.0514 35.3089 45.9655 35.8112Z" fill="#24B73F"/>
<path d="M33.0254 49.2035C33.0519 49.435 33.0945 49.664 33.1572 49.8818C33.1701 49.9268 33.1781 49.9726 33.1837 50.0192C33.1982 50.0514 33.2054 50.0602 33.2159 50.094C33.2504 50.2121 33.293 50.3254 33.3397 50.4315C33.4144 50.6075 33.4875 50.7626 33.5743 50.9049C33.6362 51.0134 33.6852 51.1018 33.7415 51.1829C33.9006 51.4152 34.0846 51.637 34.2735 51.8243C34.3699 51.9215 34.464 52.0099 34.5644 52.0919C34.5733 52.0991 34.5942 52.1168 34.6143 52.1345C34.6978 52.2004 34.7814 52.2671 34.865 52.3209C34.9888 52.4101 35.078 52.4656 35.172 52.5154C35.2709 52.5725 35.3464 52.6135 35.4219 52.648C35.4372 52.6545 35.4509 52.6617 35.4653 52.6689C35.4878 52.6778 35.5112 52.6874 35.532 52.6987C35.6317 52.7485 35.737 52.7935 35.8431 52.8272C36.0142 52.8931 36.1316 52.9277 36.2545 52.9574C36.3888 52.9912 36.5165 53.0161 36.6435 53.0354C36.6741 53.0394 36.7038 53.0458 36.7327 53.0539C36.8645 53.0748 37.0044 53.0699 37.1434 53.0933H37.1514C37.2205 53.1021 37.2824 53.1005 37.3556 53.1005H45.3954C45.4027 53.1005 45.4099 53.1029 45.4171 53.1029H51.1368C51.144 53.1029 51.1513 53.1005 51.1585 53.1005H59.1992C59.2683 53.1005 59.331 53.1029 59.4017 53.0933C59.4057 53.0933 59.4097 53.0941 59.4137 53.0933C59.552 53.0708 59.6918 53.0764 59.8252 53.0531C59.8541 53.045 59.8847 53.0386 59.912 53.0346C60.0398 53.0161 60.1676 52.9904 60.2962 52.9582C60.4247 52.9269 60.5429 52.8923 60.6594 52.8457C60.8193 52.7927 60.9254 52.7469 61.0259 52.697C61.0468 52.6866 61.0693 52.677 61.0918 52.6681C61.1054 52.6609 61.1183 52.6545 61.132 52.6488C61.2075 52.6143 61.2839 52.5725 61.3538 52.5315C61.4759 52.4664 61.5659 52.4109 61.6495 52.3491L61.7323 52.2912C61.7982 52.2446 61.8657 52.1988 61.9252 52.1481C61.9332 52.1417 61.9421 52.1345 61.9493 52.1281C61.9638 52.1144 61.9782 52.1015 61.9927 52.0903C62.0859 52.0147 62.1799 51.9344 62.2619 51.8468C62.4733 51.6346 62.6565 51.412 62.8148 51.1821C62.8703 51.101 62.9201 51.0134 62.9699 50.925C63.06 50.7707 63.1419 50.6156 63.2038 50.4604C63.2641 50.323 63.3059 50.2097 63.342 50.09C63.3991 49.9164 63.4361 49.7572 63.4682 49.5989C63.5245 49.3281 63.5518 49.0516 63.5518 48.7486C63.5518 48.6088 63.547 48.4682 63.5285 48.3283C63.5116 48.1547 63.4939 48.0237 63.469 47.8984C63.4489 47.7867 63.4272 47.6902 63.3983 47.5994C63.3637 47.4893 63.33 47.38 63.289 47.2707C63.2834 47.2562 63.2786 47.241 63.2737 47.2265C63.2633 47.2032 63.2528 47.1767 63.2456 47.1574C63.2175 47.077 63.1829 46.9967 63.1484 46.9163C63.1403 46.9018 63.1331 46.8874 63.1275 46.8745C63.1243 46.8681 63.1202 46.8608 63.117 46.8544C63.0656 46.7507 63.0069 46.6471 62.9483 46.5498C62.8775 46.4293 62.8036 46.324 62.7305 46.2179C62.667 46.1255 62.5995 46.0411 62.5271 45.9631C62.5135 45.9487 62.5038 45.9334 62.4918 45.9181C62.2121 45.5983 61.893 45.3258 61.5426 45.1072L61.5041 45.0823L61.5065 45.0775C61.5017 45.0743 61.4992 45.0695 61.4952 45.0671L61.4928 45.0663L61.488 45.0727L61.4912 45.0655C61.4759 45.0582 61.4599 45.055 61.4454 45.047C61.4454 45.047 61.4333 45.0405 61.4221 45.0341C61.3184 44.9698 61.2244 44.9192 61.1239 44.875C61.0934 44.8589 61.0709 44.8501 61.042 44.8364C60.915 44.7697 60.7832 44.7175 60.6514 44.6668C60.4215 44.5865 60.1732 44.5222 59.9112 44.4756C59.6693 44.4306 59.4451 44.4097 59.1951 44.4097H37.3507C37.1008 44.4097 36.8758 44.4298 36.6636 44.4707C36.3847 44.5206 36.13 44.5857 35.8953 44.6684C35.7442 44.7255 35.6028 44.7818 35.4637 44.8517C35.0217 45.063 34.6344 45.3331 34.2984 45.6618C34.2486 45.7076 34.2253 45.7285 34.2076 45.7502C34.1891 45.7743 34.1618 45.8064 34.1401 45.8281C34.0919 45.8772 34.0493 45.9254 34.0059 45.9792C33.9175 46.0821 33.854 46.1633 33.7953 46.2501C33.7351 46.3344 33.6997 46.3899 33.6692 46.4453C33.6475 46.4847 33.6217 46.5225 33.5936 46.5579C33.5534 46.6302 33.5333 46.6615 33.5197 46.6937C33.5068 46.7234 33.4883 46.7636 33.4715 46.7925C33.4321 46.8616 33.3967 46.9356 33.3662 47.0063C33.3597 47.0224 33.3541 47.0392 33.3477 47.0545C33.3011 47.1662 33.2553 47.2771 33.2159 47.3953C33.2143 47.3993 33.2135 47.4025 33.2127 47.4049C33.207 47.4347 33.199 47.4644 33.191 47.4933C33.068 47.896 33.0053 48.3179 33.0053 48.7478C33.0053 48.8981 33.011 49.0412 33.0246 49.185C33.0246 49.1907 33.0246 49.1963 33.0254 49.2019V49.2035Z" fill="#24B73F"/>
<path d="M36.3721 42.8915H36.3785C36.3826 42.8915 36.3866 42.8899 36.3914 42.8891C36.6727 42.8337 36.9974 42.8039 37.351 42.8039H59.1978C59.5426 42.8039 59.8576 42.8329 60.1614 42.8891H60.1654C60.1694 42.8891 60.1734 42.8907 60.1774 42.8915C60.1847 42.8931 60.1919 42.8931 60.1991 42.8947C60.3462 42.9164 60.4965 42.9462 60.6484 42.984V35.3853C60.6484 32.0782 59.3633 28.9697 57.0319 26.6302C54.6836 24.2899 51.575 23 48.2784 23C41.4577 23 35.9076 28.5566 35.9076 35.3853V42.9848C36.0531 42.9486 36.2058 42.9197 36.3601 42.8955C36.3641 42.8955 36.3673 42.8931 36.3713 42.8923L36.3721 42.8915ZM42.3281 32.3692C42.5113 31.805 42.9895 31.4007 43.5778 31.3155L45.8987 30.9788L46.8913 28.9086C47.1541 28.3757 47.6853 28.0454 48.2792 28.0454C48.8731 28.0454 49.4035 28.3757 49.6671 28.9078C49.9307 29.4398 50.7047 31.011 50.7047 31.011L52.9806 31.3147C53.5673 31.3999 54.0463 31.8034 54.2295 32.3675C54.4136 32.9317 54.2633 33.5393 53.8389 33.954L52.1593 35.5919L52.5732 37.8501C52.6736 38.4344 52.4382 39.0147 51.9576 39.3626C51.4778 39.7114 50.8541 39.7564 50.3277 39.4808L48.2527 38.3894L46.2315 39.4808C46.0032 39.6005 45.7557 39.66 45.5106 39.66C45.1915 39.66 44.8733 39.5595 44.6024 39.3626C44.1218 39.0139 43.8864 38.4344 43.9868 37.8493L44.383 35.538L42.7211 33.954C42.2967 33.5401 42.1456 32.9325 42.3297 32.3675L42.3281 32.3692Z" fill="#24B73F"/>
<path d="M34.7075 67.7095C36.3012 68.4448 37.9937 67.7079 38.6663 66.2934L44.1264 54.7102H37.5525L33.281 63.7554C32.5858 65.2406 33.2255 67.0151 34.7067 67.7087L34.7075 67.7095Z" fill="#24B73F"/>
<path d="M59.0009 54.711H52.4269L57.8886 66.2966C58.5605 67.7063 60.2425 68.4496 61.8507 67.7079C62.5659 67.3727 63.1092 66.7764 63.3776 66.0298C63.6468 65.2832 63.6083 64.4747 63.2707 63.753L59.0001 54.7102L59.0009 54.711Z" fill="#24B73F"/>
</svg>
