<svg width="96" height="95" viewBox="0 0 96 95" fill="none" xmlns="http://www.w3.org/2000/svg">
<path fill-rule="evenodd" clip-rule="evenodd" d="M29.1004 89.7251C48.6409 96.8971 49.7095 94.6838 67.3419 88.8485C77.9488 85.3273 86.7594 77.8 91.8935 67.8731C92.2599 67.1142 98.3961 54.4034 93.6882 41.058C88.6488 26.461 84.9352 12.348 69.9478 5.11269C57.237 -1.02357 46.3709 -0.966876 34.3819 4.16194C24.266 8.47957 12.2835 16.3407 7.1852 26.9014C2.97225 35.6283 -0.010838 44.7149 1.27573 53.6794C3.39965 68.6625 13.8841 84.0947 29.1004 89.7251Z" fill="white" fill-opacity="0.3"/>
<path fill-rule="evenodd" clip-rule="evenodd" d="M49.4999 89.8489C68.2126 88.0099 68.2126 85.7904 80.2648 74.1221C87.5105 67.0941 91.7218 57.5134 91.9999 47.4245C91.9999 46.6635 91.9999 33.9171 82.929 24.9123C73.0969 15.0196 64.5335 5.00003 49.4999 5.00003C36.7499 5.00003 27.9327 9.31223 20.1939 18.1903C13.6603 25.6732 6.99987 36.7708 6.99987 47.3611C6.99987 56.1123 8.14166 64.6733 12.7088 71.4587C20.3208 82.8099 34.9103 91.2441 49.4999 89.8489Z" fill="white"/>
<path d="M36.7755 62.3451H40.6005C42.8805 62.3451 44.7255 60.4851 44.7255 58.1901C44.7255 56.9151 44.1255 55.7751 43.2105 55.0251C43.4505 54.5301 43.6005 53.9751 43.6005 53.3751C43.6005 51.3201 41.9205 49.6551 39.8805 49.6551H36.7755C35.9355 49.6551 35.2755 50.3301 35.2755 51.1551V60.8451C35.2755 61.6701 35.9355 62.3451 36.7755 62.3451ZM38.2755 52.6551H39.8805C40.2705 52.6551 40.6005 52.9851 40.6005 53.3751C40.6005 53.7801 40.2705 54.0951 39.8805 54.0951H38.2755V52.6551ZM38.2755 57.0951H40.6005C41.2155 57.0951 41.7255 57.6051 41.7255 58.2051C41.7255 58.8351 41.2305 59.3451 40.6005 59.3451H38.2755V57.0951Z" fill="#4F830E"/>
<path d="M68.4999 44H62.2299C62.3949 43.535 62.4999 43.025 62.4999 42.5V27.5C62.4999 25.025 60.4749 23 57.9999 23H42.9999C40.5248 23 38.4999 25.025 38.4999 27.5V42.5C38.4999 43.025 38.6049 43.535 38.7699 44H32.4999C30.0248 44 27.9999 46.025 27.9999 48.5V63.5C27.9999 65.975 30.0248 68 32.4999 68H47.4999C48.6549 68 49.7048 67.55 50.4999 66.83C51.2949 67.55 52.3448 68 53.4999 68H68.4999C70.9749 68 72.9999 65.975 72.9999 63.5V48.5C72.9999 46.025 70.9749 44 68.4999 44ZM43.8849 39.125L49.1799 29.435C49.7048 28.475 51.2949 28.475 51.8199 29.435L57.1148 39.125C57.5199 39.845 57.2499 40.76 56.5299 41.15C56.2899 41.285 56.0499 41.345 55.8098 41.345C55.2699 41.345 54.7599 41.06 54.4898 40.565L53.2899 38.36H47.7099L46.5099 40.565C46.1199 41.285 45.2048 41.555 44.4698 41.15C43.7499 40.76 43.4799 39.845 43.8849 39.125ZM48.9999 63.5C48.9999 64.325 48.3249 65 47.4999 65H32.4999C31.6749 65 30.9999 64.325 30.9999 63.5V48.5C30.9999 47.675 31.6749 47 32.4999 47H48.9999V63.5ZM69.9999 63.5C69.9999 64.325 69.3249 65 68.4999 65H53.4999C52.6749 65 51.9999 64.325 51.9999 63.5V47H68.4999C69.3249 47 69.9999 47.675 69.9999 48.5V63.5Z" fill="#4F830E"/>
<path d="M50.4991 33.275L49.3591 35.36H51.6391L50.4991 33.275Z" fill="#4F830E"/>
<path d="M61.7122 52.6542C62.608 52.6542 63.443 53.0013 64.0626 53.6312C64.6427 54.2215 65.5919 54.2289 66.1837 53.6488C66.774 53.0687 66.7821 52.118 66.2012 51.5277C65.0133 50.3192 63.4188 49.6542 61.7122 49.6542C58.2134 49.6542 55.3673 52.5004 55.3673 55.9999C55.3673 59.4994 58.2134 62.3456 61.7122 62.3456C63.4188 62.3456 65.0132 61.6805 66.2012 60.4721C66.7821 59.8817 66.774 58.931 66.1837 58.351C65.5941 57.7724 64.6441 57.7782 64.0626 58.3685C63.4429 58.9984 62.608 59.3456 61.7122 59.3456C59.868 59.3456 58.3673 57.8441 58.3673 55.9999C58.3673 54.1557 59.868 52.6542 61.7122 52.6542Z" fill="#4F830E"/>
</svg>
