<svg width="33" height="34" viewBox="0 0 33 34" fill="none" xmlns="http://www.w3.org/2000/svg">
<path d="M16.4999 11.2732C18.4598 11.2732 20.0545 9.6786 20.0545 7.71863C20.0545 5.75867 18.4598 4.16406 16.4999 4.16406C14.5399 4.16406 12.9453 5.75867 12.9453 7.71863C12.9453 9.6786 14.5399 11.2732 16.4999 11.2732ZM16.4999 5.34263C17.8105 5.34263 18.8759 6.40865 18.8759 7.71863C18.8759 9.02862 17.8099 10.0946 16.4999 10.0946C15.1899 10.0946 14.1239 9.02862 14.1239 7.71863C14.1239 6.40865 15.1899 5.34263 16.4999 5.34263Z" fill="white"/>
<path d="M0.589286 33.3474H32.4107C32.7366 33.3474 33 33.0834 33 32.7581V30.3603C33 30.035 32.7366 29.771 32.4107 29.771H30.9905V13.1702C30.9905 12.9717 30.8904 12.786 30.7242 12.677L23.4536 7.91912V4.77881C23.4536 4.58022 23.3534 4.3946 23.1872 4.28617L16.7882 0.0963482C16.5925 -0.0321161 16.3391 -0.0321161 16.1423 0.0963482L9.73677 4.28617C9.57059 4.39519 9.47041 4.58081 9.47041 4.7794V7.91971L2.19921 12.677C2.03304 12.786 1.93286 12.9717 1.93286 13.1702V29.7704H0.589286C0.263411 29.7704 0 30.0344 0 30.3597V32.7575C0 33.0828 0.263411 33.3474 0.589286 33.3474ZM3.11143 27.8511H7.99013V29.7704H3.11143V27.8511ZM9.1687 13.2628H10.0503C10.0532 13.2628 10.0556 13.2645 10.0591 13.2645H22.8637C22.8666 13.2645 22.869 13.2628 22.8725 13.2628H23.7559V29.7704H21.5443V21.5075C21.5443 18.7054 19.2643 16.4255 16.4623 16.4255C13.6602 16.4255 11.3809 18.7054 11.3809 21.5075V29.7704H9.1687V13.2628ZM24.9344 27.8511H29.8114V29.7704H24.9344V27.8511ZM17.0516 17.6488C18.9255 17.9334 20.3657 19.5557 20.3657 21.5075V29.7704H17.0516V17.6488ZM15.873 29.7704H12.5594V21.5075C12.5594 19.5557 13.9997 17.934 15.873 17.6488V29.7704ZM29.8114 13.489V26.6725H24.9344V12.6735C24.9344 12.3482 24.671 12.0842 24.3452 12.0842H23.453V9.3281L29.8114 13.489ZM10.6484 5.09762L16.4646 1.29319L22.2744 5.09703V12.0836H10.6484V5.09762ZM9.46982 9.3281V12.0842H8.57941C8.25354 12.0842 7.99013 12.3482 7.99013 12.6735V26.6725H3.11143V13.489L9.46982 9.3281ZM1.17857 30.9496H31.8214V32.1688H1.17857V30.9496Z" fill="white"/>
</svg>
