<svg width="30" height="33" viewBox="0 0 30 33" fill="none" xmlns="http://www.w3.org/2000/svg">
<path d="M27.7247 23.1742V14.9579H28.2303C29.1994 14.9579 30 14.1573 30 13.1882V11.1236C30 10.1545 29.1994 9.35393 28.2303 9.35393H27.7247V9.26966C27.7247 8.89045 27.6826 8.51124 27.6826 8.17416C27.7247 8.08989 27.7247 8.00562 27.7247 7.92135C27.7247 7.79494 27.6826 7.62641 27.5983 7.54214C27.2191 5.05618 25.9972 3.16011 23.8904 1.89607C21.7837 0.632023 18.8764 0 15 0C11.1236 0 8.21629 0.632023 6.10955 1.89607C4.00281 3.16011 2.7809 5.05618 2.40169 7.54214C2.31742 7.66854 2.27528 7.79494 2.27528 7.92135C2.27528 8.00562 2.31742 8.08989 2.31742 8.17416C2.27528 8.51124 2.27528 8.89045 2.27528 9.26966V9.35393H1.76966C0.800562 9.35393 0 10.1545 0 11.1236V13.1882C0 14.1573 0.800562 14.9579 1.76966 14.9579H2.27528V23.1742C2.27528 24.6489 2.86517 26.0393 3.87641 27.0506C4.25562 27.4298 4.67697 27.7247 5.14045 27.9775V28.0197V30.4213C5.14045 31.3904 5.94101 32.2331 6.95225 32.2331H9.26966C10.2388 32.2331 11.0815 31.4326 11.0815 30.4213V28.6938H19.0871V30.4213C19.0871 31.3904 19.8876 32.2331 20.8989 32.2331H23.2163C24.1854 32.2331 25.0281 31.4326 25.0281 30.4213V28.0618V28.0197C25.4916 27.7669 25.9129 27.4719 26.2921 27.0927C27.1348 26.0393 27.7247 24.6489 27.7247 23.1742ZM27.7247 10.618H28.2303C28.5253 10.618 28.736 10.8708 28.736 11.1236V13.1882C28.736 13.4831 28.4831 13.6938 28.2303 13.6938H27.7247V10.618ZM2.23315 13.736H1.72753C1.43258 13.736 1.22191 13.4831 1.22191 13.2303V11.1657C1.22191 10.8708 1.47472 10.6601 1.72753 10.6601H2.23315V13.736ZM26.4607 9.26966V9.98596V14.3258V17.7809H15.5899V8.51124H26.4607V9.26966ZM6.69944 2.99157C8.59551 1.85393 11.3764 1.26405 14.9579 1.26405C18.5393 1.26405 21.3202 1.85393 23.2163 2.99157C24.8596 4.00281 25.8708 5.43539 26.2921 7.33146H14.9579H3.66573C4.04494 5.43539 5.05618 4.00281 6.69944 2.99157ZM3.45506 14.368V10.0281V9.3118C3.45506 9.05899 3.45506 8.80618 3.49719 8.59551H14.368V17.823H3.45506V14.368ZM9.73315 30.4213C9.73315 30.7163 9.48034 30.9691 9.18539 30.9691H6.86798C6.57303 30.9691 6.32022 30.7163 6.32022 30.4213V28.4831C6.78371 28.6096 7.24719 28.6517 7.75281 28.6517H9.77528V30.4213H9.73315ZM23.6376 30.4213C23.6376 30.7163 23.3848 30.9691 23.0899 30.9691H20.7725C20.4775 30.9691 20.2247 30.7163 20.2247 30.4213V28.6938H22.2472C22.7528 28.6938 23.2163 28.6096 23.6798 28.5253V30.4213H23.6376ZM22.2051 27.4298H7.71067C6.57303 27.4298 5.51966 26.9663 4.67697 26.1657C3.8764 25.3652 3.41292 24.2697 3.41292 23.132V19.0449H14.9579H26.4607V23.1742C26.4607 24.3118 25.9972 25.3652 25.1966 26.2079C24.4382 27.0084 23.3427 27.4298 22.2051 27.4298Z" fill="white"/>
<path d="M7.28936 20.9414C6.15172 20.9414 5.18262 21.8684 5.18262 23.0481C5.18262 24.1858 6.10958 25.1549 7.28936 25.1549C8.427 25.1549 9.3961 24.2279 9.3961 23.0481C9.35397 21.8684 8.427 20.9414 7.28936 20.9414ZM7.28936 23.8908C6.82588 23.8908 6.44666 23.5116 6.44666 23.0481C6.44666 22.5847 6.82588 22.2055 7.28936 22.2055C7.75284 22.2055 8.13206 22.5847 8.13206 23.0481C8.13206 23.5116 7.75284 23.8908 7.28936 23.8908Z" fill="white"/>
<path d="M22.6683 20.9414C21.5306 20.9414 20.5615 21.8684 20.5615 23.0481C20.5615 24.1858 21.4885 25.1549 22.6683 25.1549C23.8059 25.1549 24.775 24.2279 24.775 23.0481C24.775 21.8684 23.8059 20.9414 22.6683 20.9414ZM22.6683 23.8908C22.2048 23.8908 21.8256 23.5116 21.8256 23.0481C21.8256 22.5847 22.2048 22.2055 22.6683 22.2055C23.1317 22.2055 23.511 22.5847 23.511 23.0481C23.511 23.5116 23.1317 23.8908 22.6683 23.8908Z" fill="white"/>
<path d="M17.9492 20.9414H11.966C11.6289 20.9414 11.334 21.2364 11.334 21.5734C11.334 21.9105 11.6289 22.2055 11.966 22.2055H17.9492C18.2862 22.2055 18.5812 21.9105 18.5812 21.5734C18.5812 21.2364 18.2862 20.9414 17.9492 20.9414Z" fill="white"/>
<path d="M17.9492 23.8906H11.966C11.6289 23.8906 11.334 24.1856 11.334 24.5226C11.334 24.8597 11.6289 25.1547 11.966 25.1547H17.9492C18.2862 25.1547 18.5812 24.8597 18.5812 24.5226C18.5812 24.1856 18.2862 23.8906 17.9492 23.8906Z" fill="white"/>
</svg>
