<svg width="30" height="35" viewBox="0 0 30 35" fill="none" xmlns="http://www.w3.org/2000/svg">
<path d="M29.3915 16.6536H28.4944C28.1237 14.8954 26.3484 13.5653 24.124 13.4257C23.5151 11.8016 21.6679 10.6651 19.5228 10.6651C19.0466 10.6697 18.5726 10.7312 18.111 10.8484C17.1368 10.0844 15.9308 9.67606 14.6928 9.69117C13.9015 9.67069 13.1162 9.83337 12.3982 10.1665C11.6802 10.4997 11.0489 10.9942 10.5536 11.6117C8.12856 11.5622 6.04642 13.0403 5.703 14.9489C4.37691 15.0413 3.14107 15.6541 2.26469 16.6536H0.608475C0.528563 16.6535 0.44943 16.6693 0.375597 16.6998C0.301763 16.7304 0.234677 16.7752 0.17817 16.8317C0.121664 16.8882 0.0768448 16.9553 0.0462737 17.0292C0.0157026 17.103 -2.15659e-05 17.1821 2.21989e-08 17.262V19.3691C0.00310627 21.7829 0.723084 24.1413 2.0686 26.1452C3.41411 28.1492 5.32453 29.7083 7.55749 30.6249V31.7501C7.55823 32.3644 7.8026 32.9533 8.23699 33.3876C8.67139 33.822 9.26033 34.0663 9.87462 34.067H20.1254C20.7397 34.0663 21.3286 33.822 21.763 33.3876C22.1974 32.9533 22.4418 32.3644 22.4425 31.7501V30.6249C24.6755 29.7083 26.5859 28.1492 27.9314 26.1453C29.2769 24.1413 29.9969 21.7829 30 19.3691V17.262C30 17.1821 29.9843 17.103 29.9537 17.0292C29.9232 16.9553 29.8783 16.8882 29.8218 16.8317C29.7653 16.7752 29.6982 16.7304 29.6244 16.6998C29.5506 16.6693 29.4714 16.6535 29.3915 16.6536ZM6.23761 16.1366C6.31868 16.1393 6.39945 16.1255 6.4751 16.0963C6.55075 16.067 6.61972 16.0228 6.67789 15.9663C6.73606 15.9097 6.78224 15.8421 6.81366 15.7673C6.84509 15.6925 6.86111 15.6122 6.86078 15.5311C6.82466 13.9206 8.83317 12.6534 10.8414 12.838C10.9508 12.8407 11.059 12.8144 11.1549 12.7617C11.2508 12.709 11.3311 12.6318 11.3875 12.538C11.7547 12.0081 12.2508 11.5803 12.8291 11.2952C13.4074 11.01 14.0488 10.8768 14.6928 10.9081C15.7356 10.8839 16.7489 11.2557 17.5287 11.9486C17.6112 12.0157 17.7074 12.064 17.8106 12.0899C18.3777 12.114 18.9264 11.8268 19.5228 11.8821C21.37 11.8863 22.8313 12.9091 23.1339 14.2916C23.1859 14.3946 23.2659 14.4808 23.3648 14.5402C23.4637 14.5996 23.5774 14.6298 23.6928 14.6273C25.3619 14.6083 26.8257 15.4815 27.2331 16.6535H4.15017C4.79238 16.3109 5.50971 16.1332 6.23761 16.1366ZM21.2256 31.7501C21.2253 32.0418 21.1092 32.3214 20.903 32.5276C20.6967 32.7338 20.417 32.8498 20.1254 32.85H9.87462C9.58296 32.8498 9.30331 32.7338 9.09704 32.5276C8.89078 32.3214 8.77475 32.0418 8.77442 31.7501V31.0472C9.87707 31.3712 11.0202 31.5367 12.1695 31.5386H17.8305C18.9798 31.5367 20.1229 31.3712 21.2256 31.0472V31.7501ZM28.7831 19.3691C28.7797 22.2729 27.6248 25.0568 25.5715 27.1101C23.5182 29.1633 20.7343 30.3183 17.8305 30.3216H12.1695C5.43461 30.32 0.604465 24.4555 1.2171 17.8705C1.23292 17.8728 2.53955 17.8661 2.55359 17.8729C2.56169 17.8651 27.9366 17.8736 27.9496 17.8705C27.9622 17.8739 27.9754 17.8739 27.988 17.8705H28.783L28.7831 19.3691Z" fill="white"/>
<path d="M9.96583 6.94998C9.86952 7.07693 9.82684 7.23659 9.84694 7.39466C9.86705 7.55273 9.94834 7.69662 10.0734 7.79541C10.1984 7.89421 10.3572 7.94004 10.5156 7.92306C10.674 7.90608 10.8195 7.82764 10.9208 7.7046C11.3794 7.12625 11.6173 6.40359 11.5918 5.66591C11.5664 4.92822 11.2794 4.22365 10.782 3.67825C10.4492 3.31367 10.2722 2.83331 10.289 2.33993C10.3057 1.84654 10.5149 1.37931 10.8717 1.03816C10.9842 0.925287 11.0479 0.772818 11.0491 0.613496C11.0504 0.454174 10.9892 0.300704 10.8785 0.186043C10.7679 0.0713805 10.6167 0.00466998 10.4575 0.00023599C10.2982 -0.004198 10.1436 0.0539982 10.0267 0.162328C9.44079 0.723151 9.09773 1.49111 9.07102 2.30176C9.04431 3.1124 9.33608 3.90128 9.88385 4.49945C10.186 4.83179 10.3602 5.26074 10.3752 5.70965C10.3902 6.15856 10.2451 6.59819 9.96583 6.94998Z" fill="white"/>
<path d="M14.6414 6.94985C14.5451 7.0768 14.5024 7.23647 14.5225 7.39456C14.5426 7.55266 14.6239 7.69657 14.7489 7.79538C14.8739 7.89419 15.0327 7.94002 15.1912 7.92302C15.3497 7.90602 15.4951 7.82755 15.5964 7.70447C16.0552 7.12624 16.2933 6.40356 16.2679 5.66581C16.2426 4.92807 15.9554 4.22345 15.4579 3.67812C15.125 3.31357 14.948 2.83323 14.9647 2.33985C14.9814 1.84646 15.1905 1.37921 15.5473 1.03803C15.6598 0.925239 15.7236 0.772834 15.7249 0.61355C15.7263 0.454265 15.6651 0.300806 15.5545 0.186132C15.444 0.0714579 15.2929 0.00471591 15.1336 0.000240455C14.9744 -0.00423501 14.8198 0.0539132 14.7029 0.162196C14.1168 0.722903 13.7736 1.49083 13.7468 2.3015C13.72 3.11217 14.0117 3.9011 14.5595 4.49932C14.8618 4.83159 15.036 5.26056 15.051 5.70951C15.066 6.15846 14.9209 6.59812 14.6414 6.94985Z" fill="white"/>
<path d="M19.317 6.94985C19.2207 7.0768 19.1779 7.23647 19.198 7.39456C19.2181 7.55266 19.2994 7.69657 19.4245 7.79538C19.5495 7.89419 19.7083 7.94002 19.8668 7.92302C20.0252 7.90602 20.1707 7.82755 20.2719 7.70447C20.7306 7.12615 20.9686 6.40348 20.9431 5.66577C20.9177 4.92807 20.6306 4.22349 20.1332 3.67812C19.8003 3.31357 19.6233 2.83323 19.64 2.33985C19.6567 1.84646 19.8658 1.37921 20.2226 1.03803C20.3351 0.925239 20.3989 0.772834 20.4002 0.61355C20.4016 0.454265 20.3404 0.300806 20.2298 0.186132C20.1193 0.0714579 19.9681 0.00471591 19.8089 0.000240455C19.6497 -0.00423501 19.4951 0.0539132 19.3782 0.162196C18.7921 0.722904 18.4489 1.49083 18.4221 2.3015C18.3953 3.11217 18.687 3.9011 19.2348 4.49932C19.537 4.83159 19.7113 5.26053 19.7263 5.70947C19.7414 6.1584 19.5963 6.59806 19.317 6.94985Z" fill="white"/>
</svg>
