<svg width="25" height="33" viewBox="0 0 25 33" fill="none" xmlns="http://www.w3.org/2000/svg">
<path d="M4.21293 32.447H21.4039C23.281 32.447 24.8076 30.9199 24.8076 29.0434V12.7598C24.8076 10.4398 23.9218 8.2648 22.3216 6.60081V1.81271C22.3216 0.813339 21.5115 0 20.5154 0H17.4859C16.4866 0 15.6732 0.812799 15.6732 1.81271V3.84768H9.942V1.81271C9.942 0.813339 9.12866 0 8.12929 0H5.09982C4.1037 0 3.2936 0.812799 3.2936 1.81271V6.60027C1.69342 8.26534 0.807617 10.4404 0.807617 12.7598V29.0434C0.807617 30.9204 2.33425 32.447 4.21131 32.447H4.21293ZM16.7559 1.81271C16.7559 1.40982 17.0836 1.08157 17.487 1.08157H20.5165C20.9161 1.08157 21.2411 1.40928 21.2411 1.81271V5.6274C21.1611 5.56683 21.0773 5.51275 20.9951 5.45543C20.9372 5.41487 20.881 5.37377 20.8226 5.33429C20.6225 5.20126 20.4192 5.07472 20.2093 4.95899C20.159 4.93087 20.1071 4.90762 20.0563 4.88058C19.8951 4.79567 19.7324 4.71456 19.5663 4.63993C19.4749 4.59883 19.3825 4.55989 19.29 4.52204C19.1586 4.46796 19.0256 4.41767 18.8914 4.37008C18.7925 4.33493 18.6941 4.29815 18.594 4.26679C18.3863 4.20135 18.1771 4.14241 17.9645 4.09211C17.8683 4.0694 17.7704 4.05318 17.6731 4.03371C17.5281 4.00451 17.3832 3.97747 17.2366 3.95584C17.1409 3.94178 17.0452 3.92988 16.9489 3.91906C16.8851 3.91149 16.8219 3.90068 16.7575 3.89473V1.81325L16.7559 1.81271ZM4.37679 1.81271C4.37679 1.40982 4.7018 1.08157 5.10144 1.08157H8.13092C8.5338 1.08157 8.86206 1.40928 8.86206 1.81271V3.89419C8.79716 3.90014 8.73335 3.91149 8.669 3.91906C8.59166 3.92826 8.51433 3.93799 8.43754 3.94881C8.24178 3.97693 8.04764 4.011 7.85458 4.0521C7.8032 4.06291 7.75074 4.07102 7.69991 4.08292C7.46142 4.13754 7.22673 4.20297 6.99473 4.27706C6.93416 4.29653 6.87522 4.3187 6.81519 4.33925C6.63835 4.39982 6.46368 4.4658 6.29117 4.53772C6.22087 4.56692 6.15111 4.59612 6.08189 4.62695C5.89153 4.71185 5.70442 4.80324 5.52055 4.90167C5.48702 4.92005 5.45187 4.93574 5.41834 4.95412C5.20527 5.07147 4.99869 5.19964 4.79536 5.33484C4.73695 5.37377 4.68071 5.41487 4.62339 5.45489C4.54119 5.51221 4.45737 5.56683 4.37679 5.6274V1.81271ZM1.89081 12.7598C1.89081 10.6518 2.71659 8.6758 4.21726 7.19351C5.60654 5.81073 7.45494 5.01091 9.46449 4.93844C9.53587 4.93033 9.60726 4.92925 9.67864 4.92925H15.889C15.9755 4.92925 16.0637 4.92817 16.1956 4.94169C16.6872 4.95899 17.1712 5.02172 17.6428 5.12826C19.0575 5.44732 20.3575 6.15683 21.4007 7.19513C22.8997 8.6758 23.726 10.6524 23.726 12.7603V29.0439C23.726 30.3245 22.6845 31.366 21.4039 31.366H4.21293C2.93236 31.366 1.89081 30.3245 1.89081 29.0439V12.7598Z" fill="white"/>
<path d="M5.31572 29.7437H20.3025C21.2413 29.7437 22.0054 28.9796 22.0054 28.0408V20.3865C22.0054 19.4477 21.2413 18.6836 20.3025 18.6836H5.31572C4.37692 18.6836 3.61279 19.4477 3.61279 20.3865V28.0408C3.61279 28.9796 4.37692 29.7437 5.31572 29.7437ZM4.69436 20.3865C4.69436 20.0442 4.97341 19.7652 5.31572 19.7652H20.3025C20.6453 19.7652 20.9238 20.0442 20.9238 20.3865V28.0408C20.9238 28.3831 20.6448 28.6621 20.3025 28.6621H5.31572C4.97286 28.6621 4.69436 28.3831 4.69436 28.0408V20.3865Z" fill="white"/>
<path d="M6.17994 22.8355H6.68612V23.5855C6.68612 23.8841 6.92785 24.1263 7.2269 24.1263C7.52596 24.1263 7.76769 23.8841 7.76769 23.5855V22.8355H19.4378C19.7369 22.8355 19.9786 22.5932 19.9786 22.2947C19.9786 21.9962 19.7369 21.7539 19.4378 21.7539H6.17994C5.88089 21.7539 5.63916 21.9962 5.63916 22.2947C5.63916 22.5932 5.88089 22.8355 6.17994 22.8355Z" fill="white"/>
<path d="M12.4263 16.2915C12.5318 16.3969 12.6702 16.4499 12.8087 16.4499C12.9471 16.4499 13.0855 16.3969 13.191 16.2915L16.5336 12.9489C16.6353 12.8472 16.692 12.7099 16.692 12.5666C16.692 12.4233 16.6353 12.2854 16.5336 12.1842L13.191 8.84218C12.9796 8.63073 12.6378 8.63073 12.4263 8.84218L9.08374 12.1842C8.98207 12.2859 8.92529 12.4233 8.92529 12.5666C8.92529 12.7099 8.98207 12.8478 9.08374 12.9489L12.4263 16.2915ZM12.8087 9.98918L15.3866 12.5666L12.8087 15.1445L10.2307 12.5666L12.8087 9.98918Z" fill="white"/>
</svg>
