<svg width="40" height="39" viewBox="0 0 40 39" fill="none" xmlns="http://www.w3.org/2000/svg">
<path d="M32.347 10.7551L25.7432 9.79551L22.7898 3.81154C21.6496 1.50076 18.3511 1.4999 17.2103 3.81146L14.257 9.79551L7.65314 10.7551C5.10315 11.1256 4.08323 14.2622 5.92901 16.0616L10.7076 20.7196L9.57955 27.2966C9.14392 29.8361 11.8116 31.7755 14.0935 30.5763L20.0001 27.4708L25.9068 30.5763C28.1914 31.7771 30.8553 29.8304 30.4205 27.2966L29.2925 20.7196L34.0711 16.0616C35.9162 14.2628 34.898 11.1258 32.347 10.7551Z" fill="white"/>
<path d="M10.5256 2.7443L8.93104 0.549618C8.49815 -0.0460057 7.66432 -0.178115 7.0687 0.254775C6.473 0.687587 6.34097 1.52141 6.77378 2.11712L8.36839 4.3118C8.80151 4.90774 9.63541 5.03938 10.2307 4.60664C10.8264 4.17391 10.9585 3.34 10.5256 2.7443Z" fill="white"/>
<path d="M5.2341 22.4139C5.00653 21.7137 4.2545 21.3301 3.55403 21.5579L0.921613 22.4133C0.221302 22.6407 -0.161901 23.393 0.0655987 24.0934C0.293567 24.795 1.04716 25.1766 1.74567 24.9494L4.37817 24.094C5.07848 23.8666 5.46168 23.1143 5.2341 22.4139Z" fill="white"/>
<path d="M32.931 0.254797C32.3353 -0.178092 31.5015 -0.0460615 31.0686 0.54964L29.474 2.74432C29.0411 3.34003 29.1732 4.17393 29.7689 4.60666C30.3649 5.03963 31.1985 4.90729 31.6313 4.31182L33.2259 2.11714C33.6588 1.52144 33.5267 0.687609 32.931 0.254797Z" fill="white"/>
<path d="M39.0784 22.4134L36.4459 21.558C35.7456 21.33 34.9934 21.7137 34.7658 22.414C34.5383 23.1143 34.9215 23.8665 35.6218 24.0941L38.2543 24.9494C38.9532 25.1768 39.7065 24.7947 39.9344 24.0934C40.1619 23.3931 39.7787 22.6409 39.0784 22.4134Z" fill="white"/>
<path d="M19.9998 32.75C19.2635 32.75 18.6665 33.347 18.6665 34.0833V36.7894C18.6665 37.5257 19.2635 38.1226 19.9998 38.1226C20.7361 38.1226 21.3331 37.5257 21.3331 36.7894V34.0833C21.3331 33.347 20.7362 32.75 19.9998 32.75Z" fill="white"/>
</svg>
