<svg width="40" height="40" viewBox="0 0 40 40" fill="none" xmlns="http://www.w3.org/2000/svg">
<path d="M32.347 11.6965L25.7432 10.7369L22.7898 4.75295C21.6496 2.44217 18.3511 2.44131 17.2103 4.75287L14.257 10.7369L7.65314 11.6965C5.10315 12.067 4.08323 15.2036 5.92901 17.003L10.7076 21.661L9.57955 28.238C9.14392 30.7775 11.8116 32.717 14.0935 31.5177L20.0001 28.4122L25.9068 31.5177C28.1914 32.7185 30.8553 30.7718 30.4205 28.238L29.2925 21.661L34.0711 17.003C35.9162 15.2043 34.898 12.0672 32.347 11.6965Z" fill="#24B73F"/>
<path d="M10.5256 3.68571L8.93104 1.49102C8.49815 0.895401 7.66432 0.763292 7.0687 1.19618C6.473 1.62899 6.34097 2.46282 6.77378 3.05852L8.36839 5.25321C8.80151 5.84914 9.63541 5.98078 10.2307 5.54805C10.8264 5.11531 10.9585 4.28141 10.5256 3.68571Z" fill="#24B73F"/>
<path d="M5.2341 23.3553C5.00653 22.6551 4.2545 22.2715 3.55403 22.4993L0.921613 23.3547C0.221302 23.5821 -0.161901 24.3344 0.0655987 25.0348C0.293567 25.7364 1.04716 26.118 1.74567 25.8908L4.37817 25.0354C5.07848 24.808 5.46168 24.0557 5.2341 23.3553Z" fill="#24B73F"/>
<path d="M32.931 1.1962C32.3353 0.763314 31.5015 0.895345 31.0686 1.49105L29.474 3.68573C29.0411 4.28143 29.1732 5.11534 29.7689 5.54807C30.3649 5.98104 31.1985 5.84869 31.6313 5.25323L33.2259 3.05854C33.6588 2.46284 33.5267 1.62902 32.931 1.1962Z" fill="#24B73F"/>
<path d="M39.0784 23.3548L36.4459 22.4994C35.7456 22.2714 34.9934 22.6551 34.7658 23.3554C34.5383 24.0557 34.9215 24.8079 35.6218 25.0355L38.2543 25.8908C38.9532 26.1182 39.7065 25.7361 39.9344 25.0348C40.1619 24.3345 39.7787 23.5823 39.0784 23.3548Z" fill="#24B73F"/>
<path d="M19.9998 33.6914C19.2635 33.6914 18.6665 34.2884 18.6665 35.0247V37.7308C18.6665 38.4671 19.2635 39.0641 19.9998 39.0641C20.7361 39.0641 21.3331 38.4671 21.3331 37.7308V35.0247C21.3331 34.2884 20.7362 33.6914 19.9998 33.6914Z" fill="#24B73F"/>
</svg>
