<svg width="37" height="49" viewBox="0 0 37 49" fill="none" xmlns="http://www.w3.org/2000/svg">
<path d="M5.91608 48.6706H31.7026C34.5182 48.6706 36.8081 46.3798 36.8081 43.565V19.1397C36.8081 15.6598 35.4794 12.3972 33.0791 9.90122V2.71906C33.0791 1.22001 31.864 0 30.3698 0H25.8256C24.3265 0 23.1065 1.2192 23.1065 2.71906V5.77152H14.5097V2.71906C14.5097 1.22001 13.2897 0 11.7906 0H7.24641C5.75223 0 4.53708 1.2192 4.53708 2.71906V9.9004C2.13681 12.398 0.808105 15.6606 0.808105 19.1397V43.565C0.808105 46.3806 3.09806 48.6706 5.91365 48.6706H5.91608ZM24.7305 2.71906C24.7305 2.11474 25.2221 1.62235 25.8272 1.62235H30.3714C30.9709 1.62235 31.4584 2.11393 31.4584 2.71906V8.4411C31.3383 8.35025 31.2126 8.26913 31.0893 8.18315C31.0025 8.12231 30.9182 8.06066 30.8305 8.00144C30.5304 7.80189 30.2254 7.61208 29.9107 7.43849C29.8352 7.3963 29.7574 7.36142 29.6811 7.32086C29.4394 7.19351 29.1952 7.07183 28.9462 6.95989C28.8091 6.89824 28.6704 6.83984 28.5317 6.78306C28.3346 6.70194 28.135 6.6265 27.9338 6.55511C27.7854 6.50239 27.6378 6.44723 27.4877 6.40018C27.1762 6.30203 26.8623 6.21361 26.5435 6.13817C26.3991 6.1041 26.2523 6.07977 26.1063 6.05056C25.8889 6.00676 25.6715 5.9662 25.4516 5.93375C25.3081 5.91266 25.1645 5.89482 25.0201 5.87859C24.9244 5.86724 24.8295 5.85101 24.7329 5.84209V2.71987L24.7305 2.71906ZM6.16187 2.71906C6.16187 2.11474 6.64938 1.62235 7.24884 1.62235H11.7931C12.3974 1.62235 12.8898 2.11393 12.8898 2.71906V5.84128C12.7924 5.8502 12.6967 5.86724 12.6002 5.87859C12.4842 5.89238 12.3682 5.90698 12.253 5.92321C11.9593 5.96539 11.6681 6.01649 11.3785 6.07814C11.3015 6.09437 11.2228 6.10653 11.1465 6.12438C10.7888 6.20631 10.4368 6.30446 10.0888 6.41559C9.99792 6.4448 9.9095 6.47805 9.81946 6.50888C9.55421 6.59973 9.2922 6.69869 9.03343 6.80658C8.92798 6.85038 8.82334 6.89419 8.71951 6.94042C8.43397 7.06778 8.15331 7.20487 7.87751 7.3525C7.82721 7.38008 7.77449 7.4036 7.72419 7.43119C7.40459 7.60721 7.09472 7.79946 6.78972 8.00225C6.70211 8.06066 6.61775 8.12231 6.53176 8.18233C6.40847 8.26832 6.28273 8.35025 6.16187 8.4411V2.71906ZM2.43289 19.1397C2.43289 15.9777 3.67156 13.0137 5.92257 10.7903C8.00648 8.71609 10.7791 7.51636 13.7934 7.40766C13.9005 7.39549 14.0076 7.39387 14.1146 7.39387H23.4302C23.56 7.39387 23.6922 7.39225 23.8901 7.41253C24.6275 7.43849 25.3535 7.53258 26.0608 7.69238C28.1829 8.17098 30.1329 9.23524 31.6977 10.7927C33.9463 13.0137 35.1858 15.9785 35.1858 19.1405V43.5658C35.1858 45.4867 33.6234 47.049 31.7026 47.049H5.91608C3.99522 47.049 2.43289 45.4867 2.43289 43.5658V19.1397Z" fill="black"/>
<path d="M7.57002 44.6136H30.0501C31.4583 44.6136 32.6045 43.4674 32.6045 42.0592V30.5778C32.6045 29.1696 31.4583 28.0234 30.0501 28.0234H7.57002C6.16182 28.0234 5.01562 29.1696 5.01562 30.5778V42.0592C5.01562 43.4674 6.16182 44.6136 7.57002 44.6136ZM6.63798 30.5778C6.63798 30.0644 7.05654 29.6458 7.57002 29.6458H30.0501C30.5644 29.6458 30.9822 30.0644 30.9822 30.5778V42.0592C30.9822 42.5727 30.5636 42.9913 30.0501 42.9913H7.57002C7.05573 42.9913 6.63798 42.5727 6.63798 42.0592V30.5778Z" fill="black"/>
<path d="M8.86635 34.2513H9.62561V35.3764C9.62561 35.8241 9.98821 36.1875 10.4368 36.1875C10.8854 36.1875 11.248 35.8241 11.248 35.3764V34.2513H28.7531C29.2017 34.2513 29.5643 33.8879 29.5643 33.4401C29.5643 32.9923 29.2017 32.6289 28.7531 32.6289H8.86635C8.41777 32.6289 8.05518 32.9923 8.05518 33.4401C8.05518 33.8879 8.41777 34.2513 8.86635 34.2513Z" fill="black"/>
<path d="M18.2364 24.4392C18.3946 24.5974 18.6023 24.6768 18.8099 24.6768C19.0176 24.6768 19.2252 24.5974 19.3834 24.4392L24.3973 19.4253C24.5498 19.2728 24.635 19.0668 24.635 18.8518C24.635 18.6368 24.5498 18.43 24.3973 18.2783L19.3834 13.2652C19.0663 12.9481 18.5536 12.9481 18.2364 13.2652L13.2225 18.2783C13.07 18.4308 12.9849 18.6368 12.9849 18.8518C12.9849 19.0668 13.07 19.2736 13.2225 19.4253L18.2364 24.4392ZM18.8099 14.9857L22.6768 18.8518L18.8099 22.7187L14.943 18.8518L18.8099 14.9857Z" fill="black"/>
</svg>
