<svg width="48" height="47" viewBox="0 0 48 47" fill="none" xmlns="http://www.w3.org/2000/svg">
<path d="M22.7167 27.5985H3.3975C2.8895 27.5985 2.47754 27.1866 2.47754 26.6785V10.1192C2.47754 9.61118 2.8895 9.19922 3.3975 9.19922H22.7167C23.2248 9.19922 23.6367 9.61118 23.6367 10.1192V26.6785C23.6367 27.1866 23.2248 27.5985 22.7167 27.5985ZM4.31747 25.7586H21.7968V11.0391H4.31747V25.7586Z" fill="#25283E"/>
<path d="M24.5565 11.0396H1.47564C1.08466 11.0396 0.736362 10.7925 0.607291 10.4234C0.47822 10.0543 0.596527 9.64398 0.902231 9.40028L12.4427 0.200644C12.7781 -0.0668814 13.2541 -0.0668814 13.5896 0.200644L25.13 9.40028C25.4357 9.64398 25.554 10.0543 25.425 10.4234C25.2958 10.7925 24.9475 11.0396 24.5565 11.0396ZM4.10555 9.19964H21.9267L13.0162 2.09641L4.10555 9.19964Z" fill="#25283E"/>
<path d="M8.9172 46.9168H5.23735C4.72934 46.9168 4.31738 46.5049 4.31738 45.9969V30.3575C4.31738 29.8495 4.72934 29.4375 5.23735 29.4375H8.9172C9.42521 29.4375 9.83717 29.8495 9.83717 30.3575V45.9969C9.83717 46.5049 9.4253 46.9168 8.9172 46.9168ZM6.15731 45.0769H7.99724V31.2774H6.15731V45.0769Z" fill="#25283E"/>
<path d="M20.8767 46.9168H17.1968C16.6888 46.9168 16.2769 46.5049 16.2769 45.9969V30.3575C16.2769 29.8495 16.6888 29.4375 17.1968 29.4375H20.8767C21.3847 29.4375 21.7966 29.8495 21.7966 30.3575V45.9969C21.7966 46.5049 21.3848 46.9168 20.8767 46.9168ZM18.1168 45.0769H19.9567V31.2774H18.1168V45.0769Z" fill="#25283E"/>
<path d="M23.4523 31.2776H2.47713C1.41099 31.2776 0.637207 30.4264 0.637207 29.2537V27.7817C0.637207 26.609 1.41099 25.7578 2.47713 25.7578H23.4523C24.5683 25.7578 25.4762 26.6657 25.4762 27.7817V29.2537C25.4762 30.3697 24.5683 31.2776 23.4523 31.2776ZM2.50289 29.4377H23.4524C23.5521 29.4377 23.6364 29.3534 23.6364 29.2537V27.7817C23.6364 27.682 23.5521 27.5977 23.4524 27.5977H2.50289C2.49066 27.6334 2.47723 27.6945 2.47723 27.7817V29.2537C2.47713 29.3409 2.49066 29.4021 2.50289 29.4377Z" fill="#25283E"/>
<path d="M17.1967 34.9571H8.91703C8.40903 34.9571 7.99707 34.5452 7.99707 34.0372C7.99707 33.5291 8.40903 33.1172 8.91703 33.1172H17.1967C17.7047 33.1172 18.1167 33.5291 18.1167 34.0372C18.1167 34.5452 17.7048 34.9571 17.1967 34.9571Z" fill="#25283E"/>
<path d="M17.1967 38.6368H8.91703C8.40903 38.6368 7.99707 38.2249 7.99707 37.7168C7.99707 37.2088 8.40903 36.7969 8.91703 36.7969H17.1967C17.7047 36.7969 18.1167 37.2088 18.1167 37.7168C18.1167 38.2249 17.7048 38.6368 17.1967 38.6368Z" fill="#25283E"/>
<path d="M17.1967 42.3165H8.91703C8.40903 42.3165 7.99707 41.9046 7.99707 41.3965C7.99707 40.8885 8.40903 40.4766 8.91703 40.4766H17.1967C17.7047 40.4766 18.1167 40.8885 18.1167 41.3965C18.1167 41.9046 17.7048 42.3165 17.1967 42.3165Z" fill="#25283E"/>
<path d="M17.1967 27.6002H8.91703C8.40903 27.6002 7.99707 27.1884 7.99707 26.6803V18.8606C7.99707 16.0706 10.2669 13.8008 13.0569 13.8008C15.8468 13.8008 18.1167 16.0706 18.1167 18.8606V26.6803C18.1167 27.1884 17.7048 27.6002 17.1967 27.6002ZM9.837 25.7603H16.2767V18.8606C16.2767 17.0851 14.8324 15.6407 13.057 15.6407C11.2814 15.6407 9.837 17.0851 9.837 18.8606V25.7603Z" fill="#25283E"/>
<path d="M46.6355 46.9191H39.781C38.6285 46.9191 37.5573 46.2974 36.9855 45.2967C36.9679 45.2658 37.3996 46.0852 27.6805 27.5999H22.7164C22.2083 27.5999 21.7964 27.188 21.7964 26.6799V22.0801C21.7964 21.572 22.2083 21.1602 22.7164 21.1602H29.5709C30.7234 21.1602 31.7946 21.7819 32.3665 22.7826C32.3841 22.8135 31.9523 21.994 41.6714 40.4794H46.6355C47.1435 40.4794 47.5555 40.8914 47.5555 41.3994V45.9992C47.5555 46.5073 47.1436 46.9191 46.6355 46.9191ZM38.5901 44.3961C38.8369 44.8179 39.2919 45.0792 39.781 45.0792H45.7155V42.3193H41.1157C40.774 42.3193 40.4604 42.1299 40.3014 41.8274L30.7621 23.6833C30.5153 23.2615 30.0602 23.0001 29.571 23.0001H23.6364V25.76H28.2362C28.5779 25.76 28.8915 25.9494 29.0506 26.2519L38.5901 44.3961Z" fill="#25283E"/>
</svg>
