<svg width="49" height="49" viewBox="0 0 49 49" fill="none" xmlns="http://www.w3.org/2000/svg">
<path d="M24.0627 16.6253C26.9209 16.6253 29.2464 14.2998 29.2464 11.4416C29.2464 8.58328 26.9209 6.25781 24.0627 6.25781C21.2044 6.25781 18.8789 8.58328 18.8789 11.4416C18.8789 14.2998 21.2044 16.6253 24.0627 16.6253ZM24.0627 7.97656C25.9739 7.97656 27.5277 9.53117 27.5277 11.4416C27.5277 13.352 25.973 14.9066 24.0627 14.9066C22.1523 14.9066 20.5977 13.352 20.5977 11.4416C20.5977 9.53117 22.1523 7.97656 24.0627 7.97656Z" fill="#25283E"/>
<path d="M0.859375 48.8152H47.2656C47.7409 48.8152 48.125 48.4302 48.125 47.9558V44.459C48.125 43.9846 47.7409 43.5996 47.2656 43.5996H45.1945V19.3902C45.1945 19.1006 45.0484 18.8299 44.8061 18.6709L34.2031 11.7323V7.1527C34.2031 6.86309 34.057 6.59238 33.8147 6.43426L24.4827 0.324102C24.1974 0.136758 23.8279 0.136758 23.5409 0.324102L14.1995 6.43426C13.9571 6.59324 13.811 6.86395 13.811 7.15355V11.7332L3.20719 18.6709C2.96484 18.8299 2.81875 19.1006 2.81875 19.3902V43.5988H0.859375C0.384141 43.5988 0 43.9838 0 44.4582V47.955C0 48.4293 0.384141 48.8152 0.859375 48.8152ZM4.5375 40.7998H11.6523V43.5988H4.5375V40.7998ZM13.371 19.5251H14.6566C14.6609 19.5251 14.6644 19.5277 14.6695 19.5277H33.3429C33.3472 19.5277 33.3506 19.5251 33.3558 19.5251H34.644V43.5988H31.4188V31.5486C31.4188 27.4623 28.0938 24.1374 24.0075 24.1374C19.9212 24.1374 16.5971 27.4623 16.5971 31.5486V43.5988H13.371V19.5251ZM36.3627 40.7998H43.4749V43.5988H36.3627V40.7998ZM24.8669 25.9214C27.5997 26.3365 29.7 28.7024 29.7 31.5486V43.5988H24.8669V25.9214ZM23.1481 43.5988H18.3159V31.5486C18.3159 28.7024 20.4162 26.3374 23.1481 25.9214V43.5988ZM43.4749 19.8551V39.0811H36.3627V18.6657C36.3627 18.1914 35.9786 17.8064 35.5034 17.8064H34.2023V13.7871L43.4749 19.8551ZM15.5289 7.61762L24.0109 2.06949L32.4835 7.61676V17.8055H15.5289V7.61762ZM13.8102 13.7871V17.8064H12.5116C12.0364 17.8064 11.6523 18.1914 11.6523 18.6657V39.0811H4.5375V19.8551L13.8102 13.7871ZM1.71875 45.3184H46.4062V47.0964H1.71875V45.3184Z" fill="#25283E"/>
</svg>
