<svg width="40" height="39" viewBox="0 0 40 39" fill="none" xmlns="http://www.w3.org/2000/svg">
<path d="M32.3465 10.7553L25.7426 9.79566L22.7892 3.81157C21.6489 1.50075 18.3504 1.49989 17.2096 3.81149L14.2562 9.79566L7.65222 10.7553C5.10218 11.1258 4.08224 14.2625 5.92805 16.0619L10.7067 20.7199L9.57866 27.297C9.14302 29.8366 11.8107 31.7761 14.0927 30.5768L19.9994 27.4713L25.9062 30.5768C28.1908 31.7777 30.8548 29.8309 30.42 27.297L29.292 20.7199L34.0707 16.0619C35.9158 14.2631 34.8976 11.126 32.3465 10.7553Z" fill="white"/>
<path d="M10.5252 2.74435L8.9306 0.549629C8.4977 -0.0460066 7.66386 -0.178118 7.06822 0.25478C6.47251 0.6876 6.34048 1.52144 6.7733 2.11716L8.36793 4.31188C8.80106 4.90783 9.63498 5.03947 10.2303 4.60673C10.826 4.17399 10.9581 3.34007 10.5252 2.74435Z" fill="white"/>
<path d="M5.2342 22.4139C5.00662 21.7137 4.25458 21.3301 3.5541 21.5579L0.92163 22.4133C0.221306 22.6407 -0.161904 23.393 0.0655999 24.0934C0.293573 24.7951 1.04718 25.1767 1.74571 24.9494L4.37825 24.094C5.07858 23.8666 5.46179 23.1143 5.2342 22.4139Z" fill="white"/>
<path d="M32.931 0.254802C32.3354 -0.178096 31.5015 -0.0460624 31.0686 0.549651L29.474 2.74438C29.0411 3.34009 29.1732 4.17401 29.7689 4.60675C30.3649 5.03973 31.1986 4.90738 31.6313 4.3119L33.226 2.11718C33.6589 1.52146 33.5267 0.687622 32.931 0.254802Z" fill="white"/>
<path d="M39.0785 22.4134L36.4459 21.558C35.7456 21.33 34.9934 21.7137 34.7658 22.414C34.5383 23.1143 34.9215 23.8665 35.6219 24.0941L38.2544 24.9495C38.9533 25.1769 39.7066 24.7947 39.9345 24.0935C40.162 23.3932 39.7788 22.641 39.0785 22.4134Z" fill="white"/>
<path d="M19.9998 32.75C19.2635 32.75 18.6665 33.347 18.6665 34.0833V36.7894C18.6665 37.5258 19.2635 38.1227 19.9998 38.1227C20.7361 38.1227 21.3331 37.5258 21.3331 36.7894V34.0833C21.3332 33.347 20.7362 32.75 19.9998 32.75Z" fill="white"/>
</svg>
