<svg width="36" height="40" viewBox="0 0 36 40" fill="none" xmlns="http://www.w3.org/2000/svg">
<path d="M34.1751 9.6182C33.8539 6.47832 33.3423 4.03359 32.5329 3.07266C29.1956 -0.878375 5.81835 -1.16752 3.16412 3.07266C2.51485 4.1115 2.05949 6.54757 1.7539 9.62339C0.767873 9.7394 0 10.5696 0 11.5859V15.4322C0 16.2875 0.541926 17.0087 1.29855 17.29C1.11935 23.3481 1.26478 29.6686 1.53315 32.8119C1.53315 35.2385 3.16326 34.8359 3.16326 34.8359H4.69121V37.4555C4.69121 38.4944 5.76208 39.335 7.0814 39.335C8.40245 39.335 9.47332 38.4944 9.47332 37.4555V34.8359H27.2495V37.4555C27.2495 38.4944 28.3195 39.335 29.6406 39.335C30.9599 39.335 32.0308 38.4944 32.0308 37.4555V34.8359H32.5329C32.5329 34.8359 34.4513 35.0991 34.5742 33.9564C34.5742 30.8217 34.7716 23.8745 34.6088 17.3168C35.4131 17.0649 36 16.3239 36 15.4322V11.5859C36.0009 10.5454 35.1958 9.7013 34.1751 9.6182ZM8.87339 3.63623H26.8236V6.35192H8.87339V3.63623ZM9.12964 31.7428C7.72028 31.7428 6.57843 30.6001 6.57843 29.1907C6.57843 27.7822 7.72028 26.6404 9.12964 26.6404C10.539 26.6404 11.6817 27.7822 11.6817 29.1907C11.6817 30.6001 10.5399 31.7428 9.12964 31.7428ZM26.7275 31.7428C25.319 31.7428 24.1746 30.6001 24.1746 29.1907C24.1746 27.7822 25.3182 26.6404 26.7275 26.6404C28.1369 26.6404 29.2787 27.7822 29.2787 29.1907C29.2796 30.6001 28.1369 31.7428 26.7275 31.7428ZM29.9713 20.5753H5.72572V7.85824H29.9713V20.5753Z" fill="white"/>
</svg>
