<svg width="31" height="45" viewBox="0 0 31 45" fill="none" xmlns="http://www.w3.org/2000/svg">
<path d="M12.9652 12.8113L12.5891 15.0021L14.5581 13.967C14.7831 13.8488 15.0306 13.7894 15.2781 13.7894C15.5257 13.7894 15.7724 13.8488 15.9982 13.967L17.9672 15.0021L17.5911 12.8105C17.5051 12.309 17.6707 11.7971 18.0355 11.4411L19.6284 9.88838L17.4279 9.56933C16.9232 9.4962 16.4877 9.17955 16.2626 8.72307L15.2605 6.69141L14.2945 8.72227C14.0694 9.17875 13.6338 9.49539 13.1299 9.56933L10.9287 9.88838L12.5216 11.4411C12.8864 11.7971 13.0512 12.309 12.9652 12.8113Z" fill="white"/>
<path d="M0.0254624 26.204C0.0519833 26.4355 0.0945779 26.6645 0.157264 26.8823C0.170122 26.9273 0.178159 26.9731 0.183785 27.0197C0.198251 27.0519 0.205484 27.0607 0.215931 27.0945C0.250489 27.2126 0.293082 27.3259 0.339695 27.432C0.414436 27.608 0.48757 27.7631 0.574366 27.9054C0.636248 28.0139 0.685271 28.1023 0.741527 28.1834C0.900653 28.4157 1.08469 28.6375 1.27355 28.8248C1.36999 28.922 1.46402 29.0104 1.56448 29.0924C1.57332 29.0996 1.59422 29.1173 1.61431 29.135C1.69789 29.2009 1.78147 29.2676 1.86505 29.3214C1.98881 29.4106 2.07802 29.4661 2.17205 29.5159C2.2709 29.573 2.34645 29.614 2.42199 29.6485C2.43726 29.6549 2.45092 29.6622 2.46539 29.6694C2.48789 29.6783 2.5112 29.6879 2.53209 29.6992C2.63175 29.749 2.73703 29.794 2.84311 29.8277C3.01429 29.8936 3.13162 29.9282 3.25459 29.9579C3.3888 29.9917 3.51658 30.0166 3.64356 30.0359C3.6741 30.0399 3.70383 30.0463 3.73277 30.0544C3.86457 30.0753 4.0044 30.0704 4.14344 30.0937H4.15148C4.22059 30.1026 4.28247 30.101 4.35561 30.101H12.3955C12.4027 30.101 12.4099 30.1034 12.4172 30.1034H18.1368C18.1441 30.1034 18.1513 30.101 18.1585 30.101H26.1992C26.2683 30.101 26.331 30.1034 26.4017 30.0937C26.4057 30.0937 26.4098 30.0946 26.4138 30.0937C26.552 30.0712 26.6918 30.0769 26.8253 30.0536C26.8542 30.0455 26.8847 30.0391 26.9121 30.0351C27.0398 30.0166 27.1676 29.9909 27.2962 29.9587C27.4248 29.9274 27.5429 29.8928 27.6595 29.8462C27.8194 29.7932 27.9255 29.7474 28.0259 29.6975C28.0468 29.6871 28.0693 29.6775 28.0918 29.6686C28.1055 29.6614 28.1184 29.6549 28.132 29.6493C28.2076 29.6148 28.2839 29.573 28.3538 29.532C28.476 29.4669 28.566 29.4114 28.6496 29.3496L28.7324 29.2917C28.7983 29.2451 28.8658 29.1993 28.9252 29.1486C28.9333 29.1422 28.9421 29.135 28.9493 29.1285C28.9638 29.1149 28.9783 29.102 28.9927 29.0908C29.086 29.0152 29.18 28.9349 29.262 28.8473C29.4733 28.6351 29.6566 28.4125 29.8149 28.1826C29.8703 28.1015 29.9202 28.0139 29.97 27.9255C30.06 27.7712 30.142 27.6161 30.2039 27.4609C30.2641 27.3235 30.3059 27.2102 30.3421 27.0905C30.3992 26.9169 30.4361 26.7577 30.4683 26.5994C30.5245 26.3286 30.5518 26.0521 30.5518 25.7491C30.5518 25.6093 30.547 25.4687 30.5285 25.3288C30.5117 25.1552 30.494 25.0242 30.4691 24.8989C30.449 24.7872 30.4273 24.6907 30.3983 24.5999C30.3638 24.4898 30.33 24.3805 30.289 24.2712C30.2834 24.2567 30.2786 24.2415 30.2738 24.227C30.2633 24.2037 30.2529 24.1772 30.2456 24.1579C30.2175 24.0775 30.183 23.9971 30.1484 23.9168C30.1404 23.9023 30.1331 23.8879 30.1275 23.875C30.1243 23.8686 30.1203 23.8613 30.1171 23.8549C30.0656 23.7512 30.007 23.6476 29.9483 23.5503C29.8776 23.4298 29.8036 23.3245 29.7305 23.2184C29.667 23.126 29.5995 23.0416 29.5272 22.9636C29.5135 22.9492 29.5039 22.9339 29.4918 22.9186C29.2121 22.5988 28.8931 22.3263 28.5427 22.1077L28.5041 22.0828L28.5065 22.078C28.5017 22.0748 28.4993 22.07 28.4953 22.0676L28.4929 22.0667L28.488 22.0732L28.4913 22.0659C28.476 22.0587 28.4599 22.0555 28.4454 22.0475C28.4454 22.0475 28.4334 22.041 28.4221 22.0346C28.3185 21.9703 28.2244 21.9197 28.124 21.8755C28.0934 21.8594 28.0709 21.8506 28.042 21.8369C27.915 21.7702 27.7832 21.718 27.6514 21.6673C27.4216 21.587 27.1732 21.5227 26.9112 21.4761C26.6693 21.4311 26.4451 21.4102 26.1952 21.4102H4.35078C4.10084 21.4102 3.87582 21.4302 3.66365 21.4712C3.38478 21.5211 3.13002 21.5862 2.89535 21.6689C2.74426 21.726 2.60281 21.7823 2.46378 21.8522C2.02176 22.0635 1.6344 22.3336 1.29847 22.6623C1.24864 22.7081 1.22533 22.729 1.20765 22.7507C1.18917 22.7748 1.16184 22.8069 1.14014 22.8286C1.09192 22.8776 1.04933 22.9259 1.00593 22.9797C0.91753 23.0826 0.85404 23.1638 0.795373 23.2505C0.735098 23.3349 0.699736 23.3904 0.669197 23.4458C0.647498 23.4852 0.621781 23.523 0.593653 23.5583C0.55347 23.6307 0.533378 23.662 0.519716 23.6942C0.506857 23.7239 0.488373 23.7641 0.471496 23.793C0.432117 23.8621 0.396755 23.9361 0.366216 24.0068C0.359787 24.0229 0.354161 24.0397 0.347732 24.055C0.301119 24.1667 0.255311 24.2776 0.215931 24.3958C0.214324 24.3998 0.21352 24.403 0.212716 24.4054C0.20709 24.4351 0.199054 24.4649 0.191017 24.4938C0.0680569 24.8965 0.00537109 25.3184 0.00537109 25.7483C0.00537109 25.8986 0.0109969 26.0417 0.0246592 26.1855C0.0246592 26.1912 0.0246587 26.1968 0.0254624 26.2024V26.204Z" fill="white"/>
<path d="M3.37223 19.8915C3.37223 19.8915 3.37706 19.8915 3.37866 19.8915C3.38268 19.8915 3.3867 19.8899 3.39152 19.8891C3.6728 19.8336 3.99748 19.8039 4.3511 19.8039H26.1979C26.5427 19.8039 26.8577 19.8328 27.1615 19.8891H27.1655C27.1695 19.8891 27.1736 19.8907 27.1776 19.8915C27.1848 19.8931 27.192 19.8931 27.1993 19.8947C27.3463 19.9164 27.4966 19.9461 27.6485 19.9839V12.3853C27.6485 9.07819 26.3635 5.96962 24.032 3.63015C21.6837 1.28988 18.5751 0 15.2785 0C8.45782 0 2.90771 5.55654 2.90771 12.3853V19.9847C3.05318 19.9486 3.20587 19.9196 3.36018 19.8955C3.3642 19.8955 3.36741 19.8931 3.37143 19.8923L3.37223 19.8915ZM9.32819 9.36912C9.51142 8.80495 9.9896 8.4007 10.5779 8.31551L12.8989 7.97878L13.8914 5.90854C14.1542 5.37571 14.6854 5.0454 15.2793 5.0454C15.8732 5.0454 16.4036 5.37571 16.6673 5.90774C16.9309 6.43976 17.7048 8.01093 17.7048 8.01093L19.9808 8.31471C20.5674 8.3999 21.0464 8.80334 21.2297 9.36751C21.4137 9.93168 21.2634 10.5393 20.8391 10.9539L19.1594 12.5918L19.5733 14.8501C19.6738 15.4344 19.4383 16.0146 18.9577 16.3626C18.4779 16.7114 17.8543 16.7564 17.3279 16.4807L15.2528 15.3894L13.2316 16.4807C13.0033 16.6005 12.7558 16.66 12.5107 16.66C12.1916 16.66 11.8734 16.5595 11.6026 16.3626C11.122 16.0138 10.8865 15.4344 10.987 14.8493L11.3832 12.538L9.72118 10.9539C9.29684 10.5401 9.14576 9.93249 9.3298 9.36751L9.32819 9.36912Z" fill="white"/>
<path d="M1.70743 44.7102C3.3011 45.4456 4.99362 44.7086 5.66628 43.2941L11.1264 31.7109H4.5524L0.280927 40.7562C-0.414243 42.2414 0.225474 44.0158 1.70663 44.7094L1.70743 44.7102Z" fill="white"/>
<path d="M26.0007 31.7117H19.4268L24.8885 43.2974C25.5603 44.707 27.2424 45.4504 28.8505 44.7086C29.5658 44.3735 30.1091 43.7772 30.3775 43.0305C30.6467 42.2839 30.6081 41.4755 30.2706 40.7538L25.9999 31.7109L26.0007 31.7117Z" fill="white"/>
</svg>
