<svg width="40" height="40" viewBox="0 0 40 40" fill="none" xmlns="http://www.w3.org/2000/svg">
<path d="M7.80013 34.9714H11.2002C13.2268 34.9714 14.8669 33.3181 14.8669 31.2781C14.8669 30.1448 14.3335 29.1314 13.5202 28.4648C13.7335 28.0247 13.8669 27.5314 13.8669 26.9981C13.8669 25.1715 12.3735 23.6914 10.5601 23.6914H7.80013C7.05346 23.6914 6.4668 24.2914 6.4668 25.0247V33.6381C6.4668 34.3714 7.05346 34.9714 7.80013 34.9714ZM9.13346 26.3581H10.5601C10.9068 26.3581 11.2002 26.6515 11.2002 26.9981C11.2002 27.3581 10.9068 27.6381 10.5601 27.6381H9.13346V26.3581ZM9.13346 30.3048H11.2002C11.7468 30.3048 12.2002 30.7582 12.2002 31.2914C12.2002 31.8515 11.7602 32.3048 11.2002 32.3048H9.13346V30.3048Z" fill="white"/>
<path d="M36 18.6667H30.4267C30.5733 18.2533 30.6667 17.8 30.6667 17.3333V4C30.6667 1.79997 28.8667 0 26.6667 0H13.3333C11.1333 0 9.33333 1.79997 9.33333 4V17.3333C9.33333 17.8 9.42668 18.2533 9.57332 18.6667H4C1.79997 18.6667 0 20.4666 0 22.6667V36C0 38.1999 1.79997 40 4 40H17.3333C18.36 40 19.2933 39.6 20 38.96C20.7067 39.6 21.64 40 22.6667 40H36C38.2 40 40 38.1999 40 36V22.6667C40 20.4666 38.2 18.6667 36 18.6667ZM14.12 14.3333L18.8267 5.71997C19.2933 4.86663 20.7067 4.86663 21.1733 5.71997L25.88 14.3333C26.24 14.9733 26 15.7866 25.36 16.1333C25.1467 16.2533 24.9333 16.3066 24.72 16.3066C24.24 16.3066 23.7867 16.0533 23.5466 15.6133L22.48 13.6533H17.52L16.4534 15.6133C16.1067 16.2533 15.2933 16.4933 14.64 16.1333C14 15.7866 13.76 14.9733 14.12 14.3333ZM18.6667 36C18.6667 36.7333 18.0667 37.3333 17.3333 37.3333H4C3.26668 37.3333 2.66667 36.7333 2.66667 36V22.6667C2.66667 21.9333 3.26668 21.3333 4 21.3333H18.6667V36ZM37.3333 36C37.3333 36.7333 36.7333 37.3333 36 37.3333H22.6667C21.9333 37.3333 21.3333 36.7333 21.3333 36V21.3333H36C36.7333 21.3333 37.3333 21.9333 37.3333 22.6667V36Z" fill="white"/>
<path d="M20.0002 9.13281L18.9868 10.9862H21.0135L20.0002 9.13281Z" fill="white"/>
<path d="M29.9666 26.3581C30.7629 26.3581 31.5051 26.6667 32.0558 27.2266C32.5715 27.7513 33.4152 27.7578 33.9412 27.2422C34.466 26.7266 34.4732 25.8815 33.9569 25.3568C32.9009 24.2826 31.4836 23.6914 29.9666 23.6914C26.8566 23.6914 24.3267 26.2214 24.3267 29.332C24.3267 32.4427 26.8566 34.9727 29.9666 34.9727C31.4836 34.9727 32.9009 34.3815 33.9569 33.3073C34.4732 32.7826 34.466 31.9375 33.9412 31.4219C33.4172 30.9076 32.5728 30.9128 32.0558 31.4375C31.505 31.9974 30.7629 32.306 29.9666 32.306C28.3273 32.306 26.9933 30.9714 26.9933 29.332C26.9933 27.6927 28.3273 26.3581 29.9666 26.3581Z" fill="white"/>
</svg>
