<svg width="40" height="31" viewBox="0 0 40 31" fill="none" xmlns="http://www.w3.org/2000/svg">
<path d="M35.7139 29.5H25.7148C24.8979 29.5 24.1115 29.1961 23.5088 28.6504L23.3906 28.5381C22.7744 27.9219 22.4287 27.0853 22.4287 26.2139V11.3369C22.4341 8.72967 23.4718 6.23036 25.3154 4.38672C27.1593 2.54284 29.659 1.50604 32.2666 1.50098C32.6335 1.50126 32.9918 1.6096 33.2969 1.81348C33.564 1.99202 33.78 2.23592 33.9238 2.52148L33.9805 2.64648C34.1035 2.94345 34.1475 3.26651 34.1084 3.58398L34.0869 3.71973C34.0152 4.07981 33.8377 4.41027 33.5781 4.66992L33.5791 4.6709C31.6475 6.59014 30.52 9.17399 30.4287 11.8955L30.3945 12.9287H35.7139C36.5308 12.9287 37.3172 13.2325 37.9199 13.7783L38.0381 13.8906C38.6541 14.5067 38.9999 15.3426 39 16.2139V26.2139L38.9961 26.377C38.9585 27.135 38.6598 27.8573 38.1504 28.4199L38.0381 28.5381C37.4219 29.1543 36.5853 29.5 35.7139 29.5Z" fill="#D18109" stroke="white" stroke-width="2"/>
<path d="M14.2852 29.5H4.28613C3.46919 29.5 2.6828 29.1961 2.08008 28.6504L1.96191 28.5381C1.34573 27.9219 1 27.0853 1 26.2139V11.3369C1.00534 8.72967 2.04309 6.23036 3.88672 4.38672C5.7306 2.54284 8.23029 1.50604 10.8379 1.50098C11.1587 1.50123 11.4731 1.58393 11.751 1.74121L11.8682 1.81348C12.1353 1.99202 12.3513 2.23592 12.4951 2.52148L12.5518 2.64648C12.6748 2.94345 12.7188 3.26651 12.6797 3.58398L12.6582 3.71973C12.5865 4.07981 12.409 4.41027 12.1494 4.66992L12.1504 4.6709C10.2188 6.59014 9.09127 9.17399 9 11.8955L8.96582 12.9287H14.2852C15.1021 12.9287 15.8885 13.2325 16.4912 13.7783L16.6094 13.8906C17.2254 14.5067 17.5712 15.3426 17.5713 16.2139V26.2139L17.5674 26.377C17.5298 27.135 17.2311 27.8573 16.7217 28.4199L16.6094 28.5381C15.9932 29.1543 15.1566 29.5 14.2852 29.5Z" fill="#D18109" stroke="white" stroke-width="2"/>
</svg>
