<svg width="36" height="41" viewBox="0 0 36 41" fill="none" xmlns="http://www.w3.org/2000/svg">
<path d="M35.2698 19.9819H34.1933C33.7484 17.8721 31.6181 16.276 28.9488 16.1085C28.2181 14.1596 26.0014 12.7958 23.4274 12.7958C22.8559 12.8013 22.2872 12.8751 21.7332 13.0158C20.5642 12.0989 19.117 11.6089 17.6314 11.6271C16.6818 11.6025 15.7395 11.7977 14.8779 12.1975C14.0163 12.5972 13.2587 13.1908 12.6643 13.9317C9.75427 13.8723 7.25571 15.646 6.8436 17.9364C5.25229 18.0473 3.76929 18.7825 2.71763 19.9819H0.730171C0.634276 19.9819 0.539316 20.0008 0.450716 20.0375C0.362116 20.0741 0.281612 20.1279 0.213804 20.1957C0.145997 20.2635 0.0922138 20.344 0.0555284 20.4326C0.0188431 20.5212 -2.5879e-05 20.6162 2.66387e-08 20.7121V23.2406C0.00372752 26.1371 0.8677 28.9672 2.48232 31.3719C4.09693 33.7767 6.38943 35.6476 9.06899 36.7475V38.0978C9.06987 38.8349 9.36312 39.5416 9.88439 40.0628C10.4057 40.584 11.1124 40.8772 11.8495 40.878H24.1505C24.8876 40.8772 25.5943 40.584 26.1156 40.0628C26.6369 39.5416 26.9301 38.8349 26.931 38.0978V36.7475C29.6106 35.6477 31.9031 33.7767 33.5177 31.372C35.1323 28.9672 35.9963 26.1371 36 23.2406V20.7121C36 20.6162 35.9812 20.5212 35.9445 20.4326C35.9078 20.344 35.854 20.2635 35.7862 20.1957C35.7184 20.1279 35.6379 20.0741 35.5493 20.0375C35.4607 20.0008 35.3657 19.9819 35.2698 19.9819ZM7.48514 19.3616C7.58242 19.3648 7.67934 19.3483 7.77012 19.3132C7.86089 19.2781 7.94366 19.225 8.01346 19.1572C8.08327 19.0894 8.13868 19.0082 8.17639 18.9184C8.2141 18.8287 8.23333 18.7323 8.23294 18.6349C8.18959 16.7024 10.5998 15.1817 13.0097 15.4032C13.1409 15.4065 13.2708 15.3749 13.3859 15.3117C13.501 15.2484 13.5973 15.1558 13.665 15.0433C14.1056 14.4073 14.701 13.8941 15.3949 13.5519C16.0889 13.2097 16.8585 13.0498 17.6313 13.0874C18.8827 13.0583 20.0987 13.5044 21.0344 14.3359C21.1334 14.4165 21.2489 14.4745 21.3728 14.5056C22.0532 14.5345 22.7116 14.1898 23.4274 14.2562C25.644 14.2612 27.3976 15.4885 27.7607 17.1475C27.823 17.2711 27.9191 17.3746 28.0378 17.4459C28.1565 17.5172 28.2929 17.5534 28.4314 17.5504C30.4342 17.5277 32.1908 18.5755 32.6797 19.9819H4.9802C5.75085 19.5707 6.61165 19.3575 7.48514 19.3616ZM25.4707 38.0978C25.4703 38.4478 25.3311 38.7833 25.0836 39.0308C24.836 39.2782 24.5005 39.4174 24.1505 39.4177H11.8495C11.4996 39.4174 11.164 39.2782 10.9165 39.0308C10.6689 38.7833 10.5297 38.4478 10.5293 38.0978V37.2543C11.8525 37.6431 13.2242 37.8417 14.6033 37.844H21.3966C22.7757 37.8417 24.1475 37.6431 25.4707 37.2543V38.0978ZM34.5397 23.2406C34.5357 26.7251 33.1497 30.0658 30.6858 32.5297C28.2218 34.9937 24.8812 36.3796 21.3966 36.3836H14.6034C6.52153 36.3816 0.725358 29.3442 1.46052 21.4422C1.4795 21.445 3.04746 21.437 3.06431 21.4452C3.07403 21.4358 33.5239 21.4459 33.5395 21.4423C33.5546 21.4464 33.5705 21.4464 33.5855 21.4423H34.5397L34.5397 23.2406Z" fill="white"/>
<path d="M11.9576 8.33998C11.8421 8.49232 11.7908 8.6839 11.815 8.87359C11.8391 9.06328 11.9366 9.23594 12.0867 9.3545C12.2367 9.47305 12.4272 9.52805 12.6174 9.50767C12.8075 9.4873 12.982 9.39318 13.1035 9.24552C13.6539 8.55151 13.9394 7.68431 13.9088 6.79909C13.8783 5.91387 13.5339 5.06838 12.937 4.4139C12.5376 3.9764 12.3253 3.39997 12.3454 2.80791C12.3655 2.21585 12.6165 1.65517 13.0447 1.24579C13.1796 1.11034 13.2561 0.927382 13.2576 0.736195C13.2591 0.545009 13.1856 0.360845 13.0529 0.223251C12.9201 0.0856566 12.7387 0.00560397 12.5476 0.000283187C12.3565 -0.0050376 12.1709 0.0647979 12.0307 0.194793C11.3276 0.867781 10.9159 1.78934 10.8839 2.76211C10.8518 3.73488 11.2019 4.68153 11.8593 5.39934C12.2218 5.79814 12.4308 6.31288 12.4488 6.85158C12.4669 7.39028 12.2928 7.91783 11.9576 8.33998Z" fill="white"/>
<path d="M17.5697 8.33982C17.4541 8.49216 17.4029 8.68376 17.427 8.87348C17.4511 9.06319 17.5486 9.23588 17.6987 9.35445C17.8487 9.47303 18.0393 9.52802 18.2294 9.50762C18.4196 9.48722 18.5942 9.39306 18.7156 9.24536C19.2663 8.55149 19.552 7.68427 19.5215 6.79898C19.4911 5.91369 19.1465 5.06814 18.5495 4.41374C18.15 3.97629 17.9376 3.39988 17.9576 2.80782C17.9777 2.21576 18.2287 1.65505 18.6568 1.24564C18.7918 1.11029 18.8683 0.927401 18.8699 0.73626C18.8715 0.545118 18.7981 0.360967 18.6654 0.223358C18.5328 0.0857495 18.3514 0.0056591 18.1604 0.000288546C17.9693 -0.00508201 17.7837 0.0646959 17.6435 0.194635C16.9402 0.867484 16.5284 1.789 16.4962 2.7618C16.464 3.7346 16.814 4.68132 17.4714 5.39918C17.8341 5.79791 18.0432 6.31267 18.0612 6.85141C18.0792 7.39016 17.905 7.91775 17.5697 8.33982Z" fill="white"/>
<path d="M23.1814 8.33982C23.0658 8.49216 23.0145 8.68376 23.0386 8.87348C23.0627 9.06319 23.1603 9.23588 23.3103 9.35445C23.4604 9.47303 23.6509 9.52802 23.8411 9.50762C24.0312 9.48722 24.2058 9.39306 24.3273 9.24536C24.8777 8.55138 25.1632 7.68417 25.1327 6.79893C25.1022 5.91368 24.7577 5.06818 24.1608 4.41374C23.7613 3.97629 23.5489 3.39988 23.569 2.80782C23.589 2.21576 23.84 1.65505 24.2681 1.24564C24.4031 1.11029 24.4796 0.927401 24.4812 0.73626C24.4828 0.545118 24.4094 0.360967 24.2768 0.223358C24.1441 0.0857495 23.9628 0.0056591 23.7717 0.000288546C23.5806 -0.00508201 23.395 0.0646959 23.2549 0.194635C22.5515 0.867485 22.1397 1.789 22.1075 2.7618C22.0753 3.7346 22.4254 4.68132 23.0827 5.39918C23.4454 5.79791 23.6545 6.31264 23.6726 6.85136C23.6906 7.39008 23.5165 7.91767 23.1814 8.33982Z" fill="white"/>
</svg>
