<svg width="32" height="44" viewBox="0 0 32 44" fill="none" xmlns="http://www.w3.org/2000/svg">
<path d="M4.54042 43.2627H27.4617C29.9645 43.2627 32 41.2265 32 38.7245V17.0131C32 13.9198 30.8189 11.0197 28.6854 8.80108V2.41694C28.6854 1.08445 27.6052 0 26.2771 0H22.2378C20.9053 0 19.8208 1.08373 19.8208 2.41694V5.13024H12.1792V2.41694C12.1792 1.08445 11.0947 0 9.76224 0H5.72294C4.39477 0 3.31465 1.08373 3.31465 2.41694V8.80036C1.18107 11.0205 0 13.9205 0 17.0131V38.7245C0 41.2272 2.03551 43.2627 4.53826 43.2627H4.54042ZM21.2644 2.41694C21.2644 1.87977 21.7013 1.44209 22.2392 1.44209H26.2785C26.8114 1.44209 27.2447 1.87904 27.2447 2.41694V7.5032C27.138 7.42244 27.0262 7.35034 26.9166 7.27391C26.8395 7.21983 26.7645 7.16503 26.6866 7.11239C26.4198 6.93502 26.1487 6.76629 25.869 6.61199C25.8019 6.57449 25.7327 6.54349 25.6649 6.50744C25.45 6.39423 25.233 6.28607 25.0116 6.18657C24.8898 6.13177 24.7665 6.07986 24.6432 6.02938C24.468 5.95728 24.2906 5.89022 24.1118 5.82677C23.9798 5.7799 23.8486 5.73087 23.7152 5.68905C23.4383 5.6018 23.1593 5.52321 22.8759 5.45615C22.7475 5.42587 22.617 5.40424 22.4872 5.37828C22.294 5.33934 22.1008 5.30329 21.9054 5.27445C21.7777 5.2557 21.6501 5.23984 21.5218 5.22542C21.4367 5.21532 21.3523 5.2009 21.2665 5.19297V2.41767L21.2644 2.41694ZM4.7589 2.41694C4.7589 1.87977 5.19225 1.44209 5.7251 1.44209H9.7644C10.3016 1.44209 10.7393 1.87904 10.7393 2.41694V5.19225C10.6527 5.20018 10.5676 5.21532 10.4818 5.22542C10.3787 5.23767 10.2756 5.25065 10.1732 5.26507C9.91221 5.30257 9.65336 5.34799 9.39594 5.40279C9.32745 5.41721 9.2575 5.42803 9.18972 5.44389C8.87174 5.51672 8.55881 5.60397 8.24948 5.70275C8.16873 5.72871 8.09013 5.75827 8.01009 5.78567C7.77431 5.86643 7.54142 5.95439 7.3114 6.05029C7.21767 6.08923 7.12465 6.12817 7.03236 6.16927C6.77855 6.28247 6.52907 6.40433 6.28391 6.53556C6.23921 6.56007 6.19234 6.58098 6.14763 6.6055C5.86354 6.76196 5.5881 6.93285 5.31699 7.11311C5.23912 7.16503 5.16413 7.21983 5.0877 7.27319C4.9781 7.34962 4.86634 7.42244 4.7589 7.5032V2.41694ZM1.44425 17.0131C1.44425 14.2024 2.54529 11.5677 4.54619 9.59135C6.39856 7.74763 8.86309 6.68121 11.5425 6.58459C11.6377 6.57377 11.7329 6.57233 11.828 6.57233H20.1085C20.2239 6.57233 20.3414 6.57089 20.5174 6.58891C21.1728 6.61199 21.8181 6.69563 22.4469 6.83767C24.3331 7.26309 26.0665 8.2091 27.4574 9.59351C29.4562 11.5677 30.5579 14.2032 30.5579 17.0138V38.7252C30.5579 40.4326 29.1692 41.8214 27.4617 41.8214H4.54042C2.83299 41.8214 1.44425 40.4326 1.44425 38.7252V17.0131Z" fill="white"/>
<path d="M6.01178 39.657H25.9941C27.2459 39.657 28.2647 38.6381 28.2647 37.3864V27.1807C28.2647 25.929 27.2459 24.9102 25.9941 24.9102H6.01178C4.76005 24.9102 3.74121 25.929 3.74121 27.1807V37.3864C3.74121 38.6381 4.76005 39.657 6.01178 39.657ZM5.1833 27.1807C5.1833 26.7243 5.55536 26.3522 6.01178 26.3522H25.9941C26.4513 26.3522 26.8226 26.7243 26.8226 27.1807V37.3864C26.8226 37.8428 26.4505 38.2149 25.9941 38.2149H6.01178C5.55464 38.2149 5.1833 37.8428 5.1833 37.3864V27.1807Z" fill="white"/>
<path d="M7.1644 30.446H7.8393V31.4461C7.8393 31.8441 8.16161 32.1671 8.56035 32.1671C8.95909 32.1671 9.28139 31.8441 9.28139 31.4461V30.446H24.8416C25.2403 30.446 25.5626 30.123 25.5626 29.725C25.5626 29.3269 25.2403 29.0039 24.8416 29.0039H7.1644C6.76567 29.0039 6.44336 29.3269 6.44336 29.725C6.44336 30.123 6.76567 30.446 7.1644 30.446Z" fill="white"/>
<path d="M15.4913 21.722C15.6319 21.8626 15.8165 21.9332 16.0011 21.9332C16.1857 21.9332 16.3702 21.8626 16.5108 21.722L20.9676 17.2652C21.1032 17.1296 21.1789 16.9465 21.1789 16.7554C21.1789 16.5643 21.1032 16.3805 20.9676 16.2456L16.5108 11.7896C16.2289 11.5076 15.7732 11.5076 15.4913 11.7896L11.0345 16.2456C10.899 16.3812 10.8232 16.5643 10.8232 16.7554C10.8232 16.9465 10.899 17.1304 11.0345 17.2652L15.4913 21.722ZM16.0011 13.3189L19.4383 16.7554L16.0011 20.1926L12.5638 16.7554L16.0011 13.3189Z" fill="white"/>
</svg>
