<svg width="40" height="40" viewBox="0 0 40 40" fill="none" xmlns="http://www.w3.org/2000/svg">
<path d="M18.8595 23.4871H2.41771C1.98537 23.4871 1.63477 23.1365 1.63477 22.7041V8.61107C1.63477 8.17873 1.98537 7.82812 2.41771 7.82812H18.8595C19.2919 7.82812 19.6425 8.17873 19.6425 8.61107V22.7041C19.6425 23.1365 19.2919 23.4871 18.8595 23.4871ZM3.20065 21.9212H18.0766V9.39402H3.20065V21.9212Z" fill="white"/>
<path d="M20.4261 9.39536H0.782957C0.450206 9.39536 0.153784 9.18506 0.0439372 8.87094C-0.0659097 8.55682 0.0347768 8.20763 0.294949 8.00023L10.1166 0.170761C10.402 -0.0569202 10.8071 -0.0569202 11.0927 0.170761L20.9142 8.00023C21.1744 8.20763 21.2751 8.55682 21.1652 8.87094C21.0553 9.18506 20.7589 9.39536 20.4261 9.39536ZM3.02116 7.82947H18.188L10.6047 1.78418L3.02116 7.82947Z" fill="white"/>
<path d="M7.11686 39.9307H3.98509C3.55275 39.9307 3.20215 39.5801 3.20215 39.1477V25.8376C3.20215 25.4053 3.55275 25.0547 3.98509 25.0547H7.11686C7.54921 25.0547 7.89981 25.4053 7.89981 25.8376V39.1477C7.89981 39.5801 7.54928 39.9307 7.11686 39.9307ZM4.76803 38.3648H6.33392V26.6206H4.76803V38.3648Z" fill="white"/>
<path d="M17.2936 39.9307H14.1618C13.7295 39.9307 13.3789 39.5801 13.3789 39.1477V25.8376C13.3789 25.4053 13.7295 25.0547 14.1618 25.0547H17.2936C17.726 25.0547 18.0766 25.4053 18.0766 25.8376V39.1477C18.0766 39.5801 17.726 39.9307 17.2936 39.9307ZM14.9448 38.3648H16.5107V26.6206H14.9448V38.3648Z" fill="white"/>
<path d="M19.4863 26.6196H1.63522C0.727869 26.6196 0.0693359 25.8952 0.0693359 24.8971V23.6444C0.0693359 22.6463 0.727869 21.9219 1.63522 21.9219H19.4863C20.4361 21.9219 21.2088 22.6946 21.2088 23.6444V24.8971C21.2088 25.8469 20.4361 26.6196 19.4863 26.6196ZM1.65714 25.0537H19.4864C19.5713 25.0537 19.643 24.9819 19.643 24.8971V23.6444C19.643 23.5595 19.5713 23.4878 19.4864 23.4878H1.65714C1.64673 23.5181 1.6353 23.5701 1.6353 23.6444V24.8971C1.63522 24.9713 1.64673 25.0234 1.65714 25.0537Z" fill="white"/>
<path d="M14.1634 29.7534H7.11693C6.68459 29.7534 6.33398 29.4029 6.33398 28.9704C6.33398 28.5381 6.68459 28.1875 7.11693 28.1875H14.1634C14.5958 28.1875 14.9464 28.5381 14.9464 28.9704C14.9464 29.4029 14.5958 29.7534 14.1634 29.7534Z" fill="white"/>
<path d="M14.1634 32.8823H7.11693C6.68459 32.8823 6.33398 32.5318 6.33398 32.0994C6.33398 31.667 6.68459 31.3164 7.11693 31.3164H14.1634C14.5958 31.3164 14.9464 31.667 14.9464 32.0994C14.9464 32.5318 14.5958 32.8823 14.1634 32.8823Z" fill="white"/>
<path d="M14.1634 36.0151H7.11693C6.68459 36.0151 6.33398 35.6646 6.33398 35.2322C6.33398 34.7998 6.68459 34.4492 7.11693 34.4492H14.1634C14.5958 34.4492 14.9464 34.7998 14.9464 35.2322C14.9464 35.6646 14.5958 36.0151 14.1634 36.0151Z" fill="white"/>
<path d="M14.1634 23.4903H7.11693C6.68459 23.4903 6.33398 23.1398 6.33398 22.7073V16.0523C6.33398 13.6779 8.26574 11.7461 10.6402 11.7461C13.0146 11.7461 14.9464 13.6779 14.9464 16.0523V22.7073C14.9464 23.1398 14.5958 23.4903 14.1634 23.4903ZM7.89987 21.9244H13.3805V16.0523C13.3805 14.5413 12.1513 13.312 10.6402 13.312C9.12917 13.312 7.89987 14.5413 7.89987 16.0523V21.9244Z" fill="white"/>
<path d="M39.2167 39.9303H33.3831C32.4023 39.9303 31.4906 39.4012 31.0039 38.5495C30.989 38.5232 31.3564 39.2206 23.0849 23.4884H18.8601C18.4278 23.4884 18.0771 23.1379 18.0771 22.7055V18.7908C18.0771 18.3583 18.4278 18.0078 18.8601 18.0078H24.6937C25.6746 18.0078 26.5863 18.5369 27.0729 19.3886C27.0879 19.4149 26.7204 18.7175 34.9919 34.4497H39.2167C39.649 34.4497 39.9996 34.8003 39.9996 35.2326V39.1474C39.9996 39.5798 39.6491 39.9303 39.2167 39.9303ZM32.3696 37.7831C32.5796 38.142 32.9668 38.3644 33.3831 38.3644H38.4337V36.0156H34.519C34.2282 36.0156 33.9613 35.8544 33.826 35.5969L25.7075 20.1552C25.4974 19.7962 25.1102 19.5737 24.6938 19.5737H19.6431V21.9225H23.5578C23.8486 21.9225 24.1155 22.0838 24.2509 22.3412L32.3696 37.7831Z" fill="white"/>
</svg>
