<svg width="40" height="42" viewBox="0 0 40 42" fill="none" xmlns="http://www.w3.org/2000/svg">
<path d="M15.2116 17.4115L15.9753 38.0191C16.0164 39.0589 16.4583 40.0425 17.2086 40.7636C17.9588 41.4848 18.9591 41.8876 19.9997 41.8876C21.0404 41.8876 22.0407 41.4848 22.7909 40.7636C23.5411 40.0425 23.9831 39.0589 24.0242 38.0191L24.799 17.4031C26.5594 16.3524 27.9262 14.753 28.6897 12.8505C29.4533 10.9479 29.5713 8.84735 29.0257 6.87124C28.4801 4.89514 27.301 3.15271 25.6694 1.91144C24.0378 0.670165 22.044 -0.0013413 19.9939 2.0115e-06C17.9438 0.00134532 15.9509 0.675463 14.3209 1.91887C12.691 3.16228 11.5142 4.90625 10.9712 6.88307C10.4281 8.85989 10.5489 10.9603 11.3149 12.8618C12.081 14.7634 13.4499 16.361 15.2116 17.4094V17.4115ZM22.6296 37.9688C22.6047 38.6497 22.3168 39.2944 21.8263 39.7673C21.3359 40.2403 20.6811 40.5045 19.9997 40.5045C19.3184 40.5045 18.6636 40.2403 18.1731 39.7673C17.6827 39.2944 17.3947 38.6497 17.3699 37.9688L16.6342 18.1074C18.8016 18.9567 21.2101 18.9552 23.3764 18.1032L22.6296 37.9688ZM20.0001 17.3473C18.0086 17.3444 16.0902 16.5965 14.6223 15.2506C13.1543 13.9048 12.2431 12.0584 12.0677 10.0746H27.9325C27.7571 12.0584 26.8458 13.9048 25.3779 15.2506C23.91 16.5965 21.9916 17.3444 20.0001 17.3473ZM20.0001 1.41223C21.9905 1.41516 23.9079 2.16229 25.3755 3.50681C26.8431 4.85134 27.7549 6.69608 27.9318 8.6786H12.0684C12.2452 6.69608 13.157 4.85134 14.6247 3.50681C16.0923 2.16229 18.0097 1.41516 20.0001 1.41223Z" fill="white"/>
<path d="M17.7305 22.5264V26.0165C17.7305 26.6181 17.9695 27.1951 18.3949 27.6206C18.8204 28.046 19.3974 28.285 19.9991 28.285C20.6007 28.285 21.1777 28.046 21.6032 27.6206C22.0286 27.1951 22.2676 26.6181 22.2676 26.0165V22.5264C22.2676 21.9247 22.0286 21.3477 21.6032 20.9223C21.1777 20.4968 20.6007 20.2578 19.9991 20.2578C19.3974 20.2578 18.8204 20.4968 18.3949 20.9223C17.9695 21.3477 17.7305 21.9247 17.7305 22.5264ZM20.8716 22.5264V26.0165C20.8716 26.2479 20.7797 26.4698 20.616 26.6334C20.4524 26.7971 20.2305 26.889 19.9991 26.889C19.7676 26.889 19.5457 26.7971 19.3821 26.6334C19.2184 26.4698 19.1265 26.2479 19.1265 26.0165V22.5264C19.1265 22.295 19.2184 22.073 19.3821 21.9094C19.5457 21.7458 19.7676 21.6538 19.9991 21.6538C20.2305 21.6538 20.4524 21.7458 20.616 21.9094C20.7797 22.073 20.8716 22.295 20.8716 22.5264Z" fill="white"/>
<path d="M29.4161 24.2532C29.5475 24.3835 29.7253 24.4563 29.9104 24.4555C30.0955 24.4547 30.2727 24.3804 30.4031 24.249C31.2752 23.376 31.7651 22.1925 31.7651 20.9585C31.7651 19.7246 31.2752 18.5411 30.4031 17.6681C30.339 17.6012 30.2622 17.5478 30.1772 17.5109C30.0922 17.474 30.0007 17.4544 29.908 17.4532C29.8154 17.452 29.7234 17.4693 29.6375 17.504C29.5516 17.5388 29.4735 17.5902 29.4077 17.6555C29.3419 17.7207 29.2898 17.7984 29.2543 17.884C29.2189 17.9696 29.2008 18.0614 29.2012 18.1541C29.2016 18.2467 29.2204 18.3384 29.2566 18.4237C29.2927 18.509 29.3455 18.5862 29.4119 18.6509C29.7152 18.9538 29.9559 19.3135 30.12 19.7095C30.2842 20.1054 30.3687 20.5299 30.3687 20.9585C30.3687 21.3872 30.2842 21.8117 30.12 22.2076C29.9559 22.6036 29.7152 22.9633 29.4119 23.2662C29.2816 23.3976 29.2088 23.5755 29.2096 23.7606C29.2104 23.9456 29.2847 24.1228 29.4161 24.2532Z" fill="white"/>
<path d="M32.4299 26.686C32.5608 26.8168 32.7383 26.8904 32.9234 26.8904C33.1085 26.8904 33.286 26.8168 33.4169 26.686C34.1697 25.934 34.767 25.041 35.1745 24.058C35.5819 23.0751 35.7917 22.0214 35.7917 20.9574C35.7917 19.8933 35.5819 18.8396 35.1745 17.8567C34.767 16.8737 34.1697 15.9807 33.4169 15.2287C33.3525 15.1621 33.2755 15.1089 33.1903 15.0723C33.1052 15.0357 33.0136 15.0165 32.9209 15.0157C32.8282 15.0148 32.7363 15.0325 32.6505 15.0676C32.5647 15.1027 32.4868 15.1545 32.4212 15.2201C32.3557 15.2856 32.3039 15.3635 32.2688 15.4493C32.2337 15.5351 32.216 15.627 32.2168 15.7197C32.2176 15.8124 32.2369 15.904 32.2735 15.9891C32.31 16.0743 32.3632 16.1513 32.4299 16.2157C33.0531 16.8381 33.5476 17.5772 33.8849 18.3908C34.2223 19.2044 34.3959 20.0766 34.3959 20.9574C34.3959 21.8381 34.2223 22.7103 33.8849 23.5239C33.5476 24.3375 33.0531 25.0766 32.4299 25.699C32.299 25.8299 32.2255 26.0074 32.2255 26.1925C32.2255 26.3776 32.299 26.5551 32.4299 26.686Z" fill="white"/>
<path d="M35.903 29.8696C36.0881 29.8695 36.2656 29.796 36.3965 29.665C38.7041 27.3541 40.0002 24.2217 40.0002 20.9559C40.0002 17.69 38.7041 14.5577 36.3965 12.2467C36.2648 12.1196 36.0885 12.0492 35.9055 12.0508C35.7224 12.0524 35.5474 12.1258 35.418 12.2552C35.2885 12.3846 35.2151 12.5597 35.2135 12.7427C35.2119 12.9258 35.2823 13.1021 35.4095 13.2337C37.4552 15.283 38.6042 18.0603 38.6042 20.9559C38.6042 23.8515 37.4552 26.6288 35.4095 28.6781C35.3119 28.7757 35.2454 28.9 35.2185 29.0354C35.1916 29.1708 35.2054 29.3111 35.2582 29.4386C35.311 29.5662 35.4005 29.6752 35.5152 29.7519C35.63 29.8286 35.7649 29.8695 35.903 29.8696Z" fill="white"/>
<path d="M10.5853 17.6632C10.4539 17.5329 10.276 17.4602 10.091 17.4609C9.90586 17.4617 9.72866 17.536 9.59832 17.6674C8.7262 18.5404 8.23633 19.7239 8.23633 20.9579C8.23633 22.1918 8.7262 23.3753 9.59832 24.2483C9.66244 24.3152 9.73923 24.3687 9.82422 24.4056C9.90922 24.4424 10.0007 24.4621 10.0934 24.4632C10.186 24.4644 10.278 24.4471 10.3639 24.4124C10.4498 24.3777 10.5279 24.3262 10.5937 24.2609C10.6595 24.1957 10.7116 24.118 10.7471 24.0324C10.7825 23.9468 10.8006 23.855 10.8002 23.7623C10.7998 23.6697 10.781 23.578 10.7448 23.4927C10.7086 23.4074 10.6559 23.3302 10.5895 23.2655C10.2862 22.9626 10.0455 22.6029 9.88136 22.2069C9.71717 21.811 9.63266 21.3865 9.63266 20.9579C9.63266 20.5292 9.71717 20.1048 9.88136 19.7088C10.0455 19.3128 10.2862 18.9531 10.5895 18.6502C10.7198 18.5188 10.7926 18.3409 10.7918 18.1559C10.791 17.9708 10.7167 17.7936 10.5853 17.6632Z" fill="white"/>
<path d="M7.56979 15.2278C7.43889 15.0969 7.26138 15.0234 7.07629 15.0234C6.8912 15.0234 6.71368 15.0969 6.58278 15.2278C5.82994 15.9798 5.23271 16.8728 4.82523 17.8558C4.41774 18.8387 4.20801 19.8924 4.20801 20.9564C4.20801 22.0205 4.41774 23.0741 4.82523 24.0571C5.23271 25.0401 5.82994 25.9331 6.58278 26.6851C6.64717 26.7517 6.7242 26.8049 6.80936 26.8415C6.89452 26.8781 6.98612 26.8973 7.0788 26.8981C7.17148 26.8989 7.2634 26.8813 7.34918 26.8462C7.43497 26.8111 7.5129 26.7593 7.57844 26.6937C7.64398 26.6282 7.69581 26.5502 7.73091 26.4645C7.76601 26.3787 7.78367 26.2868 7.78286 26.1941C7.78206 26.1014 7.7628 26.0098 7.72622 25.9246C7.68964 25.8395 7.63646 25.7625 7.56979 25.6981C6.94654 25.0757 6.4521 24.3366 6.11475 23.523C5.7774 22.7094 5.60376 21.8372 5.60376 20.9564C5.60376 20.0757 5.7774 19.2035 6.11475 18.3899C6.4521 17.5763 6.94654 16.8372 7.56979 16.2148C7.70065 16.0839 7.77416 15.9064 7.77416 15.7213C7.77416 15.5362 7.70065 15.3587 7.56979 15.2278Z" fill="white"/>
<path d="M3.60379 29.6651C3.73544 29.7922 3.91176 29.8626 4.09478 29.861C4.2778 29.8594 4.45288 29.786 4.58229 29.6565C4.71171 29.5271 4.78513 29.3521 4.78672 29.169C4.78831 28.986 4.71795 28.8097 4.5908 28.6781C2.54504 26.6288 1.39604 23.8515 1.39604 20.9559C1.39604 18.0603 2.54504 15.283 4.5908 13.2337C4.71795 13.1021 4.78831 12.9258 4.78672 12.7427C4.78513 12.5597 4.71171 12.3846 4.58229 12.2552C4.45288 12.1258 4.2778 12.0524 4.09478 12.0508C3.91176 12.0492 3.73544 12.1196 3.60379 12.2467C1.29614 14.5577 0 17.69 0 20.9559C0 24.2217 1.29614 27.3541 3.60379 29.6651Z" fill="white"/>
</svg>
