<svg width="20" height="20" viewBox="0 0 20 20" fill="none" xmlns="http://www.w3.org/2000/svg">
<path d="M0.585936 13.1797C0.262343 13.1797 0 13.442 0 13.7656V19.414C0 19.7376 0.262343 20 0.585936 20H2.59374V13.1797H0.585936Z" fill="#D18109"/>
<path d="M19.4141 13.1797H17.4062V20H19.4141C19.7376 20 20 19.7376 20 19.414V13.7656C20 13.442 19.7376 13.1797 19.4141 13.1797Z" fill="#D18109"/>
<path d="M17.1435 6.95615L10.5834 3.97421V1.79945H12.5078C12.8314 1.79945 13.0938 1.5371 13.0938 1.21351V0.585936C13.0938 0.262343 12.8314 0 12.5078 0H9.99746C9.67387 0 9.41153 0.262343 9.41153 0.585936V3.97421L2.85143 6.95615C2.55682 7.09006 2.42655 7.4374 2.5605 7.73201C2.6944 8.02662 3.04182 8.15681 3.33635 8.02294L3.76315 7.82892V19.414C3.76315 19.7376 4.02549 19.9999 4.34908 19.9999H7.52876V15.6484C7.52876 15.3248 7.7911 15.0625 8.1147 15.0625H11.8802C12.2038 15.0625 12.4662 15.3248 12.4662 15.6484V19.9999H15.6458C15.9694 19.9999 16.2318 19.7376 16.2318 19.414V7.82896L16.6586 8.02298C16.7372 8.05873 16.8196 8.07568 16.9007 8.07568C17.1234 8.07568 17.3363 7.94798 17.4344 7.73205C17.5684 7.4374 17.4381 7.09006 17.1435 6.95615ZM9.99746 12.5133C8.63618 12.5133 7.52876 11.4058 7.52876 10.0446C7.52876 8.68333 8.63622 7.57591 9.99746 7.57591C11.3587 7.57591 12.4662 8.68333 12.4662 10.0446C12.4662 11.4058 11.3587 12.5133 9.99746 12.5133Z" fill="#D18109"/>
</svg>
