<svg width="441" height="4" viewBox="0 0 441 4" fill="none" xmlns="http://www.w3.org/2000/svg">
<path d="M0.945312 1.84375C0.945312 1.48958 1.07031 1.19271 1.32031 0.953125C1.57552 0.713542 1.90625 0.59375 2.3125 0.59375C2.72396 0.59375 3.05208 0.713542 3.29688 0.953125C3.54688 1.19271 3.67188 1.48958 3.67188 1.84375C3.67188 2.19271 3.54688 2.48698 3.29688 2.72656C3.05208 2.96615 2.72396 3.08594 2.3125 3.08594C1.90625 3.08594 1.57552 2.96615 1.32031 2.72656C1.07031 2.48698 0.945312 2.19271 0.945312 1.84375ZM8.89531 1.84375C8.89531 1.48958 9.02031 1.19271 9.27031 0.953125C9.52552 0.713542 9.85625 0.59375 10.2625 0.59375C10.674 0.59375 11.0021 0.713542 11.2469 0.953125C11.4969 1.19271 11.6219 1.48958 11.6219 1.84375C11.6219 2.19271 11.4969 2.48698 11.2469 2.72656C11.0021 2.96615 10.674 3.08594 10.2625 3.08594C9.85625 3.08594 9.52552 2.96615 9.27031 2.72656C9.02031 2.48698 8.89531 2.19271 8.89531 1.84375ZM16.8453 1.84375C16.8453 1.48958 16.9703 1.19271 17.2203 0.953125C17.4755 0.713542 17.8062 0.59375 18.2125 0.59375C18.624 0.59375 18.9521 0.713542 19.1969 0.953125C19.4469 1.19271 19.5719 1.48958 19.5719 1.84375C19.5719 2.19271 19.4469 2.48698 19.1969 2.72656C18.9521 2.96615 18.624 3.08594 18.2125 3.08594C17.8062 3.08594 17.4755 2.96615 17.2203 2.72656C16.9703 2.48698 16.8453 2.19271 16.8453 1.84375ZM24.7953 1.84375C24.7953 1.48958 24.9203 1.19271 25.1703 0.953125C25.4255 0.713542 25.7563 0.59375 26.1625 0.59375C26.574 0.59375 26.9021 0.713542 27.1469 0.953125C27.3969 1.19271 27.5219 1.48958 27.5219 1.84375C27.5219 2.19271 27.3969 2.48698 27.1469 2.72656C26.9021 2.96615 26.574 3.08594 26.1625 3.08594C25.7563 3.08594 25.4255 2.96615 25.1703 2.72656C24.9203 2.48698 24.7953 2.19271 24.7953 1.84375ZM32.7453 1.84375C32.7453 1.48958 32.8703 1.19271 33.1203 0.953125C33.3755 0.713542 33.7062 0.59375 34.1125 0.59375C34.524 0.59375 34.8521 0.713542 35.0969 0.953125C35.3469 1.19271 35.4719 1.48958 35.4719 1.84375C35.4719 2.19271 35.3469 2.48698 35.0969 2.72656C34.8521 2.96615 34.524 3.08594 34.1125 3.08594C33.7062 3.08594 33.3755 2.96615 33.1203 2.72656C32.8703 2.48698 32.7453 2.19271 32.7453 1.84375ZM40.6953 1.84375C40.6953 1.48958 40.8203 1.19271 41.0703 0.953125C41.3255 0.713542 41.6562 0.59375 42.0625 0.59375C42.474 0.59375 42.8021 0.713542 43.0469 0.953125C43.2969 1.19271 43.4219 1.48958 43.4219 1.84375C43.4219 2.19271 43.2969 2.48698 43.0469 2.72656C42.8021 2.96615 42.474 3.08594 42.0625 3.08594C41.6562 3.08594 41.3255 2.96615 41.0703 2.72656C40.8203 2.48698 40.6953 2.19271 40.6953 1.84375ZM48.6453 1.84375C48.6453 1.48958 48.7703 1.19271 49.0203 0.953125C49.2755 0.713542 49.6063 0.59375 50.0125 0.59375C50.424 0.59375 50.7521 0.713542 50.9969 0.953125C51.2469 1.19271 51.3719 1.48958 51.3719 1.84375C51.3719 2.19271 51.2469 2.48698 50.9969 2.72656C50.7521 2.96615 50.424 3.08594 50.0125 3.08594C49.6063 3.08594 49.2755 2.96615 49.0203 2.72656C48.7703 2.48698 48.6453 2.19271 48.6453 1.84375ZM56.5953 1.84375C56.5953 1.48958 56.7203 1.19271 56.9703 0.953125C57.2255 0.713542 57.5563 0.59375 57.9625 0.59375C58.374 0.59375 58.7021 0.713542 58.9469 0.953125C59.1969 1.19271 59.3219 1.48958 59.3219 1.84375C59.3219 2.19271 59.1969 2.48698 58.9469 2.72656C58.7021 2.96615 58.374 3.08594 57.9625 3.08594C57.5563 3.08594 57.2255 2.96615 56.9703 2.72656C56.7203 2.48698 56.5953 2.19271 56.5953 1.84375ZM64.5453 1.84375C64.5453 1.48958 64.6703 1.19271 64.9203 0.953125C65.1755 0.713542 65.5062 0.59375 65.9125 0.59375C66.324 0.59375 66.6521 0.713542 66.8969 0.953125C67.1469 1.19271 67.2719 1.48958 67.2719 1.84375C67.2719 2.19271 67.1469 2.48698 66.8969 2.72656C66.6521 2.96615 66.324 3.08594 65.9125 3.08594C65.5062 3.08594 65.1755 2.96615 64.9203 2.72656C64.6703 2.48698 64.5453 2.19271 64.5453 1.84375ZM72.4953 1.84375C72.4953 1.48958 72.6203 1.19271 72.8703 0.953125C73.1255 0.713542 73.4563 0.59375 73.8625 0.59375C74.274 0.59375 74.6021 0.713542 74.8469 0.953125C75.0969 1.19271 75.2219 1.48958 75.2219 1.84375C75.2219 2.19271 75.0969 2.48698 74.8469 2.72656C74.6021 2.96615 74.274 3.08594 73.8625 3.08594C73.4563 3.08594 73.1255 2.96615 72.8703 2.72656C72.6203 2.48698 72.4953 2.19271 72.4953 1.84375ZM80.4453 1.84375C80.4453 1.48958 80.5703 1.19271 80.8203 0.953125C81.0755 0.713542 81.4062 0.59375 81.8125 0.59375C82.224 0.59375 82.5521 0.713542 82.7969 0.953125C83.0469 1.19271 83.1719 1.48958 83.1719 1.84375C83.1719 2.19271 83.0469 2.48698 82.7969 2.72656C82.5521 2.96615 82.224 3.08594 81.8125 3.08594C81.4062 3.08594 81.0755 2.96615 80.8203 2.72656C80.5703 2.48698 80.4453 2.19271 80.4453 1.84375ZM88.3953 1.84375C88.3953 1.48958 88.5203 1.19271 88.7703 0.953125C89.0255 0.713542 89.3562 0.59375 89.7625 0.59375C90.174 0.59375 90.5021 0.713542 90.7469 0.953125C90.9969 1.19271 91.1219 1.48958 91.1219 1.84375C91.1219 2.19271 90.9969 2.48698 90.7469 2.72656C90.5021 2.96615 90.174 3.08594 89.7625 3.08594C89.3562 3.08594 89.0255 2.96615 88.7703 2.72656C88.5203 2.48698 88.3953 2.19271 88.3953 1.84375ZM96.3453 1.84375C96.3453 1.48958 96.4703 1.19271 96.7203 0.953125C96.9755 0.713542 97.3063 0.59375 97.7125 0.59375C98.124 0.59375 98.4521 0.713542 98.6969 0.953125C98.9469 1.19271 99.0719 1.48958 99.0719 1.84375C99.0719 2.19271 98.9469 2.48698 98.6969 2.72656C98.4521 2.96615 98.124 3.08594 97.7125 3.08594C97.3063 3.08594 96.9755 2.96615 96.7203 2.72656C96.4703 2.48698 96.3453 2.19271 96.3453 1.84375ZM104.295 1.84375C104.295 1.48958 104.42 1.19271 104.67 0.953125C104.926 0.713542 105.256 0.59375 105.662 0.59375C106.074 0.59375 106.402 0.713542 106.647 0.953125C106.897 1.19271 107.022 1.48958 107.022 1.84375C107.022 2.19271 106.897 2.48698 106.647 2.72656C106.402 2.96615 106.074 3.08594 105.662 3.08594C105.256 3.08594 104.926 2.96615 104.67 2.72656C104.42 2.48698 104.295 2.19271 104.295 1.84375ZM112.245 1.84375C112.245 1.48958 112.37 1.19271 112.62 0.953125C112.876 0.713542 113.206 0.59375 113.613 0.59375C114.024 0.59375 114.352 0.713542 114.597 0.953125C114.847 1.19271 114.972 1.48958 114.972 1.84375C114.972 2.19271 114.847 2.48698 114.597 2.72656C114.352 2.96615 114.024 3.08594 113.613 3.08594C113.206 3.08594 112.876 2.96615 112.62 2.72656C112.37 2.48698 112.245 2.19271 112.245 1.84375ZM120.195 1.84375C120.195 1.48958 120.32 1.19271 120.57 0.953125C120.826 0.713542 121.156 0.59375 121.562 0.59375C121.974 0.59375 122.302 0.713542 122.547 0.953125C122.797 1.19271 122.922 1.48958 122.922 1.84375C122.922 2.19271 122.797 2.48698 122.547 2.72656C122.302 2.96615 121.974 3.08594 121.562 3.08594C121.156 3.08594 120.826 2.96615 120.57 2.72656C120.32 2.48698 120.195 2.19271 120.195 1.84375ZM128.145 1.84375C128.145 1.48958 128.27 1.19271 128.52 0.953125C128.776 0.713542 129.106 0.59375 129.512 0.59375C129.924 0.59375 130.252 0.713542 130.497 0.953125C130.747 1.19271 130.872 1.48958 130.872 1.84375C130.872 2.19271 130.747 2.48698 130.497 2.72656C130.252 2.96615 129.924 3.08594 129.512 3.08594C129.106 3.08594 128.776 2.96615 128.52 2.72656C128.27 2.48698 128.145 2.19271 128.145 1.84375ZM136.095 1.84375C136.095 1.48958 136.22 1.19271 136.47 0.953125C136.726 0.713542 137.056 0.59375 137.462 0.59375C137.874 0.59375 138.202 0.713542 138.447 0.953125C138.697 1.19271 138.822 1.48958 138.822 1.84375C138.822 2.19271 138.697 2.48698 138.447 2.72656C138.202 2.96615 137.874 3.08594 137.462 3.08594C137.056 3.08594 136.726 2.96615 136.47 2.72656C136.22 2.48698 136.095 2.19271 136.095 1.84375ZM144.045 1.84375C144.045 1.48958 144.17 1.19271 144.42 0.953125C144.676 0.713542 145.006 0.59375 145.413 0.59375C145.824 0.59375 146.152 0.713542 146.397 0.953125C146.647 1.19271 146.772 1.48958 146.772 1.84375C146.772 2.19271 146.647 2.48698 146.397 2.72656C146.152 2.96615 145.824 3.08594 145.413 3.08594C145.006 3.08594 144.676 2.96615 144.42 2.72656C144.17 2.48698 144.045 2.19271 144.045 1.84375ZM151.995 1.84375C151.995 1.48958 152.12 1.19271 152.37 0.953125C152.626 0.713542 152.956 0.59375 153.363 0.59375C153.774 0.59375 154.102 0.713542 154.347 0.953125C154.597 1.19271 154.722 1.48958 154.722 1.84375C154.722 2.19271 154.597 2.48698 154.347 2.72656C154.102 2.96615 153.774 3.08594 153.363 3.08594C152.956 3.08594 152.626 2.96615 152.37 2.72656C152.12 2.48698 151.995 2.19271 151.995 1.84375ZM159.945 1.84375C159.945 1.48958 160.07 1.19271 160.32 0.953125C160.576 0.713542 160.906 0.59375 161.312 0.59375C161.724 0.59375 162.052 0.713542 162.297 0.953125C162.547 1.19271 162.672 1.48958 162.672 1.84375C162.672 2.19271 162.547 2.48698 162.297 2.72656C162.052 2.96615 161.724 3.08594 161.312 3.08594C160.906 3.08594 160.576 2.96615 160.32 2.72656C160.07 2.48698 159.945 2.19271 159.945 1.84375ZM167.895 1.84375C167.895 1.48958 168.02 1.19271 168.27 0.953125C168.526 0.713542 168.856 0.59375 169.262 0.59375C169.674 0.59375 170.002 0.713542 170.247 0.953125C170.497 1.19271 170.622 1.48958 170.622 1.84375C170.622 2.19271 170.497 2.48698 170.247 2.72656C170.002 2.96615 169.674 3.08594 169.262 3.08594C168.856 3.08594 168.526 2.96615 168.27 2.72656C168.02 2.48698 167.895 2.19271 167.895 1.84375ZM175.845 1.84375C175.845 1.48958 175.97 1.19271 176.22 0.953125C176.476 0.713542 176.806 0.59375 177.212 0.59375C177.624 0.59375 177.952 0.713542 178.197 0.953125C178.447 1.19271 178.572 1.48958 178.572 1.84375C178.572 2.19271 178.447 2.48698 178.197 2.72656C177.952 2.96615 177.624 3.08594 177.212 3.08594C176.806 3.08594 176.476 2.96615 176.22 2.72656C175.97 2.48698 175.845 2.19271 175.845 1.84375ZM183.795 1.84375C183.795 1.48958 183.92 1.19271 184.17 0.953125C184.426 0.713542 184.756 0.59375 185.163 0.59375C185.574 0.59375 185.902 0.713542 186.147 0.953125C186.397 1.19271 186.522 1.48958 186.522 1.84375C186.522 2.19271 186.397 2.48698 186.147 2.72656C185.902 2.96615 185.574 3.08594 185.163 3.08594C184.756 3.08594 184.426 2.96615 184.17 2.72656C183.92 2.48698 183.795 2.19271 183.795 1.84375ZM191.745 1.84375C191.745 1.48958 191.87 1.19271 192.12 0.953125C192.376 0.713542 192.706 0.59375 193.113 0.59375C193.524 0.59375 193.852 0.713542 194.097 0.953125C194.347 1.19271 194.472 1.48958 194.472 1.84375C194.472 2.19271 194.347 2.48698 194.097 2.72656C193.852 2.96615 193.524 3.08594 193.113 3.08594C192.706 3.08594 192.376 2.96615 192.12 2.72656C191.87 2.48698 191.745 2.19271 191.745 1.84375ZM199.695 1.84375C199.695 1.48958 199.82 1.19271 200.07 0.953125C200.326 0.713542 200.656 0.59375 201.062 0.59375C201.474 0.59375 201.802 0.713542 202.047 0.953125C202.297 1.19271 202.422 1.48958 202.422 1.84375C202.422 2.19271 202.297 2.48698 202.047 2.72656C201.802 2.96615 201.474 3.08594 201.062 3.08594C200.656 3.08594 200.326 2.96615 200.07 2.72656C199.82 2.48698 199.695 2.19271 199.695 1.84375ZM207.645 1.84375C207.645 1.48958 207.77 1.19271 208.02 0.953125C208.276 0.713542 208.606 0.59375 209.012 0.59375C209.424 0.59375 209.752 0.713542 209.997 0.953125C210.247 1.19271 210.372 1.48958 210.372 1.84375C210.372 2.19271 210.247 2.48698 209.997 2.72656C209.752 2.96615 209.424 3.08594 209.012 3.08594C208.606 3.08594 208.276 2.96615 208.02 2.72656C207.77 2.48698 207.645 2.19271 207.645 1.84375ZM215.595 1.84375C215.595 1.48958 215.72 1.19271 215.97 0.953125C216.226 0.713542 216.556 0.59375 216.962 0.59375C217.374 0.59375 217.702 0.713542 217.947 0.953125C218.197 1.19271 218.322 1.48958 218.322 1.84375C218.322 2.19271 218.197 2.48698 217.947 2.72656C217.702 2.96615 217.374 3.08594 216.962 3.08594C216.556 3.08594 216.226 2.96615 215.97 2.72656C215.72 2.48698 215.595 2.19271 215.595 1.84375ZM223.545 1.84375C223.545 1.48958 223.67 1.19271 223.92 0.953125C224.176 0.713542 224.506 0.59375 224.913 0.59375C225.324 0.59375 225.652 0.713542 225.897 0.953125C226.147 1.19271 226.272 1.48958 226.272 1.84375C226.272 2.19271 226.147 2.48698 225.897 2.72656C225.652 2.96615 225.324 3.08594 224.913 3.08594C224.506 3.08594 224.176 2.96615 223.92 2.72656C223.67 2.48698 223.545 2.19271 223.545 1.84375ZM231.495 1.84375C231.495 1.48958 231.62 1.19271 231.87 0.953125C232.126 0.713542 232.456 0.59375 232.863 0.59375C233.274 0.59375 233.602 0.713542 233.847 0.953125C234.097 1.19271 234.222 1.48958 234.222 1.84375C234.222 2.19271 234.097 2.48698 233.847 2.72656C233.602 2.96615 233.274 3.08594 232.863 3.08594C232.456 3.08594 232.126 2.96615 231.87 2.72656C231.62 2.48698 231.495 2.19271 231.495 1.84375ZM239.445 1.84375C239.445 1.48958 239.57 1.19271 239.82 0.953125C240.076 0.713542 240.406 0.59375 240.812 0.59375C241.224 0.59375 241.552 0.713542 241.797 0.953125C242.047 1.19271 242.172 1.48958 242.172 1.84375C242.172 2.19271 242.047 2.48698 241.797 2.72656C241.552 2.96615 241.224 3.08594 240.812 3.08594C240.406 3.08594 240.076 2.96615 239.82 2.72656C239.57 2.48698 239.445 2.19271 239.445 1.84375ZM247.395 1.84375C247.395 1.48958 247.52 1.19271 247.77 0.953125C248.026 0.713542 248.356 0.59375 248.762 0.59375C249.174 0.59375 249.502 0.713542 249.747 0.953125C249.997 1.19271 250.122 1.48958 250.122 1.84375C250.122 2.19271 249.997 2.48698 249.747 2.72656C249.502 2.96615 249.174 3.08594 248.762 3.08594C248.356 3.08594 248.026 2.96615 247.77 2.72656C247.52 2.48698 247.395 2.19271 247.395 1.84375ZM255.345 1.84375C255.345 1.48958 255.47 1.19271 255.72 0.953125C255.976 0.713542 256.306 0.59375 256.712 0.59375C257.124 0.59375 257.452 0.713542 257.697 0.953125C257.947 1.19271 258.072 1.48958 258.072 1.84375C258.072 2.19271 257.947 2.48698 257.697 2.72656C257.452 2.96615 257.124 3.08594 256.712 3.08594C256.306 3.08594 255.976 2.96615 255.72 2.72656C255.47 2.48698 255.345 2.19271 255.345 1.84375ZM263.295 1.84375C263.295 1.48958 263.42 1.19271 263.67 0.953125C263.926 0.713542 264.256 0.59375 264.663 0.59375C265.074 0.59375 265.402 0.713542 265.647 0.953125C265.897 1.19271 266.022 1.48958 266.022 1.84375C266.022 2.19271 265.897 2.48698 265.647 2.72656C265.402 2.96615 265.074 3.08594 264.663 3.08594C264.256 3.08594 263.926 2.96615 263.67 2.72656C263.42 2.48698 263.295 2.19271 263.295 1.84375ZM271.245 1.84375C271.245 1.48958 271.37 1.19271 271.62 0.953125C271.876 0.713542 272.206 0.59375 272.612 0.59375C273.024 0.59375 273.352 0.713542 273.597 0.953125C273.847 1.19271 273.972 1.48958 273.972 1.84375C273.972 2.19271 273.847 2.48698 273.597 2.72656C273.352 2.96615 273.024 3.08594 272.612 3.08594C272.206 3.08594 271.876 2.96615 271.62 2.72656C271.37 2.48698 271.245 2.19271 271.245 1.84375ZM279.195 1.84375C279.195 1.48958 279.32 1.19271 279.57 0.953125C279.826 0.713542 280.156 0.59375 280.562 0.59375C280.974 0.59375 281.302 0.713542 281.547 0.953125C281.797 1.19271 281.922 1.48958 281.922 1.84375C281.922 2.19271 281.797 2.48698 281.547 2.72656C281.302 2.96615 280.974 3.08594 280.562 3.08594C280.156 3.08594 279.826 2.96615 279.57 2.72656C279.32 2.48698 279.195 2.19271 279.195 1.84375ZM287.145 1.84375C287.145 1.48958 287.27 1.19271 287.52 0.953125C287.776 0.713542 288.106 0.59375 288.513 0.59375C288.924 0.59375 289.252 0.713542 289.497 0.953125C289.747 1.19271 289.872 1.48958 289.872 1.84375C289.872 2.19271 289.747 2.48698 289.497 2.72656C289.252 2.96615 288.924 3.08594 288.513 3.08594C288.106 3.08594 287.776 2.96615 287.52 2.72656C287.27 2.48698 287.145 2.19271 287.145 1.84375ZM295.095 1.84375C295.095 1.48958 295.22 1.19271 295.47 0.953125C295.726 0.713542 296.056 0.59375 296.462 0.59375C296.874 0.59375 297.202 0.713542 297.447 0.953125C297.697 1.19271 297.822 1.48958 297.822 1.84375C297.822 2.19271 297.697 2.48698 297.447 2.72656C297.202 2.96615 296.874 3.08594 296.462 3.08594C296.056 3.08594 295.726 2.96615 295.47 2.72656C295.22 2.48698 295.095 2.19271 295.095 1.84375ZM303.045 1.84375C303.045 1.48958 303.17 1.19271 303.42 0.953125C303.676 0.713542 304.006 0.59375 304.413 0.59375C304.824 0.59375 305.152 0.713542 305.397 0.953125C305.647 1.19271 305.772 1.48958 305.772 1.84375C305.772 2.19271 305.647 2.48698 305.397 2.72656C305.152 2.96615 304.824 3.08594 304.413 3.08594C304.006 3.08594 303.676 2.96615 303.42 2.72656C303.17 2.48698 303.045 2.19271 303.045 1.84375ZM310.995 1.84375C310.995 1.48958 311.12 1.19271 311.37 0.953125C311.626 0.713542 311.956 0.59375 312.362 0.59375C312.774 0.59375 313.102 0.713542 313.347 0.953125C313.597 1.19271 313.722 1.48958 313.722 1.84375C313.722 2.19271 313.597 2.48698 313.347 2.72656C313.102 2.96615 312.774 3.08594 312.362 3.08594C311.956 3.08594 311.626 2.96615 311.37 2.72656C311.12 2.48698 310.995 2.19271 310.995 1.84375ZM318.945 1.84375C318.945 1.48958 319.07 1.19271 319.32 0.953125C319.576 0.713542 319.906 0.59375 320.312 0.59375C320.724 0.59375 321.052 0.713542 321.297 0.953125C321.547 1.19271 321.672 1.48958 321.672 1.84375C321.672 2.19271 321.547 2.48698 321.297 2.72656C321.052 2.96615 320.724 3.08594 320.312 3.08594C319.906 3.08594 319.576 2.96615 319.32 2.72656C319.07 2.48698 318.945 2.19271 318.945 1.84375ZM326.895 1.84375C326.895 1.48958 327.02 1.19271 327.27 0.953125C327.526 0.713542 327.856 0.59375 328.263 0.59375C328.674 0.59375 329.002 0.713542 329.247 0.953125C329.497 1.19271 329.622 1.48958 329.622 1.84375C329.622 2.19271 329.497 2.48698 329.247 2.72656C329.002 2.96615 328.674 3.08594 328.263 3.08594C327.856 3.08594 327.526 2.96615 327.27 2.72656C327.02 2.48698 326.895 2.19271 326.895 1.84375ZM334.845 1.84375C334.845 1.48958 334.97 1.19271 335.22 0.953125C335.476 0.713542 335.806 0.59375 336.212 0.59375C336.624 0.59375 336.952 0.713542 337.197 0.953125C337.447 1.19271 337.572 1.48958 337.572 1.84375C337.572 2.19271 337.447 2.48698 337.197 2.72656C336.952 2.96615 336.624 3.08594 336.212 3.08594C335.806 3.08594 335.476 2.96615 335.22 2.72656C334.97 2.48698 334.845 2.19271 334.845 1.84375ZM342.795 1.84375C342.795 1.48958 342.92 1.19271 343.17 0.953125C343.426 0.713542 343.756 0.59375 344.163 0.59375C344.574 0.59375 344.902 0.713542 345.147 0.953125C345.397 1.19271 345.522 1.48958 345.522 1.84375C345.522 2.19271 345.397 2.48698 345.147 2.72656C344.902 2.96615 344.574 3.08594 344.163 3.08594C343.756 3.08594 343.426 2.96615 343.17 2.72656C342.92 2.48698 342.795 2.19271 342.795 1.84375ZM350.745 1.84375C350.745 1.48958 350.87 1.19271 351.12 0.953125C351.376 0.713542 351.706 0.59375 352.112 0.59375C352.524 0.59375 352.852 0.713542 353.097 0.953125C353.347 1.19271 353.472 1.48958 353.472 1.84375C353.472 2.19271 353.347 2.48698 353.097 2.72656C352.852 2.96615 352.524 3.08594 352.112 3.08594C351.706 3.08594 351.376 2.96615 351.12 2.72656C350.87 2.48698 350.745 2.19271 350.745 1.84375ZM358.695 1.84375C358.695 1.48958 358.82 1.19271 359.07 0.953125C359.326 0.713542 359.656 0.59375 360.062 0.59375C360.474 0.59375 360.802 0.713542 361.047 0.953125C361.297 1.19271 361.422 1.48958 361.422 1.84375C361.422 2.19271 361.297 2.48698 361.047 2.72656C360.802 2.96615 360.474 3.08594 360.062 3.08594C359.656 3.08594 359.326 2.96615 359.07 2.72656C358.82 2.48698 358.695 2.19271 358.695 1.84375ZM366.645 1.84375C366.645 1.48958 366.77 1.19271 367.02 0.953125C367.276 0.713542 367.606 0.59375 368.013 0.59375C368.424 0.59375 368.752 0.713542 368.997 0.953125C369.247 1.19271 369.372 1.48958 369.372 1.84375C369.372 2.19271 369.247 2.48698 368.997 2.72656C368.752 2.96615 368.424 3.08594 368.013 3.08594C367.606 3.08594 367.276 2.96615 367.02 2.72656C366.77 2.48698 366.645 2.19271 366.645 1.84375ZM374.595 1.84375C374.595 1.48958 374.72 1.19271 374.97 0.953125C375.226 0.713542 375.556 0.59375 375.962 0.59375C376.374 0.59375 376.702 0.713542 376.947 0.953125C377.197 1.19271 377.322 1.48958 377.322 1.84375C377.322 2.19271 377.197 2.48698 376.947 2.72656C376.702 2.96615 376.374 3.08594 375.962 3.08594C375.556 3.08594 375.226 2.96615 374.97 2.72656C374.72 2.48698 374.595 2.19271 374.595 1.84375ZM382.545 1.84375C382.545 1.48958 382.67 1.19271 382.92 0.953125C383.176 0.713542 383.506 0.59375 383.913 0.59375C384.324 0.59375 384.652 0.713542 384.897 0.953125C385.147 1.19271 385.272 1.48958 385.272 1.84375C385.272 2.19271 385.147 2.48698 384.897 2.72656C384.652 2.96615 384.324 3.08594 383.913 3.08594C383.506 3.08594 383.176 2.96615 382.92 2.72656C382.67 2.48698 382.545 2.19271 382.545 1.84375ZM390.495 1.84375C390.495 1.48958 390.62 1.19271 390.87 0.953125C391.126 0.713542 391.456 0.59375 391.862 0.59375C392.274 0.59375 392.602 0.713542 392.847 0.953125C393.097 1.19271 393.222 1.48958 393.222 1.84375C393.222 2.19271 393.097 2.48698 392.847 2.72656C392.602 2.96615 392.274 3.08594 391.862 3.08594C391.456 3.08594 391.126 2.96615 390.87 2.72656C390.62 2.48698 390.495 2.19271 390.495 1.84375ZM398.445 1.84375C398.445 1.48958 398.57 1.19271 398.82 0.953125C399.076 0.713542 399.406 0.59375 399.812 0.59375C400.224 0.59375 400.552 0.713542 400.797 0.953125C401.047 1.19271 401.172 1.48958 401.172 1.84375C401.172 2.19271 401.047 2.48698 400.797 2.72656C400.552 2.96615 400.224 3.08594 399.812 3.08594C399.406 3.08594 399.076 2.96615 398.82 2.72656C398.57 2.48698 398.445 2.19271 398.445 1.84375ZM406.395 1.84375C406.395 1.48958 406.52 1.19271 406.77 0.953125C407.026 0.713542 407.356 0.59375 407.763 0.59375C408.174 0.59375 408.502 0.713542 408.747 0.953125C408.997 1.19271 409.122 1.48958 409.122 1.84375C409.122 2.19271 408.997 2.48698 408.747 2.72656C408.502 2.96615 408.174 3.08594 407.763 3.08594C407.356 3.08594 407.026 2.96615 406.77 2.72656C406.52 2.48698 406.395 2.19271 406.395 1.84375ZM414.345 1.84375C414.345 1.48958 414.47 1.19271 414.72 0.953125C414.976 0.713542 415.306 0.59375 415.712 0.59375C416.124 0.59375 416.452 0.713542 416.697 0.953125C416.947 1.19271 417.072 1.48958 417.072 1.84375C417.072 2.19271 416.947 2.48698 416.697 2.72656C416.452 2.96615 416.124 3.08594 415.712 3.08594C415.306 3.08594 414.976 2.96615 414.72 2.72656C414.47 2.48698 414.345 2.19271 414.345 1.84375ZM422.295 1.84375C422.295 1.48958 422.42 1.19271 422.67 0.953125C422.926 0.713542 423.256 0.59375 423.663 0.59375C424.074 0.59375 424.402 0.713542 424.647 0.953125C424.897 1.19271 425.022 1.48958 425.022 1.84375C425.022 2.19271 424.897 2.48698 424.647 2.72656C424.402 2.96615 424.074 3.08594 423.663 3.08594C423.256 3.08594 422.926 2.96615 422.67 2.72656C422.42 2.48698 422.295 2.19271 422.295 1.84375ZM430.245 1.84375C430.245 1.48958 430.37 1.19271 430.62 0.953125C430.876 0.713542 431.206 0.59375 431.612 0.59375C432.024 0.59375 432.352 0.713542 432.597 0.953125C432.847 1.19271 432.972 1.48958 432.972 1.84375C432.972 2.19271 432.847 2.48698 432.597 2.72656C432.352 2.96615 432.024 3.08594 431.612 3.08594C431.206 3.08594 430.876 2.96615 430.62 2.72656C430.37 2.48698 430.245 2.19271 430.245 1.84375ZM438.195 1.84375C438.195 1.48958 438.32 1.19271 438.57 0.953125C438.826 0.713542 439.156 0.59375 439.562 0.59375C439.974 0.59375 440.302 0.713542 440.547 0.953125C440.797 1.19271 440.922 1.48958 440.922 1.84375C440.922 2.19271 440.797 2.48698 440.547 2.72656C440.302 2.96615 439.974 3.08594 439.562 3.08594C439.156 3.08594 438.826 2.96615 438.57 2.72656C438.32 2.48698 438.195 2.19271 438.195 1.84375Z" fill="#5B5A7B" fill-opacity="0.5"/>
</svg>
