<svg width="1920" height="7" viewBox="0 0 1920 7" fill="none" xmlns="http://www.w3.org/2000/svg">
<path fill-rule="evenodd" clip-rule="evenodd" d="M0 7C0 3.13401 3.13401 0 7 0C10.866 0 14 3.13401 14 7H0Z" fill="#F8F8F8"/>
<path fill-rule="evenodd" clip-rule="evenodd" d="M14 7C14 3.13401 17.134 0 21 0C24.866 0 28 3.13401 28 7H14Z" fill="#F8F8F8"/>
<path fill-rule="evenodd" clip-rule="evenodd" d="M28 7C28 3.13401 31.134 0 35 0C38.866 0 42 3.13401 42 7H28Z" fill="#F8F8F8"/>
<path fill-rule="evenodd" clip-rule="evenodd" d="M42 7C42 3.13401 45.134 0 49 0C52.866 0 56 3.13401 56 7H42Z" fill="#F8F8F8"/>
<path fill-rule="evenodd" clip-rule="evenodd" d="M56 7C56 3.13401 59.134 0 63 0C66.866 0 70 3.13401 70 7H56Z" fill="#F8F8F8"/>
<path fill-rule="evenodd" clip-rule="evenodd" d="M70 7C70 3.13401 73.134 0 77 0C80.866 0 84 3.13401 84 7H70Z" fill="#F8F8F8"/>
<path fill-rule="evenodd" clip-rule="evenodd" d="M84 7C84 3.13401 87.134 0 91 0C94.866 0 98 3.13401 98 7H84Z" fill="#F8F8F8"/>
<path fill-rule="evenodd" clip-rule="evenodd" d="M98 7C98 3.13401 101.134 0 105 0C108.866 0 112 3.13401 112 7H98Z" fill="#F8F8F8"/>
<path fill-rule="evenodd" clip-rule="evenodd" d="M112 7C112 3.13401 115.134 0 119 0C122.866 0 126 3.13401 126 7H112Z" fill="#F8F8F8"/>
<path fill-rule="evenodd" clip-rule="evenodd" d="M126 7C126 3.13401 129.134 0 133 0C136.866 0 140 3.13401 140 7H126Z" fill="#F8F8F8"/>
<path fill-rule="evenodd" clip-rule="evenodd" d="M140 7C140 3.13401 143.134 0 147 0C150.866 0 154 3.13401 154 7H140Z" fill="#F8F8F8"/>
<path fill-rule="evenodd" clip-rule="evenodd" d="M154 7C154 3.13401 157.134 0 161 0C164.866 0 168 3.13401 168 7H154Z" fill="#F8F8F8"/>
<path fill-rule="evenodd" clip-rule="evenodd" d="M168 7C168 3.13401 171.134 0 175 0C178.866 0 182 3.13401 182 7H168Z" fill="#F8F8F8"/>
<path fill-rule="evenodd" clip-rule="evenodd" d="M182 7C182 3.13401 185.134 0 189 0C192.866 0 196 3.13401 196 7H182Z" fill="#F8F8F8"/>
<path fill-rule="evenodd" clip-rule="evenodd" d="M196 7C196 3.13401 199.134 0 203 0C206.866 0 210 3.13401 210 7H196Z" fill="#F8F8F8"/>
<path fill-rule="evenodd" clip-rule="evenodd" d="M210 7C210 3.13401 213.134 0 217 0C220.866 0 224 3.13401 224 7H210Z" fill="#F8F8F8"/>
<path fill-rule="evenodd" clip-rule="evenodd" d="M224 7C224 3.13401 227.134 0 231 0C234.866 0 238 3.13401 238 7H224Z" fill="#F8F8F8"/>
<path fill-rule="evenodd" clip-rule="evenodd" d="M238 7C238 3.13401 241.134 0 245 0C248.866 0 252 3.13401 252 7H238Z" fill="#F8F8F8"/>
<path fill-rule="evenodd" clip-rule="evenodd" d="M252 7C252 3.13401 255.134 0 259 0C262.866 0 266 3.13401 266 7H252Z" fill="#F8F8F8"/>
<path fill-rule="evenodd" clip-rule="evenodd" d="M266 7C266 3.13401 269.134 0 273 0C276.866 0 280 3.13401 280 7H266Z" fill="#F8F8F8"/>
<path fill-rule="evenodd" clip-rule="evenodd" d="M280 7C280 3.13401 283.134 0 287 0C290.866 0 294 3.13401 294 7H280Z" fill="#F8F8F8"/>
<path fill-rule="evenodd" clip-rule="evenodd" d="M294 7C294 3.13401 297.134 0 301 0C304.866 0 308 3.13401 308 7H294Z" fill="#F8F8F8"/>
<path fill-rule="evenodd" clip-rule="evenodd" d="M308 7C308 3.13401 311.134 0 315 0C318.866 0 322 3.13401 322 7H308Z" fill="#F8F8F8"/>
<path fill-rule="evenodd" clip-rule="evenodd" d="M322 7C322 3.13401 325.134 0 329 0C332.866 0 336 3.13401 336 7H322Z" fill="#F8F8F8"/>
<path fill-rule="evenodd" clip-rule="evenodd" d="M336 7C336 3.13401 339.134 0 343 0C346.866 0 350 3.13401 350 7H336Z" fill="#F8F8F8"/>
<path fill-rule="evenodd" clip-rule="evenodd" d="M350 7C350 3.13401 353.134 0 357 0C360.866 0 364 3.13401 364 7H350Z" fill="#F8F8F8"/>
<path fill-rule="evenodd" clip-rule="evenodd" d="M364 7C364 3.13401 367.134 0 371 0C374.866 0 378 3.13401 378 7H364Z" fill="#F8F8F8"/>
<path fill-rule="evenodd" clip-rule="evenodd" d="M378 7C378 3.13401 381.134 0 385 0C388.866 0 392 3.13401 392 7H378Z" fill="#F8F8F8"/>
<path fill-rule="evenodd" clip-rule="evenodd" d="M392 7C392 3.13401 395.134 0 399 0C402.866 0 406 3.13401 406 7H392Z" fill="#F8F8F8"/>
<path fill-rule="evenodd" clip-rule="evenodd" d="M406 7C406 3.13401 409.134 0 413 0C416.866 0 420 3.13401 420 7H406Z" fill="#F8F8F8"/>
<path fill-rule="evenodd" clip-rule="evenodd" d="M420 7C420 3.13401 423.134 0 427 0C430.866 0 434 3.13401 434 7H420Z" fill="#F8F8F8"/>
<path fill-rule="evenodd" clip-rule="evenodd" d="M434 7C434 3.13401 437.134 0 441 0C444.866 0 448 3.13401 448 7H434Z" fill="#F8F8F8"/>
<path fill-rule="evenodd" clip-rule="evenodd" d="M448 7C448 3.13401 451.134 0 455 0C458.866 0 462 3.13401 462 7H448Z" fill="#F8F8F8"/>
<path fill-rule="evenodd" clip-rule="evenodd" d="M462 7C462 3.13401 465.134 0 469 0C472.866 0 476 3.13401 476 7H462Z" fill="#F8F8F8"/>
<path fill-rule="evenodd" clip-rule="evenodd" d="M476 7C476 3.13401 479.134 0 483 0C486.866 0 490 3.13401 490 7H476Z" fill="#F8F8F8"/>
<path fill-rule="evenodd" clip-rule="evenodd" d="M490 7C490 3.13401 493.134 0 497 0C500.866 0 504 3.13401 504 7H490Z" fill="#F8F8F8"/>
<path fill-rule="evenodd" clip-rule="evenodd" d="M504 7C504 3.13401 507.134 0 511 0C514.866 0 518 3.13401 518 7H504Z" fill="#F8F8F8"/>
<path fill-rule="evenodd" clip-rule="evenodd" d="M518 7C518 3.13401 521.134 0 525 0C528.866 0 532 3.13401 532 7H518Z" fill="#F8F8F8"/>
<path fill-rule="evenodd" clip-rule="evenodd" d="M532 7C532 3.13401 535.134 0 539 0C542.866 0 546 3.13401 546 7H532Z" fill="#F8F8F8"/>
<path fill-rule="evenodd" clip-rule="evenodd" d="M546 7C546 3.13401 549.134 0 553 0C556.866 0 560 3.13401 560 7H546Z" fill="#F8F8F8"/>
<path fill-rule="evenodd" clip-rule="evenodd" d="M560 7C560 3.13401 563.134 0 567 0C570.866 0 574 3.13401 574 7H560Z" fill="#F8F8F8"/>
<path fill-rule="evenodd" clip-rule="evenodd" d="M574 7C574 3.13401 577.134 0 581 0C584.866 0 588 3.13401 588 7H574Z" fill="#F8F8F8"/>
<path fill-rule="evenodd" clip-rule="evenodd" d="M588 7C588 3.13401 591.134 0 595 0C598.866 0 602 3.13401 602 7H588Z" fill="#F8F8F8"/>
<path fill-rule="evenodd" clip-rule="evenodd" d="M602 7C602 3.13401 605.134 0 609 0C612.866 0 616 3.13401 616 7H602Z" fill="#F8F8F8"/>
<path fill-rule="evenodd" clip-rule="evenodd" d="M616 7C616 3.13401 619.134 0 623 0C626.866 0 630 3.13401 630 7H616Z" fill="#F8F8F8"/>
<path fill-rule="evenodd" clip-rule="evenodd" d="M630 7C630 3.13401 633.134 0 637 0C640.866 0 644 3.13401 644 7H630Z" fill="#F8F8F8"/>
<path fill-rule="evenodd" clip-rule="evenodd" d="M644 7C644 3.13401 647.134 0 651 0C654.866 0 658 3.13401 658 7H644Z" fill="#F8F8F8"/>
<path fill-rule="evenodd" clip-rule="evenodd" d="M658 7C658 3.13401 661.134 0 665 0C668.866 0 672 3.13401 672 7H658Z" fill="#F8F8F8"/>
<path fill-rule="evenodd" clip-rule="evenodd" d="M672 7C672 3.13401 675.134 0 679 0C682.866 0 686 3.13401 686 7H672Z" fill="#F8F8F8"/>
<path fill-rule="evenodd" clip-rule="evenodd" d="M686 7C686 3.13401 689.134 0 693 0C696.866 0 700 3.13401 700 7H686Z" fill="#F8F8F8"/>
<path fill-rule="evenodd" clip-rule="evenodd" d="M700 7C700 3.13401 703.134 0 707 0C710.866 0 714 3.13401 714 7H700Z" fill="#F8F8F8"/>
<path fill-rule="evenodd" clip-rule="evenodd" d="M714 7C714 3.13401 717.134 0 721 0C724.866 0 728 3.13401 728 7H714Z" fill="#F8F8F8"/>
<path fill-rule="evenodd" clip-rule="evenodd" d="M728 7C728 3.13401 731.134 0 735 0C738.866 0 742 3.13401 742 7H728Z" fill="#F8F8F8"/>
<path fill-rule="evenodd" clip-rule="evenodd" d="M742 7C742 3.13401 745.134 0 749 0C752.866 0 756 3.13401 756 7H742Z" fill="#F8F8F8"/>
<path fill-rule="evenodd" clip-rule="evenodd" d="M756 7C756 3.13401 759.134 0 763 0C766.866 0 770 3.13401 770 7H756Z" fill="#F8F8F8"/>
<path fill-rule="evenodd" clip-rule="evenodd" d="M770 7C770 3.13401 773.134 0 777 0C780.866 0 784 3.13401 784 7H770Z" fill="#F8F8F8"/>
<path fill-rule="evenodd" clip-rule="evenodd" d="M784 7C784 3.13401 787.134 0 791 0C794.866 0 798 3.13401 798 7H784Z" fill="#F8F8F8"/>
<path fill-rule="evenodd" clip-rule="evenodd" d="M798 7C798 3.13401 801.134 0 805 0C808.866 0 812 3.13401 812 7H798Z" fill="#F8F8F8"/>
<path fill-rule="evenodd" clip-rule="evenodd" d="M812 7C812 3.13401 815.134 0 819 0C822.866 0 826 3.13401 826 7H812Z" fill="#F8F8F8"/>
<path fill-rule="evenodd" clip-rule="evenodd" d="M826 7C826 3.13401 829.134 0 833 0C836.866 0 840 3.13401 840 7H826Z" fill="#F8F8F8"/>
<path fill-rule="evenodd" clip-rule="evenodd" d="M840 7C840 3.13401 843.134 0 847 0C850.866 0 854 3.13401 854 7H840Z" fill="#F8F8F8"/>
<path fill-rule="evenodd" clip-rule="evenodd" d="M854 7C854 3.13401 857.134 0 861 0C864.866 0 868 3.13401 868 7H854Z" fill="#F8F8F8"/>
<path fill-rule="evenodd" clip-rule="evenodd" d="M868 7C868 3.13401 871.134 0 875 0C878.866 0 882 3.13401 882 7H868Z" fill="#F8F8F8"/>
<path fill-rule="evenodd" clip-rule="evenodd" d="M882 7C882 3.13401 885.134 0 889 0C892.866 0 896 3.13401 896 7H882Z" fill="#F8F8F8"/>
<path fill-rule="evenodd" clip-rule="evenodd" d="M896 7C896 3.13401 899.134 0 903 0C906.866 0 910 3.13401 910 7H896Z" fill="#F8F8F8"/>
<path fill-rule="evenodd" clip-rule="evenodd" d="M910 7C910 3.13401 913.134 0 917 0C920.866 0 924 3.13401 924 7H910Z" fill="#F8F8F8"/>
<path fill-rule="evenodd" clip-rule="evenodd" d="M924 7C924 3.13401 927.134 0 931 0C934.866 0 938 3.13401 938 7H924Z" fill="#F8F8F8"/>
<path fill-rule="evenodd" clip-rule="evenodd" d="M938 7C938 3.13401 941.134 0 945 0C948.866 0 952 3.13401 952 7H938Z" fill="#F8F8F8"/>
<path fill-rule="evenodd" clip-rule="evenodd" d="M952 7C952 3.13401 955.134 0 959 0C962.866 0 966 3.13401 966 7H952Z" fill="#F8F8F8"/>
<path fill-rule="evenodd" clip-rule="evenodd" d="M966 7C966 3.13401 969.134 0 973 0C976.866 0 980 3.13401 980 7H966Z" fill="#F8F8F8"/>
<path fill-rule="evenodd" clip-rule="evenodd" d="M980 7C980 3.13401 983.134 0 987 0C990.866 0 994 3.13401 994 7H980Z" fill="#F8F8F8"/>
<path fill-rule="evenodd" clip-rule="evenodd" d="M994 7C994 3.13401 997.134 0 1001 0C1004.87 0 1008 3.13401 1008 7H994Z" fill="#F8F8F8"/>
<path fill-rule="evenodd" clip-rule="evenodd" d="M1008 7C1008 3.13401 1011.13 0 1015 0C1018.87 0 1022 3.13401 1022 7H1008Z" fill="#F8F8F8"/>
<path fill-rule="evenodd" clip-rule="evenodd" d="M1022 7C1022 3.13401 1025.13 0 1029 0C1032.87 0 1036 3.13401 1036 7H1022Z" fill="#F8F8F8"/>
<path fill-rule="evenodd" clip-rule="evenodd" d="M1036 7C1036 3.13401 1039.13 0 1043 0C1046.87 0 1050 3.13401 1050 7H1036Z" fill="#F8F8F8"/>
<path fill-rule="evenodd" clip-rule="evenodd" d="M1050 7C1050 3.13401 1053.13 0 1057 0C1060.87 0 1064 3.13401 1064 7H1050Z" fill="#F8F8F8"/>
<path fill-rule="evenodd" clip-rule="evenodd" d="M1064 7C1064 3.13401 1067.13 0 1071 0C1074.87 0 1078 3.13401 1078 7H1064Z" fill="#F8F8F8"/>
<path fill-rule="evenodd" clip-rule="evenodd" d="M1078 7C1078 3.13401 1081.13 0 1085 0C1088.87 0 1092 3.13401 1092 7H1078Z" fill="#F8F8F8"/>
<path fill-rule="evenodd" clip-rule="evenodd" d="M1092 7C1092 3.13401 1095.13 0 1099 0C1102.87 0 1106 3.13401 1106 7H1092Z" fill="#F8F8F8"/>
<path fill-rule="evenodd" clip-rule="evenodd" d="M1106 7C1106 3.13401 1109.13 0 1113 0C1116.87 0 1120 3.13401 1120 7H1106Z" fill="#F8F8F8"/>
<path fill-rule="evenodd" clip-rule="evenodd" d="M1120 7C1120 3.13401 1123.13 0 1127 0C1130.87 0 1134 3.13401 1134 7H1120Z" fill="#F8F8F8"/>
<path fill-rule="evenodd" clip-rule="evenodd" d="M1134 7C1134 3.13401 1137.13 0 1141 0C1144.87 0 1148 3.13401 1148 7H1134Z" fill="#F8F8F8"/>
<path fill-rule="evenodd" clip-rule="evenodd" d="M1148 7C1148 3.13401 1151.13 0 1155 0C1158.87 0 1162 3.13401 1162 7H1148Z" fill="#F8F8F8"/>
<path fill-rule="evenodd" clip-rule="evenodd" d="M1162 7C1162 3.13401 1165.13 0 1169 0C1172.87 0 1176 3.13401 1176 7H1162Z" fill="#F8F8F8"/>
<path fill-rule="evenodd" clip-rule="evenodd" d="M1176 7C1176 3.13401 1179.13 0 1183 0C1186.87 0 1190 3.13401 1190 7H1176Z" fill="#F8F8F8"/>
<path fill-rule="evenodd" clip-rule="evenodd" d="M1190 7C1190 3.13401 1193.13 0 1197 0C1200.87 0 1204 3.13401 1204 7H1190Z" fill="#F8F8F8"/>
<path fill-rule="evenodd" clip-rule="evenodd" d="M1204 7C1204 3.13401 1207.13 0 1211 0C1214.87 0 1218 3.13401 1218 7H1204Z" fill="#F8F8F8"/>
<path fill-rule="evenodd" clip-rule="evenodd" d="M1218 7C1218 3.13401 1221.13 0 1225 0C1228.87 0 1232 3.13401 1232 7H1218Z" fill="#F8F8F8"/>
<path fill-rule="evenodd" clip-rule="evenodd" d="M1232 7C1232 3.13401 1235.13 0 1239 0C1242.87 0 1246 3.13401 1246 7H1232Z" fill="#F8F8F8"/>
<path fill-rule="evenodd" clip-rule="evenodd" d="M1246 7C1246 3.13401 1249.13 0 1253 0C1256.87 0 1260 3.13401 1260 7H1246Z" fill="#F8F8F8"/>
<path fill-rule="evenodd" clip-rule="evenodd" d="M1260 7C1260 3.13401 1263.13 0 1267 0C1270.87 0 1274 3.13401 1274 7H1260Z" fill="#F8F8F8"/>
<path fill-rule="evenodd" clip-rule="evenodd" d="M1274 7C1274 3.13401 1277.13 0 1281 0C1284.87 0 1288 3.13401 1288 7H1274Z" fill="#F8F8F8"/>
<path fill-rule="evenodd" clip-rule="evenodd" d="M1288 7C1288 3.13401 1291.13 0 1295 0C1298.87 0 1302 3.13401 1302 7H1288Z" fill="#F8F8F8"/>
<path fill-rule="evenodd" clip-rule="evenodd" d="M1302 7C1302 3.13401 1305.13 0 1309 0C1312.87 0 1316 3.13401 1316 7H1302Z" fill="#F8F8F8"/>
<path fill-rule="evenodd" clip-rule="evenodd" d="M1316 7C1316 3.13401 1319.13 0 1323 0C1326.87 0 1330 3.13401 1330 7H1316Z" fill="#F8F8F8"/>
<path fill-rule="evenodd" clip-rule="evenodd" d="M1330 7C1330 3.13401 1333.13 0 1337 0C1340.87 0 1344 3.13401 1344 7H1330Z" fill="#F8F8F8"/>
<path fill-rule="evenodd" clip-rule="evenodd" d="M1344 7C1344 3.13401 1347.13 0 1351 0C1354.87 0 1358 3.13401 1358 7H1344Z" fill="#F8F8F8"/>
<path fill-rule="evenodd" clip-rule="evenodd" d="M1358 7C1358 3.13401 1361.13 0 1365 0C1368.87 0 1372 3.13401 1372 7H1358Z" fill="#F8F8F8"/>
<path fill-rule="evenodd" clip-rule="evenodd" d="M1372 7C1372 3.13401 1375.13 0 1379 0C1382.87 0 1386 3.13401 1386 7H1372Z" fill="#F8F8F8"/>
<path fill-rule="evenodd" clip-rule="evenodd" d="M1386 7C1386 3.13401 1389.13 0 1393 0C1396.87 0 1400 3.13401 1400 7H1386Z" fill="#F8F8F8"/>
<path fill-rule="evenodd" clip-rule="evenodd" d="M1400 7C1400 3.13401 1403.13 0 1407 0C1410.87 0 1414 3.13401 1414 7H1400Z" fill="#F8F8F8"/>
<path fill-rule="evenodd" clip-rule="evenodd" d="M1414 7C1414 3.13401 1417.13 0 1421 0C1424.87 0 1428 3.13401 1428 7H1414Z" fill="#F8F8F8"/>
<path fill-rule="evenodd" clip-rule="evenodd" d="M1428 7C1428 3.13401 1431.13 0 1435 0C1438.87 0 1442 3.13401 1442 7H1428Z" fill="#F8F8F8"/>
<path fill-rule="evenodd" clip-rule="evenodd" d="M1442 7C1442 3.13401 1445.13 0 1449 0C1452.87 0 1456 3.13401 1456 7H1442Z" fill="#F8F8F8"/>
<path fill-rule="evenodd" clip-rule="evenodd" d="M1456 7C1456 3.13401 1459.13 0 1463 0C1466.87 0 1470 3.13401 1470 7H1456Z" fill="#F8F8F8"/>
<path fill-rule="evenodd" clip-rule="evenodd" d="M1470 7C1470 3.13401 1473.13 0 1477 0C1480.87 0 1484 3.13401 1484 7H1470Z" fill="#F8F8F8"/>
<path fill-rule="evenodd" clip-rule="evenodd" d="M1484 7C1484 3.13401 1487.13 0 1491 0C1494.87 0 1498 3.13401 1498 7H1484Z" fill="#F8F8F8"/>
<path fill-rule="evenodd" clip-rule="evenodd" d="M1498 7C1498 3.13401 1501.13 0 1505 0C1508.87 0 1512 3.13401 1512 7H1498Z" fill="#F8F8F8"/>
<path fill-rule="evenodd" clip-rule="evenodd" d="M1512 7C1512 3.13401 1515.13 0 1519 0C1522.87 0 1526 3.13401 1526 7H1512Z" fill="#F8F8F8"/>
<path fill-rule="evenodd" clip-rule="evenodd" d="M1526 7C1526 3.13401 1529.13 0 1533 0C1536.87 0 1540 3.13401 1540 7H1526Z" fill="#F8F8F8"/>
<path fill-rule="evenodd" clip-rule="evenodd" d="M1540 7C1540 3.13401 1543.13 0 1547 0C1550.87 0 1554 3.13401 1554 7H1540Z" fill="#F8F8F8"/>
<path fill-rule="evenodd" clip-rule="evenodd" d="M1554 7C1554 3.13401 1557.13 0 1561 0C1564.87 0 1568 3.13401 1568 7H1554Z" fill="#F8F8F8"/>
<path fill-rule="evenodd" clip-rule="evenodd" d="M1568 7C1568 3.13401 1571.13 0 1575 0C1578.87 0 1582 3.13401 1582 7H1568Z" fill="#F8F8F8"/>
<path fill-rule="evenodd" clip-rule="evenodd" d="M1582 7C1582 3.13401 1585.13 0 1589 0C1592.87 0 1596 3.13401 1596 7H1582Z" fill="#F8F8F8"/>
<path fill-rule="evenodd" clip-rule="evenodd" d="M1596 7C1596 3.13401 1599.13 0 1603 0C1606.87 0 1610 3.13401 1610 7H1596Z" fill="#F8F8F8"/>
<path fill-rule="evenodd" clip-rule="evenodd" d="M1610 7C1610 3.13401 1613.13 0 1617 0C1620.87 0 1624 3.13401 1624 7H1610Z" fill="#F8F8F8"/>
<path fill-rule="evenodd" clip-rule="evenodd" d="M1624 7C1624 3.13401 1627.13 0 1631 0C1634.87 0 1638 3.13401 1638 7H1624Z" fill="#F8F8F8"/>
<path fill-rule="evenodd" clip-rule="evenodd" d="M1638 7C1638 3.13401 1641.13 0 1645 0C1648.87 0 1652 3.13401 1652 7H1638Z" fill="#F8F8F8"/>
<path fill-rule="evenodd" clip-rule="evenodd" d="M1652 7C1652 3.13401 1655.13 0 1659 0C1662.87 0 1666 3.13401 1666 7H1652Z" fill="#F8F8F8"/>
<path fill-rule="evenodd" clip-rule="evenodd" d="M1666 7C1666 3.13401 1669.13 0 1673 0C1676.87 0 1680 3.13401 1680 7H1666Z" fill="#F8F8F8"/>
<path fill-rule="evenodd" clip-rule="evenodd" d="M1680 7C1680 3.13401 1683.13 0 1687 0C1690.87 0 1694 3.13401 1694 7H1680Z" fill="#F8F8F8"/>
<path fill-rule="evenodd" clip-rule="evenodd" d="M1694 7C1694 3.13401 1697.13 0 1701 0C1704.87 0 1708 3.13401 1708 7H1694Z" fill="#F8F8F8"/>
<path fill-rule="evenodd" clip-rule="evenodd" d="M1708 7C1708 3.13401 1711.13 0 1715 0C1718.87 0 1722 3.13401 1722 7H1708Z" fill="#F8F8F8"/>
<path fill-rule="evenodd" clip-rule="evenodd" d="M1722 7C1722 3.13401 1725.13 0 1729 0C1732.87 0 1736 3.13401 1736 7H1722Z" fill="#F8F8F8"/>
<path fill-rule="evenodd" clip-rule="evenodd" d="M1736 7C1736 3.13401 1739.13 0 1743 0C1746.87 0 1750 3.13401 1750 7H1736Z" fill="#F8F8F8"/>
<path fill-rule="evenodd" clip-rule="evenodd" d="M1750 7C1750 3.13401 1753.13 0 1757 0C1760.87 0 1764 3.13401 1764 7H1750Z" fill="#F8F8F8"/>
<path fill-rule="evenodd" clip-rule="evenodd" d="M1764 7C1764 3.13401 1767.13 0 1771 0C1774.87 0 1778 3.13401 1778 7H1764Z" fill="#F8F8F8"/>
<path fill-rule="evenodd" clip-rule="evenodd" d="M1778 7C1778 3.13401 1781.13 0 1785 0C1788.87 0 1792 3.13401 1792 7H1778Z" fill="#F8F8F8"/>
<path fill-rule="evenodd" clip-rule="evenodd" d="M1792 7C1792 3.13401 1795.13 0 1799 0C1802.87 0 1806 3.13401 1806 7H1792Z" fill="#F8F8F8"/>
<path fill-rule="evenodd" clip-rule="evenodd" d="M1806 7C1806 3.13401 1809.13 0 1813 0C1816.87 0 1820 3.13401 1820 7H1806Z" fill="#F8F8F8"/>
<path fill-rule="evenodd" clip-rule="evenodd" d="M1820 7C1820 3.13401 1823.13 0 1827 0C1830.87 0 1834 3.13401 1834 7H1820Z" fill="#F8F8F8"/>
<path fill-rule="evenodd" clip-rule="evenodd" d="M1834 7C1834 3.13401 1837.13 0 1841 0C1844.87 0 1848 3.13401 1848 7H1834Z" fill="#F8F8F8"/>
<path fill-rule="evenodd" clip-rule="evenodd" d="M1848 7C1848 3.13401 1851.13 0 1855 0C1858.87 0 1862 3.13401 1862 7H1848Z" fill="#F8F8F8"/>
<path fill-rule="evenodd" clip-rule="evenodd" d="M1862 7C1862 3.13401 1865.13 0 1869 0C1872.87 0 1876 3.13401 1876 7H1862Z" fill="#F8F8F8"/>
<path fill-rule="evenodd" clip-rule="evenodd" d="M1877 7C1877 3.13401 1880.13 0 1884 0C1887.87 0 1891 3.13401 1891 7H1877Z" fill="#F8F8F8"/>
<path fill-rule="evenodd" clip-rule="evenodd" d="M1892 7C1892 3.13401 1895.13 0 1899 0C1902.87 0 1906 3.13401 1906 7H1892Z" fill="#F8F8F8"/>
<path fill-rule="evenodd" clip-rule="evenodd" d="M1906 7C1906 3.13401 1909.13 0 1913 0C1916.87 0 1920 3.13401 1920 7H1906Z" fill="#F8F8F8"/>
</svg>
