<svg width="822" height="7" viewBox="0 0 822 7" fill="none" xmlns="http://www.w3.org/2000/svg">
<mask id="path-1-inside-1_368_1337" fill="white">
<path fill-rule="evenodd" clip-rule="evenodd" d="M0 7C0 3.13401 3.13401 0 7 0C10.866 0 14 3.13401 14 7H0ZM28 7H14C14 3.13401 17.134 0 21 0C24.866 0 28 3.13401 28 7ZM42 7H28C28 3.13401 31.134 0 35 0C38.866 0 42 3.13401 42 7ZM56 7H42C42 3.13401 45.134 0 49 0C52.866 0 56 3.13401 56 7ZM70 7H56C56 3.13401 59.134 0 63 0C66.866 0 70 3.13401 70 7ZM84 7H70C70 3.13401 73.134 0 77 0C80.866 0 84 3.13401 84 7ZM98 7H84C84 3.13401 87.134 0 91 0C94.866 0 98 3.13401 98 7ZM112 7H98C98 3.13401 101.134 0 105 0C108.866 0 112 3.13401 112 7ZM126 7H112C112 3.13401 115.134 0 119 0C122.866 0 126 3.13401 126 7ZM140 7H126C126 3.13401 129.134 0 133 0C136.866 0 140 3.13401 140 7ZM154 7H140C140 3.13401 143.134 0 147 0C150.866 0 154 3.13401 154 7ZM168 7H154C154 3.13401 157.134 0 161 0C164.866 0 168 3.13401 168 7ZM182 7H168C168 3.13401 171.134 0 175 0C178.866 0 182 3.13401 182 7ZM196 7H182C182 3.13401 185.134 0 189 0C192.866 0 196 3.13401 196 7ZM210 7H196C196 3.13401 199.134 0 203 0C206.866 0 210 3.13401 210 7ZM224 7H210C210 3.13401 213.134 0 217 0C220.866 0 224 3.13401 224 7ZM238 7H224C224 3.13401 227.134 0 231 0C234.866 0 238 3.13401 238 7ZM252 7H238C238 3.13401 241.134 0 245 0C248.866 0 252 3.13401 252 7ZM266 7H252C252 3.13401 255.134 0 259 0C262.866 0 266 3.13401 266 7ZM280 7H266C266 3.13401 269.134 0 273 0C276.866 0 280 3.13401 280 7ZM294 7H280C280 3.13401 283.134 0 287 0C290.866 0 294 3.13401 294 7ZM308 7H294C294 3.13401 297.134 0 301 0C304.866 0 308 3.13401 308 7ZM322 7H308C308 3.13401 311.134 0 315 0C318.866 0 322 3.13401 322 7ZM336 7H322C322 3.13401 325.134 0 329 0C332.866 0 336 3.13401 336 7ZM350 7H336C336 3.13401 339.134 0 343 0C346.866 0 350 3.13401 350 7ZM364 7H350C350 3.13401 353.134 0 357 0C360.866 0 364 3.13401 364 7ZM378 7H364C364 3.13401 367.134 0 371 0C374.866 0 378 3.13401 378 7ZM392 7H378C378 3.13401 381.134 0 385 0C388.866 0 392 3.13401 392 7ZM406 7H392C392 3.13401 395.134 0 399 0C402.866 0 406 3.13401 406 7ZM420 7H406C406 3.13401 409.134 0 413 0C416.866 0 420 3.13401 420 7ZM434 7H420C420 3.13401 423.134 0 427 0C430.866 0 434 3.13401 434 7ZM448 7H434C434 3.13401 437.134 0 441 0C444.866 0 448 3.13401 448 7ZM462 7H448C448 3.13401 451.134 0 455 0C458.866 0 462 3.13401 462 7ZM476 7H462C462 3.13401 465.134 0 469 0C472.866 0 476 3.13401 476 7ZM490 7H476C476 3.13401 479.134 0 483 0C486.866 0 490 3.13401 490 7ZM504 7H490C490 3.13401 493.134 0 497 0C500.866 0 504 3.13401 504 7ZM518 7H504C504 3.13401 507.134 0 511 0C514.866 0 518 3.13401 518 7ZM532 7H518C518 3.13401 521.134 0 525 0C528.866 0 532 3.13401 532 7ZM546 7H532C532 3.13401 535.134 0 539 0C542.866 0 546 3.13401 546 7ZM560 7H546C546 3.13401 549.134 0 553 0C556.866 0 560 3.13401 560 7ZM574 7H560C560 3.13401 563.134 0 567 0C570.866 0 574 3.13401 574 7ZM588 7H574C574 3.13401 577.134 0 581 0C584.866 0 588 3.13401 588 7ZM602 7H588C588 3.13401 591.134 0 595 0C598.866 0 602 3.13401 602 7ZM616 7H602C602 3.13401 605.134 0 609 0C612.866 0 616 3.13401 616 7ZM630 7H616C616 3.13401 619.134 0 623 0C626.866 0 630 3.13401 630 7ZM644 7H630C630 3.13401 633.134 0 637 0C640.866 0 644 3.13401 644 7ZM658 7H644C644 3.13401 647.134 0 651 0C654.866 0 658 3.13401 658 7ZM672 7H658C658 3.13401 661.134 0 665 0C668.866 0 672 3.13401 672 7ZM686 7H672C672 3.13401 675.134 0 679 0C682.866 0 686 3.13401 686 7ZM700 7H686C686 3.13401 689.134 0 693 0C696.866 0 700 3.13401 700 7ZM714 7H700C700 3.13401 703.134 0 707 0C710.866 0 714 3.13401 714 7ZM728 7H714C714 3.13401 717.134 0 721 0C724.866 0 728 3.13401 728 7ZM742 7H728C728 3.13401 731.134 0 735 0C738.866 0 742 3.13401 742 7ZM756 7H742C742 3.13401 745.134 0 749 0C752.866 0 756 3.13401 756 7ZM808.5 4.39693C807.467 1.81997 804.946 0 802 0C799.054 0 796.533 1.81997 795.5 4.39693C794.467 1.81997 791.946 0 789 0C786.054 0 783.533 1.81997 782.5 4.39693C781.467 1.81997 778.946 0 776 0C773.054 0 770.533 1.81997 769.5 4.39693C768.467 1.81997 765.946 0 763 0C759.134 0 756 3.13401 756 7H769H770H782H783H795H796H808H809H822C822 3.13401 818.866 0 815 0C812.054 0 809.533 1.81997 808.5 4.39693Z"/>
</mask>
<path d="M0 7H-1V8H0V7ZM808.5 4.39693L807.572 4.76899L808.5 7.08462L809.428 4.76899L808.5 4.39693ZM795.5 4.39693L794.572 4.76899L795.5 7.08462L796.428 4.76899L795.5 4.39693ZM782.5 4.39693L781.572 4.76899L782.5 7.08462L783.428 4.76899L782.5 4.39693ZM769.5 4.39693L768.572 4.76899L769.5 7.08462L770.428 4.76899L769.5 4.39693ZM822 7V8H823V7H822ZM7 -1C2.58172 -1 -1 2.58172 -1 7H1C1 3.68629 3.68629 1 7 1V-1ZM15 7C15 2.58172 11.4183 -1 7 -1V1C10.3137 1 13 3.68629 13 7H15ZM0 8H14V6H0V8ZM14 8H28V6H14V8ZM21 -1C16.5817 -1 13 2.58172 13 7H15C15 3.68629 17.6863 1 21 1V-1ZM29 7C29 2.58172 25.4183 -1 21 -1V1C24.3137 1 27 3.68629 27 7H29ZM28 8H42V6H28V8ZM35 -1C30.5817 -1 27 2.58172 27 7H29C29 3.68629 31.6863 1 35 1V-1ZM43 7C43 2.58172 39.4183 -1 35 -1V1C38.3137 1 41 3.68629 41 7H43ZM42 8H56V6H42V8ZM49 -1C44.5817 -1 41 2.58172 41 7H43C43 3.68629 45.6863 1 49 1V-1ZM57 7C57 2.58172 53.4183 -1 49 -1V1C52.3137 1 55 3.68629 55 7H57ZM56 8H70V6H56V8ZM63 -1C58.5817 -1 55 2.58172 55 7H57C57 3.68629 59.6863 1 63 1V-1ZM71 7C71 2.58172 67.4183 -1 63 -1V1C66.3137 1 69 3.68629 69 7H71ZM70 8H84V6H70V8ZM77 -1C72.5817 -1 69 2.58172 69 7H71C71 3.68629 73.6863 1 77 1V-1ZM85 7C85 2.58172 81.4183 -1 77 -1V1C80.3137 1 83 3.68629 83 7H85ZM84 8H98V6H84V8ZM91 -1C86.5817 -1 83 2.58172 83 7H85C85 3.68629 87.6863 1 91 1V-1ZM99 7C99 2.58172 95.4183 -1 91 -1V1C94.3137 1 97 3.68629 97 7H99ZM98 8H112V6H98V8ZM105 -1C100.582 -1 97 2.58172 97 7H99C99 3.68629 101.686 1 105 1V-1ZM113 7C113 2.58172 109.418 -1 105 -1V1C108.314 1 111 3.68629 111 7H113ZM112 8H126V6H112V8ZM119 -1C114.582 -1 111 2.58172 111 7H113C113 3.68629 115.686 1 119 1V-1ZM127 7C127 2.58172 123.418 -1 119 -1V1C122.314 1 125 3.68629 125 7H127ZM126 8H140V6H126V8ZM133 -1C128.582 -1 125 2.58172 125 7H127C127 3.68629 129.686 1 133 1V-1ZM141 7C141 2.58172 137.418 -1 133 -1V1C136.314 1 139 3.68629 139 7H141ZM140 8H154V6H140V8ZM147 -1C142.582 -1 139 2.58172 139 7H141C141 3.68629 143.686 1 147 1V-1ZM155 7C155 2.58172 151.418 -1 147 -1V1C150.314 1 153 3.68629 153 7H155ZM154 8H168V6H154V8ZM161 -1C156.582 -1 153 2.58172 153 7H155C155 3.68629 157.686 1 161 1V-1ZM169 7C169 2.58172 165.418 -1 161 -1V1C164.314 1 167 3.68629 167 7H169ZM168 8H182V6H168V8ZM175 -1C170.582 -1 167 2.58172 167 7H169C169 3.68629 171.686 1 175 1V-1ZM183 7C183 2.58172 179.418 -1 175 -1V1C178.314 1 181 3.68629 181 7H183ZM182 8H196V6H182V8ZM189 -1C184.582 -1 181 2.58172 181 7H183C183 3.68629 185.686 1 189 1V-1ZM197 7C197 2.58172 193.418 -1 189 -1V1C192.314 1 195 3.68629 195 7H197ZM196 8H210V6H196V8ZM203 -1C198.582 -1 195 2.58172 195 7H197C197 3.68629 199.686 1 203 1V-1ZM211 7C211 2.58172 207.418 -1 203 -1V1C206.314 1 209 3.68629 209 7H211ZM210 8H224V6H210V8ZM217 -1C212.582 -1 209 2.58172 209 7H211C211 3.68629 213.686 1 217 1V-1ZM225 7C225 2.58172 221.418 -1 217 -1V1C220.314 1 223 3.68629 223 7H225ZM224 8H238V6H224V8ZM231 -1C226.582 -1 223 2.58172 223 7H225C225 3.68629 227.686 1 231 1V-1ZM239 7C239 2.58172 235.418 -1 231 -1V1C234.314 1 237 3.68629 237 7H239ZM238 8H252V6H238V8ZM245 -1C240.582 -1 237 2.58172 237 7H239C239 3.68629 241.686 1 245 1V-1ZM253 7C253 2.58172 249.418 -1 245 -1V1C248.314 1 251 3.68629 251 7H253ZM252 8H266V6H252V8ZM259 -1C254.582 -1 251 2.58172 251 7H253C253 3.68629 255.686 1 259 1V-1ZM267 7C267 2.58172 263.418 -1 259 -1V1C262.314 1 265 3.68629 265 7H267ZM266 8H280V6H266V8ZM273 -1C268.582 -1 265 2.58172 265 7H267C267 3.68629 269.686 1 273 1V-1ZM281 7C281 2.58172 277.418 -1 273 -1V1C276.314 1 279 3.68629 279 7H281ZM280 8H294V6H280V8ZM287 -1C282.582 -1 279 2.58172 279 7H281C281 3.68629 283.686 1 287 1V-1ZM295 7C295 2.58172 291.418 -1 287 -1V1C290.314 1 293 3.68629 293 7H295ZM294 8H308V6H294V8ZM301 -1C296.582 -1 293 2.58172 293 7H295C295 3.68629 297.686 1 301 1V-1ZM309 7C309 2.58172 305.418 -1 301 -1V1C304.314 1 307 3.68629 307 7H309ZM308 8H322V6H308V8ZM315 -1C310.582 -1 307 2.58172 307 7H309C309 3.68629 311.686 1 315 1V-1ZM323 7C323 2.58172 319.418 -1 315 -1V1C318.314 1 321 3.68629 321 7H323ZM322 8H336V6H322V8ZM329 -1C324.582 -1 321 2.58172 321 7H323C323 3.68629 325.686 1 329 1V-1ZM337 7C337 2.58172 333.418 -1 329 -1V1C332.314 1 335 3.68629 335 7H337ZM336 8H350V6H336V8ZM343 -1C338.582 -1 335 2.58172 335 7H337C337 3.68629 339.686 1 343 1V-1ZM351 7C351 2.58172 347.418 -1 343 -1V1C346.314 1 349 3.68629 349 7H351ZM350 8H364V6H350V8ZM357 -1C352.582 -1 349 2.58172 349 7H351C351 3.68629 353.686 1 357 1V-1ZM365 7C365 2.58172 361.418 -1 357 -1V1C360.314 1 363 3.68629 363 7H365ZM364 8H378V6H364V8ZM371 -1C366.582 -1 363 2.58172 363 7H365C365 3.68629 367.686 1 371 1V-1ZM379 7C379 2.58172 375.418 -1 371 -1V1C374.314 1 377 3.68629 377 7H379ZM378 8H392V6H378V8ZM385 -1C380.582 -1 377 2.58172 377 7H379C379 3.68629 381.686 1 385 1V-1ZM393 7C393 2.58172 389.418 -1 385 -1V1C388.314 1 391 3.68629 391 7H393ZM392 8H406V6H392V8ZM399 -1C394.582 -1 391 2.58172 391 7H393C393 3.68629 395.686 1 399 1V-1ZM407 7C407 2.58172 403.418 -1 399 -1V1C402.314 1 405 3.68629 405 7H407ZM406 8H420V6H406V8ZM413 -1C408.582 -1 405 2.58172 405 7H407C407 3.68629 409.686 1 413 1V-1ZM421 7C421 2.58172 417.418 -1 413 -1V1C416.314 1 419 3.68629 419 7H421ZM420 8H434V6H420V8ZM427 -1C422.582 -1 419 2.58172 419 7H421C421 3.68629 423.686 1 427 1V-1ZM435 7C435 2.58172 431.418 -1 427 -1V1C430.314 1 433 3.68629 433 7H435ZM434 8H448V6H434V8ZM441 -1C436.582 -1 433 2.58172 433 7H435C435 3.68629 437.686 1 441 1V-1ZM449 7C449 2.58172 445.418 -1 441 -1V1C444.314 1 447 3.68629 447 7H449ZM448 8H462V6H448V8ZM455 -1C450.582 -1 447 2.58172 447 7H449C449 3.68629 451.686 1 455 1V-1ZM463 7C463 2.58172 459.418 -1 455 -1V1C458.314 1 461 3.68629 461 7H463ZM462 8H476V6H462V8ZM469 -1C464.582 -1 461 2.58172 461 7H463C463 3.68629 465.686 1 469 1V-1ZM477 7C477 2.58172 473.418 -1 469 -1V1C472.314 1 475 3.68629 475 7H477ZM476 8H490V6H476V8ZM483 -1C478.582 -1 475 2.58172 475 7H477C477 3.68629 479.686 1 483 1V-1ZM491 7C491 2.58172 487.418 -1 483 -1V1C486.314 1 489 3.68629 489 7H491ZM490 8H504V6H490V8ZM497 -1C492.582 -1 489 2.58172 489 7H491C491 3.68629 493.686 1 497 1V-1ZM505 7C505 2.58172 501.418 -1 497 -1V1C500.314 1 503 3.68629 503 7H505ZM504 8H518V6H504V8ZM511 -1C506.582 -1 503 2.58172 503 7H505C505 3.68629 507.686 1 511 1V-1ZM519 7C519 2.58172 515.418 -1 511 -1V1C514.314 1 517 3.68629 517 7H519ZM518 8H532V6H518V8ZM525 -1C520.582 -1 517 2.58172 517 7H519C519 3.68629 521.686 1 525 1V-1ZM533 7C533 2.58172 529.418 -1 525 -1V1C528.314 1 531 3.68629 531 7H533ZM532 8H546V6H532V8ZM539 -1C534.582 -1 531 2.58172 531 7H533C533 3.68629 535.686 1 539 1V-1ZM547 7C547 2.58172 543.418 -1 539 -1V1C542.314 1 545 3.68629 545 7H547ZM546 8H560V6H546V8ZM553 -1C548.582 -1 545 2.58172 545 7H547C547 3.68629 549.686 1 553 1V-1ZM561 7C561 2.58172 557.418 -1 553 -1V1C556.314 1 559 3.68629 559 7H561ZM560 8H574V6H560V8ZM567 -1C562.582 -1 559 2.58172 559 7H561C561 3.68629 563.686 1 567 1V-1ZM575 7C575 2.58172 571.418 -1 567 -1V1C570.314 1 573 3.68629 573 7H575ZM574 8H588V6H574V8ZM581 -1C576.582 -1 573 2.58172 573 7H575C575 3.68629 577.686 1 581 1V-1ZM589 7C589 2.58172 585.418 -1 581 -1V1C584.314 1 587 3.68629 587 7H589ZM588 8H602V6H588V8ZM595 -1C590.582 -1 587 2.58172 587 7H589C589 3.68629 591.686 1 595 1V-1ZM603 7C603 2.58172 599.418 -1 595 -1V1C598.314 1 601 3.68629 601 7H603ZM602 8H616V6H602V8ZM609 -1C604.582 -1 601 2.58172 601 7H603C603 3.68629 605.686 1 609 1V-1ZM617 7C617 2.58172 613.418 -1 609 -1V1C612.314 1 615 3.68629 615 7H617ZM616 8H630V6H616V8ZM623 -1C618.582 -1 615 2.58172 615 7H617C617 3.68629 619.686 1 623 1V-1ZM631 7C631 2.58172 627.418 -1 623 -1V1C626.314 1 629 3.68629 629 7H631ZM630 8H644V6H630V8ZM637 -1C632.582 -1 629 2.58172 629 7H631C631 3.68629 633.686 1 637 1V-1ZM645 7C645 2.58172 641.418 -1 637 -1V1C640.314 1 643 3.68629 643 7H645ZM644 8H658V6H644V8ZM651 -1C646.582 -1 643 2.58172 643 7H645C645 3.68629 647.686 1 651 1V-1ZM659 7C659 2.58172 655.418 -1 651 -1V1C654.314 1 657 3.68629 657 7H659ZM658 8H672V6H658V8ZM665 -1C660.582 -1 657 2.58172 657 7H659C659 3.68629 661.686 1 665 1V-1ZM673 7C673 2.58172 669.418 -1 665 -1V1C668.314 1 671 3.68629 671 7H673ZM672 8H686V6H672V8ZM679 -1C674.582 -1 671 2.58172 671 7H673C673 3.68629 675.686 1 679 1V-1ZM687 7C687 2.58172 683.418 -1 679 -1V1C682.314 1 685 3.68629 685 7H687ZM686 8H700V6H686V8ZM693 -1C688.582 -1 685 2.58172 685 7H687C687 3.68629 689.686 1 693 1V-1ZM701 7C701 2.58172 697.418 -1 693 -1V1C696.314 1 699 3.68629 699 7H701ZM700 8H714V6H700V8ZM707 -1C702.582 -1 699 2.58172 699 7H701C701 3.68629 703.686 1 707 1V-1ZM715 7C715 2.58172 711.418 -1 707 -1V1C710.314 1 713 3.68629 713 7H715ZM714 8H728V6H714V8ZM721 -1C716.582 -1 713 2.58172 713 7H715C715 3.68629 717.686 1 721 1V-1ZM729 7C729 2.58172 725.418 -1 721 -1V1C724.314 1 727 3.68629 727 7H729ZM728 8H742V6H728V8ZM735 -1C730.582 -1 727 2.58172 727 7H729C729 3.68629 731.686 1 735 1V-1ZM743 7C743 2.58172 739.418 -1 735 -1V1C738.314 1 741 3.68629 741 7H743ZM742 8H756V6H742V8ZM749 -1C744.582 -1 741 2.58172 741 7H743C743 3.68629 745.686 1 749 1V-1ZM757 7C757 2.58172 753.418 -1 749 -1V1C752.314 1 755 3.68629 755 7H757ZM809.428 4.02486C808.248 1.08158 805.368 -1 802 -1V1C804.524 1 806.686 2.55835 807.572 4.76899L809.428 4.02486ZM802 -1C798.632 -1 795.752 1.08158 794.572 4.02486L796.428 4.76899C797.314 2.55835 799.476 1 802 1V-1ZM796.428 4.02486C795.248 1.08158 792.368 -1 789 -1V1C791.524 1 793.686 2.55835 794.572 4.76899L796.428 4.02486ZM789 -1C785.632 -1 782.752 1.08158 781.572 4.02486L783.428 4.76899C784.314 2.55835 786.476 1 789 1V-1ZM783.428 4.02486C782.248 1.08158 779.368 -1 776 -1V1C778.524 1 780.686 2.55835 781.572 4.76899L783.428 4.02486ZM776 -1C772.632 -1 769.752 1.08158 768.572 4.02486L770.428 4.76899C771.314 2.55835 773.476 1 776 1V-1ZM770.428 4.02486C769.248 1.08158 766.368 -1 763 -1V1C765.524 1 767.686 2.55835 768.572 4.76899L770.428 4.02486ZM763 -1C758.582 -1 755 2.58172 755 7H757C757 3.68629 759.686 1 763 1V-1ZM756 8H769V6H756V8ZM769 8H770V6H769V8ZM770 8H782V6H770V8ZM782 8H783V6H782V8ZM783 8H795V6H783V8ZM795 8H796V6H795V8ZM796 8H808V6H796V8ZM809 6H808V8H809V6ZM822 6H809V8H822V6ZM815 1C818.314 1 821 3.68629 821 7H823C823 2.58172 819.418 -1 815 -1V1ZM809.428 4.76899C810.314 2.55835 812.476 1 815 1V-1C811.632 -1 808.752 1.08158 807.572 4.02486L809.428 4.76899Z" fill="#25283E" fill-opacity="0.5" mask="url(#path-1-inside-1_368_1337)"/>
</svg>
